<svg width="102" height="93" viewBox="0 0 102 93" fill="none" xmlns="http://www.w3.org/2000/svg">
<path d="M0.676016 42.7173L-7 29.5962H30.368C40.3373 29.5962 45.3207 34.5164 45.3182 44.3569C45.3182 50.701 43.2473 54.9998 39.1054 57.2534L49.8025 75.5255H34.4884L24.8867 59.1214H16.7672V71.8044L3.47729 78.3631V46.0003H30.368C31.4748 46.0003 32.0321 45.4538 32.0321 44.3569C32.0321 43.2601 31.4748 42.7173 30.368 42.7173H0.676016Z" fill="#EBEBEB"/>
<path d="M74.4985 29.5962H108L100.328 42.6985H74.4985C67.8547 42.6985 64.5329 45.9791 64.5329 52.5403C64.5329 59.1014 67.8547 62.3895 74.4985 62.4045H85.1956L77.5234 75.5255H74.4909C58.9872 75.5255 51.2354 67.87 51.2354 52.559C51.2354 37.248 58.9897 29.5937 74.4985 29.5962Z" fill="#EBEBEB"/>
<path d="M88.5503 89.8669L50.7995 81.006L28.0633 85.4384L31.5507 76.4651L23.4804 62.7339L7.60149 102.992L50.8222 94.1308L93.4326 102.992L88.5503 89.8669Z" fill="#EBEBEB"/>
<path d="M36.8234 18.5528C31.614 20.2521 26.7622 22.8755 22.5062 26.2944H13.3215C20.3266 18.7627 29.5038 13.5359 39.6133 11.3203L36.8234 18.5528Z" fill="#EBEBEB"/>
<path d="M58.7711 16.8233C67.2546 17.8603 75.1163 21.6899 80.8288 26.2944H90.0135C82.4232 18.1325 72.296 12.7004 61.2313 10.8561L58.7711 16.8233Z" fill="#EBEBEB"/>
<path d="M92.4584 45.9067C94.7897 52.6202 95.4296 59.7935 94.3226 66.8061C93.2157 73.8187 90.3952 80.4593 86.1053 86.1534L92.7389 87.7182C97.8411 79.8568 101.162 69.9813 101.162 60.0722C101.168 55.2765 100.471 50.5052 99.092 45.9067H92.4584Z" fill="#EBEBEB"/>
<path d="M35.8341 100.375C38.9234 102.554 46.7814 103.763 52.1338 103.763C57.0237 103.763 62.7475 102.992 68.0316 100.813L78.1791 102.992C69.3584 107.783 61.0341 110.033 52.1338 110C42.0052 109.962 34.9433 107.783 25.679 102.554L35.8341 100.375Z" fill="#EBEBEB"/>
<path d="M47.0126 35.8591L57.2814 10.7176L50.3256 -8L36.5657 27.526C36.5657 27.526 44.9316 28.1587 47.0126 35.8591Z" fill="#EBEBEB"/>
</svg>
