<svg width="35" height="47" viewBox="0 0 35 47" fill="none" xmlns="http://www.w3.org/2000/svg">
<path d="M24.1437 0.870079C24.1097 0.904089 24.0719 0.96833 24.0568 1.01368C24.0454 1.05525 23.9736 1.1535 23.9018 1.23285C23.83 1.31221 23.7696 1.4029 23.7696 1.42936C23.7696 1.45959 23.7356 1.51627 23.6978 1.55406C23.66 1.59185 23.6146 1.65987 23.5995 1.70522C23.5882 1.75056 23.5617 1.78457 23.5428 1.78457C23.5239 1.78457 23.4748 1.84882 23.4332 1.93195C23.3917 2.01131 23.3048 2.12089 23.2405 2.1738C23.1801 2.2267 23.1271 2.30606 23.1271 2.34763C23.1271 2.3892 23.0931 2.4421 23.0516 2.46478C23.01 2.48745 22.976 2.52902 22.976 2.56303C22.976 2.59326 22.9155 2.67639 22.8437 2.75197C22.7719 2.82377 22.7115 2.89935 22.7115 2.91824C22.7115 2.94092 22.6623 3.00894 22.5981 3.07696C22.5376 3.1412 22.4847 3.22434 22.4847 3.26212C22.4847 3.30369 22.4507 3.35282 22.4092 3.37927C22.3676 3.40572 22.3336 3.45107 22.3336 3.47752C22.3336 3.52665 22.1144 3.83274 22.0615 3.85541C22.0426 3.86297 22.0313 3.90454 22.0313 3.94611C22.0313 3.98767 22.001 4.02924 21.9557 4.04058C21.9141 4.05192 21.8801 4.07837 21.8801 4.10104C21.8801 4.15017 21.6496 4.49783 21.5287 4.62631C21.4758 4.68299 21.4229 4.76235 21.4115 4.80014C21.3964 4.84171 21.3548 4.90217 21.3133 4.93996C21.2717 4.97775 21.2377 5.03065 21.2377 5.05711C21.2377 5.08356 21.2037 5.12512 21.1621 5.1478C21.1206 5.17047 21.0865 5.20448 21.0865 5.22716C21.0865 5.31785 20.7616 5.63906 20.6671 5.63906C20.5537 5.63906 20.4366 5.49924 20.4668 5.40099C20.4819 5.35564 20.5159 5.30273 20.5424 5.28762C20.5726 5.2725 20.5953 5.22716 20.5953 5.18937C20.5953 5.15158 20.6293 5.076 20.6709 5.02309C20.7805 4.88328 20.7653 4.84549 20.5953 4.84549C20.4895 4.84549 20.4441 4.8606 20.4441 4.89839C20.4441 4.92862 20.4101 4.96641 20.3685 4.97775C20.327 4.98908 20.293 5.02309 20.293 5.04577C20.293 5.10623 20.1229 5.29895 20.07 5.29895C20.0473 5.29895 20.0096 5.3443 19.9869 5.40099C19.968 5.45767 19.8811 5.5597 19.8017 5.62772C19.7224 5.69952 19.643 5.78643 19.6317 5.828C19.6203 5.86579 19.5712 5.91114 19.5259 5.92625C19.4125 5.96026 19.3482 6.03584 19.3482 6.13031C19.3482 6.17944 19.3142 6.22101 19.2538 6.24368C19.2009 6.26258 19.1593 6.30414 19.1593 6.33815C19.1593 6.37972 19.1177 6.39484 19.0006 6.39484C18.8154 6.39484 18.7739 6.37216 18.7096 6.25124C18.6454 6.12654 18.5547 6.20967 18.5547 6.39106C18.5547 6.46664 18.5244 6.56111 18.4867 6.60646C18.4073 6.70093 18.2335 6.81052 18.1617 6.81052C18.1012 6.81052 18.0634 6.88987 18.0634 7.02214C18.0634 7.07126 18.0294 7.14306 17.9878 7.17707C17.9463 7.21486 17.9123 7.29044 17.9123 7.34712C17.9123 7.46427 17.6402 8.07267 17.5344 8.18982C17.4966 8.23139 17.455 8.3372 17.4399 8.42411C17.4248 8.5148 17.3946 8.59794 17.3681 8.61306C17.3416 8.63195 17.2963 8.7302 17.2736 8.83979C17.2472 8.94938 17.2018 9.05519 17.1716 9.08164C17.1414 9.10431 17.1187 9.15344 17.1187 9.18745C17.1187 9.22146 17.0847 9.31215 17.0431 9.39151C17.0015 9.46709 16.9675 9.56534 16.9675 9.61069C16.9675 9.65603 16.9373 9.6976 16.892 9.70894C16.8315 9.72405 16.8164 9.76184 16.8164 9.90922C16.8164 10.1019 16.7521 10.3249 16.6992 10.3249C16.6803 10.3249 16.6652 10.3551 16.6652 10.3929C16.6652 10.4307 16.6312 10.5252 16.5896 10.6083C16.5481 10.6915 16.5141 10.7935 16.5141 10.8426C16.5141 10.8917 16.4801 10.9484 16.4385 10.9749C16.3969 11.0013 16.3629 11.0618 16.3629 11.1109C16.3629 11.2545 16.2836 11.5304 16.2269 11.5757C16.1966 11.5984 16.174 11.6777 16.174 11.7533C16.174 11.8251 16.1248 11.9952 16.0606 12.1274C16.0001 12.2559 15.9472 12.392 15.9472 12.4184C15.9472 12.4486 15.9321 12.4827 15.9132 12.494C15.8943 12.5091 15.8679 12.5847 15.8528 12.664C15.8376 12.7472 15.8036 12.8341 15.7734 12.8605C15.7432 12.8832 15.7205 12.9399 15.7205 12.9852C15.7205 13.0306 15.6865 13.1326 15.6449 13.2158C15.6033 13.2989 15.5693 13.3934 15.5693 13.4312C15.5693 13.4652 15.5542 13.5067 15.5315 13.5181C15.5127 13.5294 15.4938 13.5974 15.4938 13.6655C15.4938 13.7373 15.4673 13.8128 15.4371 13.8393C15.4068 13.8657 15.3804 13.9224 15.3804 13.9678C15.3804 14.0131 15.3577 14.0811 15.3275 14.1227C15.301 14.1643 15.2632 14.2587 15.2481 14.3305C15.233 14.4023 15.1839 14.5459 15.1348 14.6517C14.9761 14.9994 14.9269 15.1279 14.9269 15.1884C14.9269 15.2224 14.8929 15.3282 14.8476 15.4226C14.806 15.5171 14.738 15.6645 14.7002 15.7476C14.6624 15.8345 14.6133 15.997 14.5906 16.1142C14.5641 16.2313 14.5188 16.3485 14.4886 16.3712C14.4621 16.3976 14.4357 16.4581 14.4357 16.5072C14.4357 16.5601 14.4206 16.6281 14.4017 16.6659C14.345 16.7793 14.2921 16.9153 14.2429 17.0702C14.2203 17.1534 14.1863 17.2365 14.1711 17.2592C14.156 17.2781 14.1334 17.3537 14.1182 17.4217C14.0993 17.5388 14.0238 17.7391 13.9406 17.8903C13.9217 17.9281 13.9066 17.9772 13.9066 17.9999C13.9066 18.0943 13.7819 18.4533 13.7328 18.5025C13.7026 18.5327 13.6648 18.6801 13.6459 18.8274C13.627 18.9786 13.5854 19.126 13.5514 19.1638C13.5174 19.2015 13.4909 19.2696 13.4909 19.3225C13.4909 19.3716 13.4569 19.485 13.4191 19.5681C13.3776 19.655 13.3247 19.8213 13.2982 19.9384C13.2718 20.0556 13.2415 20.1501 13.2264 20.1501C13.2113 20.1501 13.1848 20.2067 13.1735 20.2785C13.1584 20.3503 13.1244 20.4184 13.0942 20.4297C13.0639 20.441 13.0375 20.4977 13.0375 20.5544C13.0375 20.6149 13.0072 20.7056 12.9732 20.7547C12.9354 20.8076 12.8863 20.9512 12.8599 21.0721C12.807 21.3177 12.6936 21.4727 12.5613 21.4727C12.4442 21.4727 12.4253 21.4009 12.4026 20.9134C12.3875 20.5468 12.3762 20.4826 12.3157 20.4486C12.2741 20.4297 12.2439 20.3768 12.2439 20.3352C12.2439 20.2937 12.2212 20.2143 12.191 20.1576C12.1645 20.1009 12.1305 19.98 12.1154 19.8893C12.1003 19.7948 12.0663 19.6664 12.0361 19.6059C12.0096 19.5417 11.9643 19.3867 11.9416 19.262C11.9189 19.1373 11.8736 18.9824 11.8471 18.9219C11.8169 18.8577 11.7829 18.6876 11.7678 18.544C11.7526 18.3966 11.7262 18.2682 11.7073 18.2568C11.6279 18.2039 11.4541 17.6409 11.4503 17.4255C11.4503 17.3537 11.4314 17.2743 11.4088 17.2516C11.3899 17.2327 11.3445 17.0702 11.3143 16.8964C11.2841 16.7226 11.2387 16.5261 11.2085 16.4656C11.182 16.4014 11.1442 16.2616 11.1329 16.1482C11.1027 15.9252 10.9591 15.4604 10.8911 15.3773C10.8684 15.3508 10.8381 15.2526 10.823 15.1619C10.8079 15.0674 10.7626 14.9352 10.7248 14.8671C10.687 14.7991 10.6568 14.6858 10.6568 14.6177C10.6568 14.5459 10.6228 14.3986 10.585 14.2852C10.5472 14.1756 10.4678 13.8279 10.4111 13.5181C10.3582 13.2044 10.294 12.9172 10.2713 12.8794C10.2524 12.8379 10.2146 12.6338 10.1882 12.426C10.1655 12.2144 10.1353 12.0254 10.1202 12.0027C10.105 11.9838 10.0748 11.8478 10.0484 11.7004C10.0257 11.5568 9.99167 11.4208 9.97656 11.4019C9.93877 11.349 9.87831 11.0769 9.8254 10.7406C9.80273 10.5856 9.76494 10.3967 9.74604 10.3211C9.72715 10.2455 9.70825 9.98858 9.70448 9.75428L9.7007 9.33105L9.48152 9.10809C9.35682 8.98339 9.25857 8.85113 9.25857 8.80956C9.25857 8.76421 9.20944 8.71509 9.1263 8.67352C9.0016 8.61306 8.91846 8.47324 8.91846 8.32208C8.91846 8.23894 8.84289 8.20871 8.65016 8.20871C8.41965 8.20871 8.35163 8.15581 8.35163 7.98198C8.35163 7.90262 8.37052 7.82326 8.38942 7.81193C8.41209 7.80059 8.42721 7.74769 8.42721 7.69478C8.42721 7.61542 8.40831 7.60409 8.29494 7.60409C8.15513 7.60409 8.01531 7.66455 7.95862 7.74769C7.92839 7.80059 7.69032 7.7817 7.61474 7.71745C7.50137 7.62676 7.0857 7.52851 6.80606 7.52851H6.50374L6.49241 7.66833L6.48107 7.81193L6.26567 7.82326C6.09184 7.83082 6.0465 7.84972 6.0276 7.9064C5.99359 8.01599 5.6875 8.01599 5.63082 7.9064C5.60814 7.86483 5.55146 7.83082 5.50611 7.83082C5.46077 7.83082 5.35874 7.79681 5.27938 7.75524C5.20002 7.7099 5.06776 7.67967 4.96951 7.67967H4.79946V8.05C4.79946 8.43923 4.7919 8.45812 4.55005 8.61683C4.45558 8.6773 4.27041 9.12321 4.27041 9.28192C4.27041 9.5011 4.17972 9.67493 4.05123 9.70516C3.8245 9.75428 3.84339 9.69004 3.83961 10.4685C3.83584 10.7595 3.82072 10.9409 3.79427 10.9598C3.77159 10.9749 3.74136 11.0353 3.72625 11.0958C3.69224 11.2356 3.51085 11.4586 3.43527 11.4586C3.36725 11.4586 3.32568 11.5342 3.32568 11.6475C3.32568 11.6853 3.37481 11.7533 3.43905 11.7987C3.51085 11.8478 3.55242 11.912 3.55242 11.9687C3.55242 12.0178 3.56753 12.067 3.58643 12.0821C3.6091 12.0934 3.63555 12.1803 3.65067 12.271C3.66201 12.3655 3.70735 12.4827 3.74514 12.5318C3.82072 12.63 3.84339 12.8379 3.77915 12.8757C3.72625 12.9097 3.73381 13.0684 3.79049 13.1137C3.81316 13.1326 3.8774 13.1629 3.93031 13.178C4.08524 13.2233 4.42157 13.5785 4.42157 13.6919C4.42157 13.8317 4.47825 13.8657 4.773 13.896C5.08665 13.9262 5.22647 14.0244 5.12444 14.1378C5.09043 14.1756 5.06398 14.2474 5.06398 14.3041C5.06398 14.3834 5.09421 14.4175 5.23403 14.4779C5.35874 14.5308 5.40786 14.5799 5.42676 14.6593C5.44187 14.716 5.48344 14.8067 5.52501 14.8558C5.5628 14.9049 5.59303 14.9616 5.59303 14.9843C5.59303 15.007 5.64971 15.1468 5.72151 15.2904C5.79331 15.4378 5.87267 15.6343 5.89912 15.7287C5.92557 15.8232 5.97848 15.9404 6.01626 15.9895C6.05405 16.0386 6.08428 16.1369 6.08428 16.2049C6.08428 16.2729 6.0994 16.3371 6.1183 16.3523C6.13719 16.3636 6.18254 16.4618 6.22033 16.5714C6.25434 16.6772 6.34125 16.8889 6.41305 17.0362C6.48107 17.1874 6.53775 17.3234 6.53775 17.3386C6.53775 17.3574 6.5831 17.4557 6.63223 17.5615C6.68513 17.6635 6.7267 17.7958 6.7267 17.8487C6.7267 17.9054 6.74937 17.9696 6.7796 17.9923C6.80983 18.0188 6.84762 18.0868 6.85896 18.1472C6.88541 18.2719 7.00256 18.51 7.08192 18.5969C7.11215 18.6309 7.14994 18.733 7.16883 18.8274C7.20662 19.0164 7.27842 19.058 7.43713 18.9748C7.52405 18.9257 7.53916 18.9332 7.6752 19.0882C7.75834 19.1789 7.82258 19.2847 7.82258 19.3263C7.82258 19.3678 7.85659 19.4434 7.89816 19.4963C7.93973 19.5492 7.97374 19.6437 7.97374 19.7079C7.97374 19.7722 7.99641 19.8515 8.02286 19.8818C8.10222 19.9762 8.26471 20.3957 8.41965 20.8945C8.45366 21.0041 8.50278 21.0948 8.52924 21.0948C8.55569 21.0948 8.58592 21.1741 8.60104 21.2837C8.61615 21.3858 8.63883 21.4727 8.65772 21.4727C8.67661 21.4727 8.69173 21.5142 8.69173 21.5596C8.69173 21.6087 8.72574 21.6805 8.76353 21.7145C8.8051 21.7523 8.858 21.8695 8.88068 21.9753C8.90713 22.0849 8.96003 22.2209 9.0016 22.2776C9.04317 22.338 9.08474 22.4476 9.09607 22.5232C9.11497 22.6668 9.18299 22.8482 9.28124 23.0296C9.30769 23.0825 9.33414 23.177 9.33414 23.2374C9.33414 23.3772 9.40594 23.6266 9.44373 23.6266C9.46263 23.6266 9.49664 23.7665 9.51931 23.9365C9.56466 24.2502 9.61756 24.458 9.67802 24.5789C9.69692 24.6167 9.71203 24.783 9.71203 24.9493C9.71203 25.1269 9.72715 25.2516 9.74982 25.2516C9.7725 25.2516 9.78761 25.2931 9.78761 25.3461C9.78761 25.433 9.7725 25.4405 9.6289 25.4405C9.50419 25.4405 9.48152 25.4519 9.51553 25.4859C9.54198 25.5123 9.56088 25.6181 9.56088 25.7202C9.56088 25.8298 9.59489 25.9847 9.63646 26.0792C9.67802 26.1699 9.71203 26.3135 9.71203 26.4004C9.71203 26.4873 9.72715 26.5742 9.74604 26.5969C9.79895 26.6536 9.86319 26.971 9.86319 27.1788C9.86319 27.3149 9.87831 27.3753 9.91987 27.3904C9.99545 27.4207 9.99923 27.9951 9.92365 28.1047C9.82918 28.2407 9.74982 29.5444 9.8254 29.7636C9.87831 29.9336 10.5169 30.5798 10.6265 30.5798C10.6416 30.5798 10.6568 30.595 10.6568 30.6138C10.6568 30.6819 11.4277 31.4868 11.4957 31.4868C11.541 31.4868 11.7413 31.6908 11.764 31.7589C11.7791 31.7966 11.8131 31.8269 11.8471 31.8269C11.8773 31.8269 11.9038 31.8533 11.9038 31.8836C11.9038 31.9138 11.934 31.9705 11.9718 32.0083C12.1268 32.167 12.1683 32.2766 12.1683 32.5411V32.8056L12.3119 32.8472C12.3875 32.8699 12.5764 32.9001 12.7276 32.9114C12.8788 32.9228 13.011 32.9492 13.0224 32.9643C13.0564 33.021 13.3171 33.0021 13.4078 32.9379C13.4758 32.8925 13.5401 32.885 13.6648 32.9039C13.9595 32.9454 14.1825 32.8472 14.5717 32.5033C14.8665 32.2388 14.9118 32.1859 14.9345 32.0423C14.9496 31.9554 14.9609 31.4679 14.9647 30.9577C14.9647 30.4476 14.9836 29.8959 15.0025 29.7296C15.0214 29.5633 15.0554 29.2005 15.0781 28.9209C15.1008 28.6224 15.1385 28.3654 15.1726 28.3012C15.2028 28.2369 15.2292 28.116 15.2292 28.0291C15.2292 27.8439 15.301 27.4396 15.3426 27.3867C15.3691 27.3489 15.3955 27.1448 15.4409 26.5742C15.4522 26.4193 15.4862 26.2379 15.5164 26.1699C15.5467 26.1056 15.5693 25.9998 15.5693 25.9356C15.5693 25.8713 15.5958 25.7466 15.6222 25.6597C15.6525 25.569 15.6978 25.3876 15.7205 25.2516C15.7394 25.1155 15.7847 24.9379 15.815 24.8548C15.8452 24.7717 15.8679 24.6356 15.8717 24.5525C15.8717 24.4693 15.8943 24.356 15.9246 24.3031C15.951 24.2502 16.0039 24.0726 16.0379 23.9138C16.0757 23.7551 16.1173 23.6266 16.1324 23.6266C16.1513 23.6266 16.174 23.5511 16.1815 23.4604C16.1929 23.3697 16.2306 23.2412 16.2647 23.1732C16.2987 23.1052 16.3251 23.0031 16.3251 22.9502C16.3251 22.8935 16.3591 22.7802 16.4007 22.7008C16.446 22.6177 16.5027 22.4552 16.533 22.3418C16.601 22.066 16.6577 21.8997 16.7446 21.7296C16.7824 21.6541 16.8164 21.5369 16.8164 21.4727C16.8164 21.4122 16.8504 21.2875 16.8882 21.1968C16.9297 21.1099 16.9675 20.9739 16.9789 20.8983C16.9902 20.8227 17.0242 20.7018 17.0582 20.6338C17.0885 20.5657 17.1338 20.441 17.1527 20.3579C17.2321 20.048 17.3228 19.81 17.3681 19.81C17.3983 19.81 17.4248 19.723 17.4399 19.5908C17.455 19.4736 17.5004 19.3225 17.5381 19.2582C17.5797 19.194 17.6099 19.0995 17.6099 19.0542C17.6099 19.005 17.6477 18.8879 17.6893 18.7934C17.7347 18.699 17.7838 18.5856 17.7989 18.544C17.848 18.408 17.9954 18.0528 18.0294 17.9885C18.0483 17.9507 18.0634 17.8714 18.0634 17.8147C18.0634 17.7542 18.0974 17.6749 18.139 17.6371C18.1806 17.5993 18.2146 17.5502 18.2146 17.5275C18.2146 17.5048 18.2561 17.4103 18.3053 17.3159C18.3506 17.2214 18.4035 17.0929 18.4149 17.0249C18.4375 16.9115 18.6151 16.5034 18.8041 16.1331C18.8532 16.0348 18.8948 15.9328 18.8948 15.9063C18.8948 15.8837 18.9515 15.7476 19.0233 15.6116C19.0913 15.4755 19.1593 15.3244 19.1706 15.2715C19.1858 15.2186 19.2311 15.1354 19.2727 15.0863C19.3142 15.0372 19.3482 14.9503 19.3482 14.8936C19.3482 14.8218 19.3709 14.7802 19.4238 14.7651C19.4654 14.7538 19.4994 14.7084 19.4994 14.6706C19.4994 14.5875 19.711 14.1567 19.7639 14.1227C19.7866 14.1076 19.8017 14.0698 19.8017 14.032C19.8017 13.9942 19.8357 13.9224 19.8735 13.8695C19.9151 13.8204 19.9604 13.7259 19.9755 13.6655C19.9869 13.605 20.0171 13.537 20.0436 13.5181C20.1002 13.4652 20.293 13.1666 20.293 13.1288C20.293 13.11 20.327 13.0646 20.3685 13.0268C20.4101 12.989 20.4441 12.9437 20.4441 12.9248C20.4441 12.9021 20.4781 12.8454 20.5197 12.7925C20.5613 12.7396 20.5953 12.6678 20.5953 12.63C20.5953 12.596 20.6293 12.5356 20.6709 12.4978C20.7124 12.46 20.7464 12.4071 20.7464 12.3806C20.7464 12.3542 20.7767 12.3013 20.8182 12.2635C20.856 12.2257 20.9014 12.1539 20.9165 12.101C20.9316 12.0481 20.977 11.9649 21.0147 11.9158C21.0563 11.8667 21.0865 11.8062 21.0865 11.7798C21.0865 11.7533 21.113 11.708 21.147 11.6815C21.181 11.6551 21.2226 11.5984 21.2415 11.553C21.2604 11.5115 21.3359 11.4019 21.404 11.3074C21.4758 11.2129 21.5362 11.1147 21.5362 11.0845C21.54 11.0542 21.5665 11.0051 21.5967 10.9711C21.7441 10.8124 21.8801 10.631 21.8801 10.597C21.8801 10.5743 21.9292 10.5025 21.9935 10.4345C22.1257 10.2871 22.2202 10.0982 22.2656 9.89033C22.2845 9.80719 22.3185 9.66359 22.3374 9.56912C22.36 9.47465 22.3865 9.34238 22.3978 9.27436C22.4092 9.20634 22.4318 9.1421 22.4507 9.13077C22.4696 9.11943 22.4847 9.07786 22.4847 9.03629C22.4847 8.99473 22.5263 8.88136 22.5792 8.78311C22.6321 8.68485 22.6737 8.57527 22.6737 8.53748C22.6737 8.49969 22.7001 8.4619 22.7304 8.45056C22.7606 8.43545 22.787 8.40899 22.787 8.3901C22.787 8.36743 22.8475 8.28429 22.9193 8.20493C22.9911 8.1218 23.0516 8.02355 23.0516 7.98576C23.0516 7.94419 23.0705 7.89884 23.0894 7.88751C23.112 7.87617 23.1271 7.79681 23.1271 7.71368C23.1271 7.46805 23.2027 7.38869 23.4824 7.35846L23.7242 7.33579L23.7544 7.04481C23.7696 6.8861 23.7847 6.57245 23.7847 6.34949C23.7885 5.98294 23.7809 5.94137 23.7204 5.94137C23.6826 5.94137 23.6449 5.96782 23.6335 5.99805C23.6222 6.02828 23.5542 6.06985 23.4861 6.09253C23.3123 6.14921 23.1271 6.34571 23.1271 6.47419C23.1271 6.54977 23.0705 6.62913 22.9004 6.78406C22.7115 6.96167 22.6737 7.01836 22.6737 7.12417C22.6737 7.3698 22.3676 7.48694 22.3411 7.24887C22.3336 7.18841 22.3449 7.12417 22.3676 7.10149C22.3903 7.07882 22.4092 7.02214 22.4092 6.97679C22.4092 6.92766 22.4243 6.88232 22.4394 6.87098C22.4583 6.85964 22.4961 6.75761 22.5225 6.64047C22.5641 6.47042 22.5641 6.41373 22.5225 6.33815C22.4772 6.25502 22.4885 6.22101 22.6132 5.9716C22.6926 5.82044 22.7795 5.65417 22.8097 5.60127C22.8362 5.54836 22.8626 5.45389 22.8626 5.38587C22.8626 5.25361 22.9873 5.01554 23.0705 4.98153C23.0969 4.97397 23.1272 4.89839 23.1347 4.81903C23.1423 4.70567 23.1649 4.67544 23.2405 4.65654C23.3312 4.63387 23.335 4.62253 23.3463 4.30132L23.3577 3.97256L23.2519 3.9839C23.1687 3.99145 23.1423 4.01791 23.1347 4.09348C23.1272 4.15017 23.0894 4.22575 23.0478 4.26353C23.01 4.29754 22.976 4.35801 22.976 4.3958C22.976 4.43359 22.942 4.48271 22.9004 4.50538C22.8588 4.52806 22.8248 4.56963 22.8248 4.59986C22.8248 4.63009 22.8059 4.65654 22.787 4.65654C22.7644 4.65654 22.7115 4.69811 22.6661 4.75101C22.6208 4.80392 22.5565 4.84549 22.5187 4.84549C22.4734 4.84549 22.4507 4.89083 22.4318 5.03065C22.4092 5.21204 22.3638 5.26117 22.2353 5.26117C22.1597 5.26117 22.1711 5.13646 22.258 4.97775C22.2996 4.90217 22.3336 4.81903 22.3336 4.7888C22.3336 4.75857 22.3638 4.717 22.4054 4.69811C22.4432 4.67544 22.4885 4.59986 22.4999 4.52806C22.515 4.45248 22.549 4.38068 22.5717 4.36557C22.5981 4.34667 22.6472 4.27487 22.6737 4.20307C22.7304 4.06703 22.8437 3.94611 23.0251 3.83652C23.1158 3.77606 23.1271 3.7496 23.1271 3.5531C23.1271 3.43595 23.146 3.32637 23.1649 3.31503C23.1876 3.30369 23.2027 3.23567 23.2027 3.16387C23.2027 3.09207 23.2216 3.02405 23.2405 3.01272C23.2632 3.00138 23.2783 2.94848 23.2783 2.89935C23.2783 2.84644 23.3123 2.78976 23.3539 2.76709C23.3955 2.74441 23.4295 2.70663 23.4295 2.68395C23.4295 2.62349 23.6222 2.34385 23.7053 2.28339C23.7393 2.25694 23.7696 2.18514 23.7696 2.12467C23.7696 2.06421 23.796 1.99997 23.8262 1.98486C23.8754 1.95462 23.9736 1.79213 24.1777 1.39535C24.2306 1.29332 24.2948 1.20262 24.3213 1.19129C24.3553 1.17995 24.3742 1.10815 24.3742 0.987225C24.3742 0.820953 24.3666 0.802059 24.2911 0.805837C24.2419 0.805837 24.1777 0.836069 24.1437 0.870079ZM22.088 5.62016C22.088 5.7033 21.9708 5.74487 21.9066 5.68062C21.8801 5.65417 21.8839 5.62394 21.9179 5.58237C21.9821 5.50302 22.088 5.52569 22.088 5.62016Z" fill="#EBEBEB"/>
<path d="M33.8061 12.4789C33.7683 12.5204 33.7041 12.6225 33.6663 12.7056C33.6285 12.7887 33.5794 12.8568 33.5567 12.8568C33.5038 12.8568 33.2166 13.1666 33.2166 13.2233C33.2166 13.3027 32.9558 13.28 32.85 13.1969C32.7518 13.1213 32.612 13.0948 32.612 13.1515C32.612 13.2082 32.3248 13.4992 32.2681 13.4992C32.2378 13.4992 32.1774 13.5256 32.1358 13.5559C32.098 13.5861 32.0413 13.6125 32.0149 13.6125C31.9884 13.6125 31.8977 13.6466 31.8071 13.6843C31.7201 13.7259 31.5501 13.7637 31.4292 13.775C31.3082 13.7864 31.142 13.8317 31.0664 13.8733C30.987 13.9111 30.8396 13.9602 30.7376 13.9753C30.6356 13.9867 30.5071 14.032 30.4504 14.0698C30.3975 14.1114 30.2879 14.1416 30.2086 14.1416C30.1254 14.1416 30.0347 14.168 29.9932 14.2058C29.9289 14.2663 29.8269 14.2739 29.09 14.2739C28.3418 14.2739 28.2549 14.2663 28.2133 14.2058C28.1755 14.1567 28.1075 14.1416 27.9223 14.1416C27.7523 14.1416 27.6314 14.1189 27.5293 14.066C27.3933 13.9942 27.3064 13.9904 26.3125 13.9904C25.3149 13.9904 25.2355 13.9942 25.1108 14.066C25.0352 14.1076 24.9143 14.1416 24.835 14.1416C24.7594 14.1416 24.6649 14.168 24.6234 14.1983C24.5856 14.2285 24.476 14.2625 24.3777 14.2776C24.2832 14.289 24.151 14.3343 24.0867 14.3721C24.0225 14.4137 23.9243 14.4439 23.8751 14.4439C23.8222 14.4439 23.758 14.4666 23.7353 14.4968C23.7126 14.5233 23.6182 14.5686 23.5237 14.5951C23.4292 14.6215 23.3347 14.6669 23.3121 14.6933C23.2894 14.7235 23.2365 14.7462 23.1987 14.7462C23.1647 14.7462 23.108 14.7689 23.0816 14.7991C23.0513 14.8256 22.9606 14.8709 22.8813 14.9012C22.7981 14.9276 22.7037 14.973 22.6697 14.9994C22.6394 15.0259 22.5979 15.0485 22.5827 15.0485C22.5676 15.0485 22.4996 15.0901 22.4316 15.143C22.3636 15.1959 22.2804 15.2375 22.2502 15.2375C22.22 15.2375 22.1633 15.2715 22.1255 15.3131C22.0877 15.3546 22.0159 15.3886 21.9668 15.3886C21.9063 15.3886 21.8647 15.4151 21.8534 15.4604C21.8421 15.502 21.7929 15.5436 21.74 15.5587C21.6909 15.57 21.5171 15.6834 21.3622 15.8043C21.2034 15.929 21.0523 16.031 21.0221 16.031C20.9956 16.031 20.954 16.0688 20.9314 16.118C20.9125 16.1633 20.8407 16.2389 20.7726 16.288C20.7046 16.3334 20.5761 16.4392 20.4854 16.5223C20.391 16.6054 20.3041 16.6735 20.2889 16.6735C20.2738 16.6735 20.236 16.7188 20.2096 16.7755C20.1831 16.8284 20.1265 16.8926 20.0849 16.9153C20.0433 16.938 19.998 16.972 19.9829 16.9947C19.9111 17.0967 19.5256 17.5162 19.4009 17.6257C19.3631 17.6598 19.2611 17.7845 19.1779 17.9054C19.0948 18.0263 18.955 18.1926 18.8681 18.2795C18.7774 18.3664 18.7056 18.4647 18.7056 18.4987C18.7056 18.5365 18.6754 18.5629 18.63 18.5629C18.5771 18.5629 18.5544 18.5894 18.5544 18.6498C18.5544 18.699 18.5129 18.7934 18.46 18.8652C18.4071 18.937 18.3655 19.0126 18.3655 19.0315C18.3655 19.0542 18.2975 19.1751 18.2143 19.2998C18.1312 19.4245 18.0632 19.5643 18.0632 19.6097C18.0632 19.6588 18.0329 19.7268 17.9914 19.7684C17.9536 19.8062 17.912 19.9158 17.8969 20.0102C17.8818 20.1047 17.844 20.203 17.8175 20.2256C17.7873 20.2521 17.7609 20.3125 17.7609 20.3617C17.7609 20.407 17.7457 20.4599 17.7231 20.4713C17.7042 20.4826 17.6853 20.5355 17.6853 20.5846C17.6853 20.6338 17.6702 20.6829 17.6513 20.6942C17.6324 20.7056 17.6059 20.7811 17.5908 20.8567C17.5757 20.9361 17.5417 21.0494 17.5152 21.1137C17.4359 21.2951 17.4019 21.7712 17.4056 22.7197C17.4094 23.5624 17.4359 23.929 17.4926 23.929C17.5039 23.929 17.5379 23.9856 17.5644 24.0499C17.6664 24.2993 17.9498 24.7679 18.0254 24.817C18.0481 24.8283 18.0632 24.8661 18.0632 24.8964C18.0632 24.9266 18.1652 25.0475 18.2899 25.1647C18.4146 25.278 18.5166 25.3952 18.5166 25.4254C18.5166 25.4519 18.5582 25.4859 18.6111 25.501C18.664 25.5123 18.7056 25.5463 18.7056 25.5766C18.7056 25.6068 18.7963 25.6899 18.9059 25.7617C19.2082 25.9658 19.2875 26.0225 19.3291 26.0716C19.3518 26.0943 19.4349 26.1207 19.518 26.1321C19.6012 26.1396 19.7561 26.1812 19.8582 26.2265C20.134 26.3399 20.595 26.4268 21.0863 26.4608C21.3244 26.4759 21.6153 26.5175 21.7287 26.5515C21.8912 26.5969 22.1293 26.612 22.8057 26.612C23.4254 26.612 23.7655 26.6309 23.9961 26.6724C24.1737 26.7065 24.5402 26.7442 24.8085 26.7631C25.0806 26.7783 25.3942 26.8198 25.5076 26.8538C25.621 26.8878 25.7835 26.9143 25.8666 26.9143C25.9497 26.9143 26.1047 26.9559 26.2067 27.0088C26.3125 27.0579 26.4108 27.1032 26.4259 27.1032C26.4599 27.1032 26.7244 27.2922 26.7584 27.3413C26.7735 27.3602 26.8227 27.3942 26.8718 27.4207C26.9209 27.4433 26.9814 27.5038 27.0041 27.5492C27.0267 27.5983 27.1061 27.7003 27.1741 27.7759C27.2421 27.8515 27.3366 27.9837 27.382 28.0706C27.4613 28.2256 27.4613 28.2256 27.3895 28.3276C27.3479 28.3805 27.2837 28.4259 27.2421 28.4259C27.2043 28.4259 27.1703 28.441 27.1703 28.4636C27.1703 28.4825 27.1514 28.5014 27.125 28.5014C27.0532 28.5014 26.9058 28.6904 26.9058 28.7811C26.9058 28.8264 26.8378 28.9322 26.7584 29.0229C26.6791 29.1098 26.5997 29.2081 26.5884 29.2383C26.577 29.2686 26.5468 29.295 26.5241 29.295C26.5015 29.295 26.3201 29.4386 26.1274 29.6162C25.9309 29.7938 25.7457 29.9374 25.7155 29.9374C25.6852 29.9374 25.6588 29.9601 25.6588 29.9828C25.6588 30.0357 25.4207 30.2397 25.364 30.2397C25.3451 30.2397 25.2998 30.2737 25.262 30.3153C25.2242 30.3569 25.1637 30.3909 25.1259 30.3909C25.0882 30.3909 25.039 30.4249 25.0164 30.4665C24.9937 30.508 24.937 30.542 24.8879 30.542C24.8387 30.542 24.7556 30.5836 24.6989 30.6365C24.6422 30.6894 24.5704 30.731 24.5402 30.731C24.5138 30.731 24.4571 30.7612 24.4193 30.7952C24.3248 30.8859 24.2303 30.9464 24.0867 31.0144C24.0225 31.0409 23.9507 31.0938 23.9205 31.124C23.894 31.158 23.8411 31.1845 23.7995 31.1845C23.7618 31.1845 23.6937 31.2185 23.6484 31.26C23.603 31.3016 23.5388 31.3356 23.5048 31.3356C23.4708 31.3356 23.4103 31.3696 23.3725 31.4112C23.3347 31.4528 23.2705 31.4868 23.2327 31.4868C23.1949 31.4868 23.1534 31.5132 23.142 31.5435C23.1307 31.5737 23.0589 31.6153 22.9871 31.6417C22.9153 31.6644 22.8208 31.7173 22.783 31.7551C22.7415 31.7966 22.6621 31.8269 22.5979 31.8269C22.5109 31.8269 22.4845 31.842 22.4845 31.9025C22.4845 31.9591 22.458 31.978 22.3787 31.978C22.3182 31.978 22.2389 32.012 22.2011 32.0536C22.1633 32.0952 22.0839 32.1292 22.0272 32.1292C21.9592 32.1292 21.8988 32.1594 21.8723 32.2048C21.8383 32.2577 21.7816 32.2803 21.6834 32.2803C21.5738 32.2803 21.5284 32.303 21.468 32.3899C21.4226 32.4504 21.3886 32.5146 21.3886 32.5298C21.3886 32.5449 21.3433 32.6091 21.2866 32.6658C21.1997 32.7603 21.1581 32.7716 20.9578 32.7716C20.7878 32.7716 20.7008 32.7943 20.6328 32.8472C20.5799 32.8887 20.5006 32.9228 20.459 32.9228C20.4136 32.9228 20.3343 32.9568 20.2814 32.9983C20.2285 33.0399 20.1416 33.0739 20.0849 33.0739C20.0282 33.0739 19.9413 33.1079 19.8884 33.1495C19.8355 33.1911 19.7372 33.2251 19.673 33.2251C19.6087 33.2251 19.5143 33.2515 19.4614 33.2818C19.3593 33.3384 19.2951 33.3724 18.9777 33.5198C18.8643 33.5727 18.7472 33.6559 18.7131 33.7088C18.6791 33.7617 18.5998 33.8259 18.5355 33.8561C18.4751 33.8864 18.3806 33.9355 18.3277 33.962C18.2748 33.9922 18.203 34.0186 18.169 34.0186C18.135 34.0186 18.0972 34.0527 18.0821 34.0904C18.0707 34.132 18.0103 34.1736 17.9536 34.1887C17.8969 34.2 17.8138 34.2605 17.7684 34.3172C17.7268 34.3776 17.6399 34.4343 17.5795 34.4457C17.519 34.457 17.4434 34.491 17.417 34.5175C17.3603 34.5741 17.0655 34.7744 16.9522 34.8349C16.869 34.8765 16.835 34.9294 16.7783 35.0843C16.7557 35.1561 16.6801 35.2166 16.5365 35.2846C16.4118 35.3413 16.1964 35.5075 16.0037 35.6927C15.8223 35.8627 15.656 36.0101 15.6296 36.0177C15.6069 36.0252 15.52 36.0781 15.4368 36.131C15.229 36.2671 15.1496 36.3162 15.04 36.3691C14.9871 36.3956 14.9267 36.4447 14.9002 36.4787C14.8738 36.5127 14.8058 36.5505 14.7491 36.5618C14.6244 36.5883 14.4241 36.7659 14.4468 36.8264C14.4543 36.8528 14.4921 36.8793 14.5337 36.8868C14.6357 36.9057 14.6999 36.9662 14.6999 37.038C14.6999 37.072 14.5866 37.2156 14.4543 37.3554C14.2125 37.6124 13.9328 37.7975 13.793 37.7975C13.7099 37.7975 13.6456 37.8958 13.6683 37.9865C13.6796 38.0243 13.6683 38.0658 13.6494 38.0772C13.5738 38.1225 13.4945 38.0545 13.4831 37.9374C13.4718 37.8316 13.4605 37.8164 13.366 37.824C13.2488 37.8316 13.0523 37.9714 13.0259 38.0696C13.0108 38.1188 12.9692 38.1376 12.8747 38.1376C12.8029 38.1376 12.7236 38.1641 12.6971 38.1943C12.6707 38.2246 12.6215 38.251 12.5875 38.251C12.5535 38.251 12.4855 38.2737 12.4326 38.3001C12.3797 38.3304 12.2777 38.3644 12.2059 38.3795C12.1341 38.3908 12.0056 38.4362 11.9224 38.474C11.8129 38.5269 11.6428 38.5533 11.314 38.5684L10.8568 38.5911L10.7548 38.4777C10.6565 38.3644 10.5507 38.3342 10.4865 38.3984C10.4638 38.4173 10.3315 38.44 10.1879 38.4475C10.0028 38.4589 9.91585 38.4815 9.88184 38.5269C9.84783 38.576 9.77603 38.5911 9.56819 38.5911C9.30745 38.5911 9.29611 38.5949 9.23942 38.7045C9.20919 38.7649 9.18274 38.8481 9.18274 38.8859C9.18274 38.969 9.06937 39.0824 8.98246 39.0824C8.88421 39.0824 8.76706 39.2864 8.76706 39.4565C8.76706 39.6228 8.72549 39.721 8.58567 39.8759C8.53655 39.9288 8.47231 40.0158 8.44208 40.0724C8.41184 40.1329 8.37405 40.1783 8.35516 40.1783C8.30981 40.1783 8.27958 40.3105 8.31359 40.3672C8.33627 40.4012 8.40051 40.4088 8.54411 40.3899C8.65747 40.3785 8.85398 40.3559 8.98624 40.3445C9.11472 40.3294 9.23187 40.303 9.2432 40.2878C9.26966 40.2425 9.40192 40.2463 9.54174 40.2954C9.63999 40.3332 9.67778 40.3294 9.76091 40.2727C9.81382 40.2387 9.8705 40.1783 9.88184 40.1367C9.91207 40.0422 10.1501 39.9288 10.2144 39.9818C10.2371 40.0044 10.3202 40.0309 10.3958 40.046C10.562 40.0762 10.6074 40.0271 10.5431 39.8797C10.5054 39.7853 10.5129 39.7626 10.6112 39.6568C10.6754 39.5887 10.7472 39.5358 10.7774 39.5358C10.8077 39.5358 10.8455 39.5207 10.8644 39.5018C10.887 39.4829 10.9664 39.4489 11.0457 39.4225C11.1289 39.396 11.2951 39.3204 11.4199 39.2486C11.5446 39.1768 11.6579 39.1202 11.6768 39.1202C11.6919 39.1202 11.7259 39.0937 11.7524 39.0635C11.7788 39.0332 11.9224 38.969 12.0698 38.9274C12.2172 38.8821 12.3646 38.8254 12.3948 38.799C12.425 38.7725 12.5384 38.7423 12.6442 38.7347C12.75 38.7234 12.8898 38.6894 12.9616 38.6554C13.041 38.6138 13.177 38.5911 13.332 38.5911C13.5134 38.5911 13.6003 38.5722 13.6532 38.5269C13.7061 38.474 13.7817 38.4626 13.9744 38.4664C14.1482 38.4702 14.254 38.4551 14.3145 38.4173C14.4241 38.3455 14.5639 38.3606 14.579 38.4437C14.5941 38.5307 14.1973 38.8292 13.9631 38.9085C13.8572 38.9463 13.7363 38.9992 13.691 39.0257C13.6419 39.0597 13.4794 39.0824 13.2602 39.0899L12.9087 39.1013L12.8747 39.2411C12.8521 39.3431 12.8218 39.3847 12.7689 39.3847C12.7274 39.3847 12.6744 39.4338 12.6404 39.4981C12.6064 39.5623 12.5384 39.6303 12.4893 39.6492C12.4288 39.6719 12.3948 39.7135 12.3948 39.7626C12.3948 39.8041 12.3646 39.8533 12.3306 39.8646C12.2928 39.8797 12.2399 39.9213 12.2134 39.9591C12.1832 39.9969 12.1152 40.0271 12.0509 40.0271C11.9905 40.0271 11.9413 40.046 11.9413 40.0649C11.9413 40.0876 11.9111 40.1178 11.8771 40.1291C11.8393 40.1442 11.7713 40.1934 11.7259 40.2425C11.6806 40.2916 11.6088 40.3294 11.571 40.3294C11.5294 40.3294 11.4765 40.3559 11.4501 40.3861C11.4236 40.4163 11.3367 40.4617 11.2574 40.4806C11.1742 40.5032 11.11 40.541 11.11 40.5675C11.11 40.5939 11.042 40.6431 10.9626 40.6809C10.8832 40.7186 10.7737 40.7867 10.7208 40.8358C10.6641 40.8887 10.5885 40.9378 10.5431 40.9529C10.4713 40.9756 10.3995 41.1419 10.4411 41.1834C10.4713 41.2175 10.7359 41.123 10.853 41.0436C10.9059 41.0021 10.9777 40.9718 11.008 40.9718C11.042 40.9718 11.0911 40.9416 11.1175 40.9C11.144 40.8622 11.2234 40.8169 11.2914 40.8018C11.3594 40.7867 11.4274 40.7526 11.435 40.7262C11.4463 40.6997 11.5105 40.6657 11.5786 40.6544C11.6428 40.6431 11.7259 40.5977 11.7637 40.5561C11.7977 40.5146 11.862 40.4806 11.8998 40.4806C11.9413 40.4806 11.9829 40.4655 11.9942 40.4466C12.0056 40.4277 12.0774 40.4012 12.1492 40.3899C12.221 40.3748 12.3268 40.3219 12.3797 40.2727C12.4364 40.2198 12.512 40.1783 12.5497 40.1783C12.5875 40.1783 12.6745 40.1442 12.7425 40.1027C12.8105 40.0611 12.9012 40.0271 12.9428 40.0271C12.9843 40.0271 13.0523 40.0006 13.0901 39.9704C13.1317 39.9402 13.2224 39.9137 13.2904 39.9137C13.4567 39.9137 13.5323 40.0498 13.4416 40.1896C13.3887 40.2727 13.0939 40.439 12.9012 40.4957C12.8558 40.5108 12.7916 40.5524 12.7538 40.5939C12.7085 40.6431 12.6367 40.6695 12.546 40.6695C12.4364 40.6695 12.3986 40.6884 12.3835 40.7451C12.3721 40.7942 12.3306 40.8207 12.2739 40.8207C12.2285 40.8207 12.1454 40.8547 12.0925 40.8962C12.0396 40.9378 11.9527 40.9718 11.896 40.9718C11.8318 40.9718 11.7788 41.0021 11.7524 41.0474C11.7222 41.1003 11.673 41.123 11.5823 41.123C11.4917 41.123 11.4425 41.1457 11.4123 41.1986C11.3858 41.2477 11.3329 41.2741 11.2649 41.2741C11.2082 41.2741 11.1175 41.3082 11.0684 41.3535C10.9853 41.4253 10.9437 41.4329 10.6452 41.414C10.3807 41.3988 10.2937 41.3799 10.2295 41.3195C10.1388 41.2363 9.93096 41.2439 9.82516 41.3308C9.79492 41.3573 9.7269 41.3913 9.674 41.4064C9.52284 41.4517 9.03158 41.7314 9.03158 41.773C9.03158 41.8145 8.81997 41.9166 8.72927 41.9166C8.68771 41.9166 8.61968 41.9506 8.57812 41.9921C8.53655 42.0337 8.47987 42.0677 8.44963 42.0677C8.3476 42.0677 7.97349 42.2642 7.93192 42.336C7.87524 42.4456 7.90925 42.4683 8.13976 42.4569C8.25691 42.4532 8.35138 42.4645 8.35138 42.4834C8.35138 42.5061 8.30981 42.5212 8.25691 42.5212C8.204 42.5212 8.16244 42.5363 8.16244 42.5514C8.16244 42.5854 7.76187 42.8613 7.71275 42.8613C7.69385 42.8613 7.65606 42.8877 7.62961 42.9255C7.59938 42.9595 7.52002 43.0087 7.45578 43.0389C7.38776 43.0653 7.33108 43.1107 7.33108 43.1371C7.32352 43.2996 6.88895 43.5982 6.54884 43.67C6.4846 43.6851 6.40902 43.7229 6.38257 43.7531C6.3599 43.7833 6.27298 43.806 6.19363 43.806C6.09538 43.806 6.0198 43.8325 5.97067 43.8816C5.86864 43.9836 5.4643 43.9912 5.42273 43.8929C5.3925 43.8098 5.57011 43.6549 5.69103 43.6549C5.7326 43.6549 5.80062 43.6208 5.83463 43.583C5.87242 43.5415 5.93666 43.4999 5.98201 43.4886C6.02735 43.4772 6.08404 43.4243 6.11049 43.3677C6.15584 43.2694 6.15584 43.2694 6.03491 43.2921C5.96689 43.3072 5.84975 43.3299 5.77039 43.3412C5.69103 43.3525 5.61545 43.3828 5.60412 43.4092C5.59656 43.4395 5.5172 43.4735 5.43029 43.4848C5.34337 43.4999 5.24134 43.5453 5.20355 43.583C5.16576 43.6246 5.09774 43.6549 5.0524 43.6549C5.00705 43.6549 4.92769 43.6889 4.87479 43.7304C4.82188 43.772 4.72741 43.806 4.66317 43.806C4.59893 43.806 4.52335 43.8287 4.50068 43.8589C4.478 43.8891 4.40243 43.9345 4.3344 43.9609C4.26638 43.9874 4.19836 44.029 4.17569 44.0554C4.1568 44.0781 4.06988 44.1159 3.98675 44.1385C3.90361 44.1612 3.76757 44.2028 3.68443 44.2368C3.6013 44.267 3.4388 44.2935 3.32544 44.2973C3.20829 44.2973 3.09492 44.3162 3.07225 44.3388C3.04202 44.3691 3.02312 44.3691 3.00801 44.3388C2.99289 44.3162 2.94377 44.2973 2.89842 44.2973C2.8304 44.2973 2.80017 44.3351 2.74726 44.4824C2.64901 44.7658 2.65657 44.8036 2.82284 44.7772C2.89842 44.7621 2.974 44.7318 2.98911 44.7092C3.02312 44.6487 3.36701 44.6222 3.4388 44.6752C3.48793 44.7092 3.48415 44.7243 3.41235 44.781C3.37078 44.815 3.32544 44.8792 3.31788 44.9208C3.31032 44.9737 3.24986 45.0153 3.12138 45.0568C3.01935 45.0908 2.92109 45.1475 2.9022 45.1815C2.88331 45.2155 2.83418 45.242 2.79639 45.242C2.75482 45.242 2.72081 45.2609 2.72081 45.2798C2.72081 45.3025 2.67547 45.3402 2.615 45.3629C2.55832 45.3894 2.48652 45.4272 2.45629 45.4536C2.42606 45.4801 2.32781 45.5178 2.24467 45.5405C2.15776 45.5632 2.06706 45.6085 2.04061 45.6388C2.01416 45.669 1.94614 45.6955 1.88945 45.6955C1.83277 45.6955 1.75719 45.7295 1.7194 45.771C1.68161 45.8126 1.61737 45.8466 1.5758 45.8466C1.53801 45.8466 1.42843 45.9222 1.33395 46.0167C1.19791 46.1565 1.14501 46.1867 1.02786 46.1867C0.948505 46.1867 0.820023 46.2207 0.736887 46.2623C0.653751 46.3039 0.566836 46.3379 0.540384 46.3379C0.513931 46.3379 0.491258 46.353 0.491258 46.3719C0.491258 46.3908 0.434574 46.4248 0.370333 46.4512C0.162493 46.5344 0 46.712 0 46.8556V46.9803H0.204061C0.328765 46.9803 0.423237 46.9614 0.44969 46.9274C0.472363 46.9009 0.540384 46.8669 0.600846 46.8556C0.661309 46.8442 0.733108 46.8102 0.75956 46.78C0.808686 46.7309 0.869148 46.712 1.12611 46.6553C1.1828 46.644 1.29616 46.5986 1.38308 46.5608C1.46622 46.523 1.5758 46.489 1.62871 46.489C1.68161 46.489 1.81765 46.455 1.93858 46.4135C2.24089 46.3076 2.28246 46.3114 2.25601 46.4512C2.23333 46.557 2.24089 46.5646 2.33914 46.5646C2.58477 46.5646 2.92109 46.3719 2.96266 46.2056C2.97778 46.1489 3.05336 46.0809 3.1705 46.0129C3.27253 45.96 3.40857 45.8504 3.46904 45.7748C3.59374 45.6199 4.0661 45.2911 4.25505 45.2231C4.31929 45.2004 4.39865 45.1626 4.4251 45.14C4.45533 45.1173 4.53091 45.0871 4.59137 45.0757C4.65561 45.0606 4.73875 45.0077 4.78032 44.9548C4.87101 44.8301 5.06751 44.7507 5.27535 44.7507C5.36605 44.7507 5.44162 44.7318 5.44162 44.7092C5.44162 44.6903 5.50587 44.6449 5.58522 44.6109C5.6608 44.5807 5.74016 44.5316 5.75527 44.5013C5.77039 44.4711 5.84219 44.4484 5.90643 44.4484C5.98201 44.4484 6.05381 44.4182 6.09538 44.3728C6.12938 44.3313 6.18229 44.2973 6.2163 44.2973C6.29188 44.2973 6.72645 44.0743 6.72645 44.0327C6.72645 44.0176 6.7718 43.9912 6.82848 43.9761C6.88139 43.9647 6.97208 43.9194 7.02121 43.8778C7.07411 43.84 7.13457 43.806 7.16103 43.806C7.18748 43.806 7.22905 43.7833 7.25172 43.7531C7.33108 43.6586 7.57671 43.549 7.76943 43.5226C7.87146 43.5075 7.98861 43.4659 8.03018 43.4319C8.21156 43.2845 8.35138 43.2052 8.47609 43.1825C8.55166 43.1674 8.63102 43.1334 8.65369 43.1031C8.68015 43.0767 8.77462 43.0427 8.86531 43.0275C8.95601 43.0162 9.04292 42.9898 9.05426 42.9709C9.06559 42.952 9.10716 42.9369 9.14873 42.9369C9.18652 42.9369 9.23942 42.9028 9.26588 42.8613C9.29233 42.8197 9.38302 42.7668 9.46616 42.7441C9.54929 42.7215 9.64377 42.6799 9.674 42.6534C9.70423 42.6232 9.80626 42.5854 9.89318 42.5627C9.98387 42.5438 10.0859 42.5023 10.1199 42.4721C10.1539 42.4418 10.2559 42.3965 10.3429 42.3738C10.4298 42.3473 10.5129 42.3171 10.5243 42.2982C10.5318 42.2793 10.6603 42.2529 10.8039 42.2378C11.0231 42.2151 11.0835 42.2226 11.212 42.2907C11.3065 42.336 11.3821 42.4116 11.4123 42.4834C11.4576 42.593 11.4728 42.6005 11.5975 42.5779C11.673 42.5665 11.76 42.525 11.7902 42.4872C11.8695 42.3965 12.0094 42.3133 12.187 42.2567C12.4553 42.1735 13.0372 41.8712 13.0372 41.8183C13.0372 41.7465 13.109 41.7503 13.2753 41.841C13.4378 41.9279 13.6343 41.9392 13.6645 41.8636C13.6759 41.8334 13.7401 41.7956 13.8043 41.7843C13.982 41.7503 14.2125 41.6483 14.3334 41.55C14.3939 41.5009 14.4581 41.4631 14.477 41.4631C14.4997 41.4631 14.5904 41.4291 14.6848 41.3875C14.7793 41.3422 14.8889 41.3195 14.9305 41.3308C15.0476 41.3686 15.1496 41.3157 15.2479 41.1608C15.3159 41.055 15.3801 41.0021 15.486 40.9756C15.5653 40.9529 15.6598 40.9114 15.7014 40.8811C15.7429 40.8471 15.8072 40.8207 15.845 40.8207C15.8827 40.8207 15.9772 40.7867 16.0604 40.7451C16.1435 40.7035 16.2493 40.6695 16.2946 40.6695C16.3438 40.6695 16.4193 40.6468 16.4609 40.6166C16.5025 40.5864 16.6801 40.5108 16.8539 40.4428C17.0315 40.3785 17.2356 40.2916 17.3112 40.2501C17.3867 40.2123 17.4699 40.1783 17.4963 40.1783C17.519 40.1783 17.5833 40.1442 17.6362 40.1027C17.6891 40.0611 17.7609 40.0271 17.7949 40.0271C17.8289 40.0271 17.9158 39.9893 17.9876 39.944C18.2899 39.7512 18.6413 39.6983 18.6791 39.8382C18.7018 39.9288 18.6149 40.0271 18.5091 40.0271C18.4675 40.0271 18.3844 40.0687 18.3201 40.1216C18.2597 40.1745 18.1879 40.216 18.1576 40.216C18.1312 40.216 18.101 40.2425 18.0858 40.2727C18.0745 40.303 18.0329 40.3294 17.9951 40.3294C17.9536 40.3294 17.8818 40.3596 17.8327 40.3974C17.7835 40.4352 17.6891 40.4881 17.621 40.5146C17.553 40.541 17.4774 40.5864 17.4548 40.6166C17.4321 40.6468 17.3716 40.6695 17.3263 40.6695C17.2809 40.6695 17.2205 40.696 17.194 40.7262C17.1676 40.7602 17.0731 40.8207 16.9862 40.8585C16.8955 40.9 16.8161 40.9529 16.8048 40.9832C16.7935 41.0096 16.7179 41.055 16.631 41.0852C16.5478 41.1116 16.4458 41.1646 16.4042 41.2061C16.3627 41.2439 16.2984 41.2741 16.2644 41.2741C16.2304 41.2741 16.1964 41.3082 16.1851 41.3459C16.1737 41.3875 16.1208 41.4253 16.049 41.4404C15.9848 41.4517 15.9016 41.4895 15.8676 41.5235C15.7883 41.5953 15.5766 41.7201 15.486 41.7503C15.4066 41.7805 15.3575 41.909 15.4104 41.9619C15.4331 41.9846 15.4784 41.9883 15.52 41.9732C15.6484 41.9128 16.0792 41.8485 16.117 41.8825C16.1662 41.9317 16.3513 41.9241 16.4496 41.8712C16.4949 41.8485 16.6876 41.8259 16.8728 41.8221C17.0618 41.8183 17.2658 41.7994 17.3263 41.7767C17.6021 41.6747 17.8251 41.6142 17.9234 41.6142C17.98 41.6142 18.1274 41.5727 18.2521 41.5198C18.3768 41.4669 18.5204 41.4253 18.5695 41.4253C18.6224 41.4253 18.6791 41.3988 18.6942 41.3686C18.7131 41.3384 18.8076 41.3006 18.9134 41.2893C19.0192 41.2741 19.1326 41.2364 19.1704 41.2061C19.2497 41.1343 19.3593 41.0701 19.5596 40.9756C19.6465 40.934 19.7297 40.8849 19.741 40.8622C19.7561 40.8396 19.8015 40.8207 19.8393 40.8207C19.8808 40.8207 19.93 40.7867 19.9526 40.7451C19.9753 40.7035 20.032 40.6695 20.0773 40.6695C20.1227 40.6695 20.2134 40.6355 20.2738 40.5939C20.3381 40.5486 20.4401 40.4881 20.5006 40.4579C20.6971 40.3634 20.7915 40.2992 20.8218 40.2501C20.8482 40.2085 20.9503 40.1631 21.2639 40.0536C21.3319 40.0271 21.4075 39.9666 21.434 39.9137C21.4944 39.7928 21.536 39.7626 21.6418 39.7626C21.7325 39.7626 22.1066 39.5434 22.1066 39.4943C22.1066 39.4754 22.1293 39.4603 22.1557 39.4603C22.1822 39.4603 22.2426 39.4263 22.288 39.3847C22.3333 39.3431 22.3938 39.3091 22.4202 39.3091C22.4505 39.3091 22.5034 39.2675 22.5374 39.2146C22.5714 39.1617 22.6243 39.1202 22.6508 39.1202C22.6772 39.1202 22.7415 39.0899 22.7906 39.0521C22.8397 39.0106 22.9304 38.969 22.9909 38.9539C23.0475 38.9388 23.1042 38.8972 23.1156 38.8556C23.1269 38.8179 23.1798 38.7763 23.2327 38.7612C23.2856 38.7498 23.3536 38.7045 23.3839 38.6629C23.4103 38.6251 23.4594 38.5911 23.4897 38.5911C23.5842 38.5911 24.0301 38.3341 24.1585 38.2057C24.1963 38.1679 24.2606 38.1376 24.3021 38.1376C24.3437 38.1376 24.3853 38.1112 24.4004 38.0772C24.4495 37.9487 24.7329 37.722 24.8765 37.6993C24.9823 37.6804 25.0315 37.6502 25.0579 37.5821C25.1184 37.4197 25.107 37.4083 24.8652 37.431C24.7405 37.4423 24.6309 37.4348 24.6196 37.4197C24.5931 37.3743 24.8576 37.1551 24.937 37.1551C24.9748 37.1551 25.0164 37.1287 25.0315 37.0984C25.0466 37.0569 25.1071 37.0418 25.2431 37.0418C25.4094 37.0418 25.4547 37.0229 25.5492 36.9322C25.6096 36.8717 25.6588 36.7999 25.6588 36.7772C25.6588 36.7168 26.0027 36.3616 26.0631 36.3616C26.0896 36.3616 26.1236 36.3351 26.1349 36.3049C26.15 36.2746 26.184 36.2482 26.2143 36.2482C26.2445 36.2482 26.2785 36.218 26.2898 36.1802C26.3087 36.1159 26.5997 35.9081 26.6753 35.9081C26.7924 35.9081 27.0948 35.6511 27.0948 35.5529C27.0948 35.4697 27.3102 35.311 27.4538 35.2808C27.5293 35.2695 27.5973 35.243 27.6087 35.2241C27.62 35.2052 27.6767 35.1901 27.7334 35.1901C27.809 35.1901 27.8468 35.1674 27.8619 35.1145C27.8808 35.0352 28.0546 35.0049 28.0962 35.0767C28.134 35.1372 28.2662 35.1183 28.3682 35.0389C28.4212 34.9974 28.4854 34.9634 28.5118 34.9634C28.5799 34.9634 28.8708 34.8047 28.8708 34.7706C28.8708 34.7555 28.92 34.7328 28.9804 34.7177C29.0409 34.7064 29.1202 34.6611 29.158 34.6195C29.192 34.5817 29.245 34.5477 29.2752 34.5477C29.3054 34.5477 29.3659 34.5099 29.415 34.4608C29.4641 34.4116 29.6682 34.2907 29.8685 34.1887C30.0688 34.0867 30.2312 33.9884 30.2312 33.9733C30.2312 33.9582 30.2539 33.9431 30.2842 33.9431C30.3144 33.9431 30.3748 33.9015 30.424 33.8486C30.4731 33.7995 30.5525 33.7541 30.6016 33.7541C30.6507 33.7541 30.6998 33.7201 30.7263 33.6672C30.7452 33.6219 30.8321 33.5463 30.9152 33.4972C30.9984 33.448 31.0777 33.3838 31.0891 33.3536C31.1004 33.3233 31.1306 33.3006 31.1533 33.3006C31.2175 33.3006 31.3158 33.1986 31.5161 32.9228C31.6105 32.7943 31.7504 32.6242 31.8297 32.5411C31.9053 32.4542 31.9695 32.3748 31.9695 32.3597C31.9695 32.303 32.1094 32.2048 32.1849 32.2048C32.2265 32.2048 32.2983 32.167 32.3437 32.1178C32.4457 32.0158 32.612 31.7626 32.612 31.7059C32.612 31.6871 32.6535 31.619 32.7064 31.5548C32.7593 31.4943 32.8009 31.4112 32.8009 31.3734C32.8009 31.3356 32.8878 31.2336 33.0012 31.1467C33.107 31.0635 33.2241 30.9691 33.2619 30.9388C33.2959 30.9124 33.3526 30.8821 33.3942 30.8746C33.5 30.8557 33.5038 30.6819 33.4017 30.6365C33.2884 30.5874 33.2657 30.5043 33.3564 30.4816C33.4358 30.4589 33.5113 30.3115 33.5453 30.115C33.5567 30.0281 33.5907 29.9752 33.636 29.9639C33.7041 29.945 33.7078 29.8996 33.7078 29.3252C33.7041 28.8642 33.6927 28.6866 33.6512 28.6148C33.6209 28.5619 33.5983 28.4183 33.5945 28.286C33.5945 28.0593 33.5907 28.048 33.4924 28.0253C33.3375 27.9875 33.2619 27.9081 33.2355 27.7457C33.2204 27.655 33.1486 27.5265 33.0428 27.4018C32.9521 27.2884 32.8198 27.1297 32.7518 27.0466C32.6838 26.9634 32.6157 26.8652 32.6006 26.8274C32.5893 26.7934 32.5553 26.7631 32.5326 26.7631C32.5099 26.7631 32.4532 26.7254 32.4079 26.6762C32.3626 26.6309 32.2643 26.5477 32.1925 26.4911C32.1245 26.4382 32.0036 26.3361 31.9318 26.2719C31.86 26.2076 31.7541 26.1434 31.6975 26.1321C31.637 26.1207 31.5917 26.0943 31.5917 26.0754C31.5917 26.0565 31.5312 26.0149 31.4594 25.9847C31.3876 25.9545 31.3271 25.9167 31.3271 25.8978C31.3271 25.8789 31.2516 25.8449 31.1609 25.8222C31.0702 25.7995 30.9757 25.758 30.9492 25.7239C30.9228 25.6937 30.8585 25.6673 30.8019 25.6673C30.7452 25.6673 30.6356 25.6332 30.5525 25.5917C30.4693 25.5501 30.3484 25.5161 30.2766 25.5161C30.2048 25.5161 30.1028 25.4821 30.0461 25.4443C29.9932 25.4065 29.8458 25.3612 29.7211 25.3461C29.5964 25.3309 29.3961 25.2894 29.2752 25.2478C29.1165 25.1949 28.954 25.176 28.6403 25.176C28.2813 25.176 28.2095 25.1647 28.168 25.108C28.1264 25.0513 28.0206 25.04 27.2761 25.0211C26.4637 24.9984 26.3012 24.9795 26.3012 24.9077C26.3012 24.8888 25.9951 24.8737 25.621 24.8737C24.9748 24.8737 24.4117 24.817 24.4117 24.7528C24.4117 24.7376 24.2757 24.7225 24.1094 24.7225C23.8751 24.7225 23.7807 24.7074 23.6862 24.647C23.6182 24.6054 23.5124 24.5714 23.4481 24.5714C23.3876 24.5714 23.2818 24.5374 23.2176 24.4996C23.1534 24.4618 23.0249 24.4164 22.9342 24.4013C22.8435 24.3862 22.7377 24.3409 22.6999 24.3031C22.6621 24.2615 22.6016 24.2313 22.5638 24.2313C22.3749 24.2313 21.929 23.7173 21.6871 23.2185L21.5284 22.8898L21.5549 22.3229C21.5738 21.9148 21.5964 21.741 21.638 21.6956C21.6682 21.6654 21.6909 21.6087 21.6909 21.5747C21.6909 21.5407 21.7249 21.4538 21.7665 21.3782C21.8081 21.3026 21.8421 21.2195 21.8421 21.1893C21.8421 21.159 21.8836 21.0721 21.9365 20.9965C21.9895 20.921 22.031 20.8378 22.031 20.8114C22.031 20.7887 22.065 20.7358 22.1066 20.698C22.1482 20.6602 22.1822 20.5997 22.1822 20.562C22.1822 20.5279 22.2502 20.4373 22.3333 20.3655C22.4165 20.2937 22.4845 20.2219 22.4845 20.203C22.4845 20.1349 22.8473 19.81 22.9228 19.81C22.9644 19.81 23.0627 19.7419 23.142 19.6588C23.2214 19.5757 23.3158 19.5076 23.3499 19.5076C23.3876 19.5076 23.4632 19.4736 23.5161 19.4321C23.569 19.3905 23.6295 19.3565 23.6522 19.3565C23.6748 19.3565 23.7466 19.3225 23.8147 19.2809C23.8827 19.2393 23.962 19.2053 23.9885 19.2053C24.0149 19.2053 24.1283 19.1638 24.2379 19.1146C24.3891 19.0428 24.4457 18.9975 24.4571 18.9257C24.4684 18.869 24.4571 18.8085 24.4268 18.7859C24.3362 18.7103 24.4382 18.5629 24.5856 18.5629C24.6271 18.5629 24.68 18.544 24.7065 18.5176C24.8274 18.3966 25.9497 18.2341 25.9157 18.3437C25.9044 18.3702 25.8591 18.3966 25.8137 18.4042C25.7532 18.4155 25.7344 18.4382 25.7419 18.4987C25.7532 18.578 25.7684 18.5818 26.1009 18.5705C26.3957 18.5591 26.4675 18.5667 26.5733 18.6309C26.6413 18.6725 26.7584 18.7141 26.834 18.7254C26.9096 18.7367 27.0645 18.7896 27.1779 18.8426C27.2913 18.8955 27.4008 18.9408 27.4235 18.9408C27.4424 18.9408 27.5067 18.9899 27.5633 19.0504C27.6238 19.1109 27.7145 19.1713 27.7674 19.1864C27.8543 19.2091 27.9866 19.296 28.1642 19.451C28.1982 19.4812 28.2398 19.5076 28.2511 19.5076C28.2624 19.5076 28.3531 19.5719 28.4514 19.655C28.5459 19.7344 28.663 19.81 28.7121 19.8251C28.7575 19.8402 28.7953 19.878 28.7953 19.9044C28.7953 19.9347 28.8444 19.9838 28.9011 20.014C28.9615 20.0442 29.2034 20.2634 29.4415 20.4939C29.9705 21.0192 30.0688 21.0948 30.1972 21.0948C30.2501 21.0948 30.3182 21.1175 30.3408 21.1477C30.3673 21.1779 30.4429 21.2157 30.5071 21.227C30.6243 21.2497 30.7452 21.2951 30.8812 21.3631C30.9681 21.4084 31.5539 21.4084 31.5539 21.3631C31.5539 21.3215 31.9053 21.1175 32.0451 21.0759C32.098 21.0608 32.219 20.9814 32.3134 20.9021C32.4117 20.8189 32.5099 20.7547 32.5326 20.7547C32.5553 20.7547 32.5742 20.7396 32.5742 20.7244C32.5742 20.7056 32.6195 20.6413 32.6724 20.5809C32.7253 20.5204 32.8349 20.373 32.918 20.2559C32.9974 20.1387 33.0957 20.0178 33.1334 19.9913C33.175 19.9649 33.2241 19.878 33.2506 19.8024C33.277 19.7268 33.3073 19.6588 33.3224 19.6512C33.3375 19.6437 33.432 19.4699 33.534 19.262C33.636 19.0542 33.7494 18.8501 33.7834 18.8085C33.8212 18.767 33.8628 18.6536 33.8741 18.5554C33.8892 18.4609 33.927 18.3589 33.9535 18.3362C33.9837 18.3097 34.0102 18.253 34.0102 18.2077C34.0139 18.1661 34.0404 18.0603 34.0706 17.9772C34.1424 17.792 34.2709 17.3499 34.3125 17.1458C34.4372 16.5336 34.4372 16.5223 34.3691 16.2162C34.3087 15.9592 34.3049 15.8761 34.3465 15.5398C34.4107 14.973 34.4032 14.8105 34.3125 14.7273C34.2369 14.6593 34.2331 14.6291 34.2596 14.1454C34.2709 13.862 34.3162 13.4841 34.354 13.3027C34.4523 12.8568 34.4485 12.8379 34.3049 12.7963C34.2142 12.7699 34.1764 12.7321 34.1689 12.6716C34.1538 12.5696 33.9988 12.4033 33.927 12.4071C33.9006 12.4071 33.8439 12.4411 33.8061 12.4789ZM24.3739 37.5519C24.3739 37.6086 24.117 37.7409 24.0792 37.7031C24.049 37.6766 24.2568 37.4952 24.321 37.4952C24.3475 37.4952 24.3739 37.5217 24.3739 37.5519ZM8.57812 42.3322C8.53655 42.4078 8.49498 42.4267 8.45341 42.3851C8.41184 42.3436 8.47231 42.2567 8.54411 42.2567C8.60835 42.2567 8.61213 42.268 8.57812 42.3322Z" fill="#EBEBEB"/>
</svg>
