<svg width="74" height="99" viewBox="0 0 74 99" fill="none" xmlns="http://www.w3.org/2000/svg">
<path d="M51.6922 0.137508C51.6199 0.209836 51.5395 0.346456 51.5074 0.442894C51.4833 0.531295 51.3306 0.740243 51.1779 0.909009C51.0252 1.07778 50.8966 1.27065 50.8966 1.32691C50.8966 1.3912 50.8243 1.51174 50.7439 1.59211C50.6636 1.67247 50.5671 1.81713 50.535 1.91357C50.5109 2.01001 50.4546 2.08233 50.4144 2.08233C50.3742 2.08233 50.2698 2.21895 50.1814 2.39576C50.093 2.56452 49.9081 2.79758 49.7715 2.91009C49.6429 3.0226 49.5304 3.19136 49.5304 3.27977C49.5304 3.36817 49.4581 3.48068 49.3697 3.5289C49.2813 3.57711 49.209 3.66552 49.209 3.73784C49.209 3.80214 49.0804 3.97894 48.9277 4.13967C48.775 4.29236 48.6464 4.45309 48.6464 4.49327C48.6464 4.54149 48.5419 4.68615 48.4053 4.8308C48.2767 4.96742 48.1642 5.14423 48.1642 5.22459C48.1642 5.31299 48.0919 5.41747 48.0035 5.47372C47.9151 5.52998 47.8428 5.62642 47.8428 5.68267C47.8428 5.78714 47.3766 6.4381 47.2641 6.48632C47.2239 6.50239 47.1998 6.59079 47.1998 6.67919C47.1998 6.76759 47.1355 6.856 47.0391 6.8801C46.9507 6.90421 46.8784 6.96047 46.8784 7.00869C46.8784 7.11316 46.3882 7.85252 46.131 8.12576C46.0185 8.24631 45.906 8.41507 45.8819 8.49544C45.8497 8.58384 45.7613 8.71242 45.6729 8.79279C45.5845 8.87315 45.5122 8.98566 45.5122 9.04192C45.5122 9.09817 45.4398 9.18657 45.3515 9.23479C45.2631 9.28301 45.1907 9.35534 45.1907 9.40356C45.1907 9.59643 44.4996 10.2795 44.2987 10.2795C44.0576 10.2795 43.8084 9.98218 43.8727 9.77324C43.9049 9.6768 43.9772 9.56429 44.0335 9.53214C44.0978 9.5 44.146 9.40356 44.146 9.32319C44.146 9.24283 44.2183 9.0821 44.3067 8.96959C44.5398 8.67224 44.5076 8.59187 44.146 8.59187C43.921 8.59187 43.8245 8.62402 43.8245 8.70438C43.8245 8.76868 43.7522 8.84904 43.6638 8.87315C43.5754 8.89726 43.5031 8.96959 43.5031 9.01781C43.5031 9.14639 43.1414 9.55625 43.0289 9.55625C42.9807 9.55625 42.9003 9.65269 42.8521 9.77324C42.8119 9.89378 42.6271 10.1108 42.4583 10.2554C42.2896 10.4081 42.1208 10.593 42.0967 10.6814C42.0726 10.7617 41.9681 10.8582 41.8717 10.8903C41.6306 10.9626 41.4939 11.1234 41.4939 11.3243C41.4939 11.4287 41.4216 11.5171 41.293 11.5654C41.1805 11.6056 41.0921 11.694 41.0921 11.7663C41.0921 11.8547 41.0037 11.8868 40.7546 11.8868C40.3608 11.8868 40.2724 11.8386 40.1358 11.5814C39.9992 11.3162 39.8063 11.493 39.8063 11.8788C39.8063 12.0395 39.742 12.2404 39.6616 12.3369C39.4929 12.5378 39.1232 12.7708 38.9705 12.7708C38.8419 12.7708 38.7615 12.9396 38.7615 13.2209C38.7615 13.3254 38.6892 13.478 38.6008 13.5504C38.5124 13.6307 38.4401 13.7915 38.4401 13.912C38.4401 14.1611 37.8615 15.455 37.6364 15.7042C37.5561 15.7926 37.4677 16.0176 37.4355 16.2024C37.4034 16.3953 37.3391 16.5721 37.2828 16.6042C37.2266 16.6444 37.1301 16.8534 37.0819 17.0864C37.0257 17.3195 36.9292 17.5445 36.8649 17.6008C36.8006 17.649 36.7524 17.7535 36.7524 17.8258C36.7524 17.8981 36.6801 18.091 36.5917 18.2598C36.5033 18.4205 36.431 18.6294 36.431 18.7259C36.431 18.8223 36.3667 18.9107 36.2702 18.9348C36.1417 18.967 36.1095 19.0473 36.1095 19.3607C36.1095 19.7706 35.9729 20.2448 35.8604 20.2448C35.8202 20.2448 35.788 20.3091 35.788 20.3894C35.788 20.4698 35.7157 20.6707 35.6273 20.8475C35.5389 21.0243 35.4666 21.2413 35.4666 21.3458C35.4666 21.4502 35.3943 21.5708 35.3059 21.627C35.2175 21.6833 35.1451 21.8119 35.1451 21.9163C35.1451 22.2217 34.9764 22.8084 34.8558 22.9048C34.7915 22.9531 34.7433 23.1218 34.7433 23.2825C34.7433 23.4352 34.6388 23.7969 34.5022 24.0782C34.3736 24.3514 34.2611 24.6407 34.2611 24.697C34.2611 24.7613 34.229 24.8336 34.1888 24.8577C34.1486 24.8898 34.0924 25.0506 34.0602 25.2193C34.0281 25.3961 33.9557 25.581 33.8914 25.6372C33.8271 25.6855 33.7789 25.806 33.7789 25.9024C33.7789 25.9989 33.7066 26.2159 33.6182 26.3927C33.5298 26.5695 33.4575 26.7704 33.4575 26.8507C33.4575 26.9231 33.4253 27.0115 33.3771 27.0356C33.3369 27.0597 33.2967 27.2043 33.2967 27.349C33.2967 27.5017 33.2405 27.6624 33.1762 27.7187C33.1119 27.7749 33.0556 27.8955 33.0556 27.9919C33.0556 28.0884 33.0074 28.233 32.9431 28.3214C32.8869 28.4098 32.8065 28.6107 32.7744 28.7634C32.7422 28.9161 32.6378 29.2215 32.5333 29.4465C32.1957 30.1859 32.0913 30.4591 32.0913 30.5877C32.0913 30.66 32.0189 30.8851 31.9225 31.086C31.8341 31.2869 31.6894 31.6003 31.6091 31.7771C31.5287 31.9619 31.4242 32.3075 31.376 32.5566C31.3198 32.8058 31.2233 33.0549 31.159 33.1031C31.1028 33.1594 31.0465 33.288 31.0465 33.3924C31.0465 33.5049 31.0144 33.6496 30.9742 33.73C30.8537 33.9711 30.7411 34.2604 30.6367 34.5899C30.5885 34.7667 30.5161 34.9435 30.484 34.9917C30.4518 35.0319 30.4036 35.1926 30.3715 35.3373C30.3313 35.5864 30.1706 36.0123 29.9938 36.3338C29.9536 36.4141 29.9214 36.5186 29.9214 36.5668C29.9214 36.7677 29.6562 37.5312 29.5517 37.6357C29.4875 37.7 29.4071 38.0134 29.3669 38.3268C29.3267 38.6483 29.2383 38.9617 29.166 39.0421C29.0937 39.1224 29.0374 39.2671 29.0374 39.3796C29.0374 39.4841 28.9651 39.7252 28.8847 39.902C28.7963 40.0868 28.6838 40.4404 28.6276 40.6895C28.5713 40.9387 28.507 41.1396 28.4749 41.1396C28.4427 41.1396 28.3865 41.2601 28.3623 41.4128C28.3302 41.5655 28.2579 41.7102 28.1936 41.7343C28.1293 41.7584 28.073 41.8789 28.073 41.9995C28.073 42.1281 28.0087 42.3209 27.9364 42.4254C27.8561 42.5379 27.7516 42.8433 27.6953 43.1005C27.5828 43.6229 27.3417 43.9524 27.0604 43.9524C26.8113 43.9524 26.7711 43.7997 26.7229 42.763C26.6908 41.9834 26.6667 41.8468 26.5381 41.7745C26.4497 41.7343 26.3854 41.6218 26.3854 41.5334C26.3854 41.445 26.3372 41.2762 26.2729 41.1557C26.2166 41.0351 26.1443 40.7779 26.1121 40.5851C26.08 40.3842 26.0077 40.1109 25.9434 39.9823C25.8871 39.8457 25.7907 39.5162 25.7425 39.251C25.6942 38.9858 25.5978 38.6563 25.5415 38.5277C25.4773 38.3911 25.4049 38.0295 25.3728 37.7241C25.3406 37.4107 25.2844 37.1374 25.2442 37.1133C25.0754 37.0008 24.7058 35.8034 24.6977 35.3453C24.6977 35.1926 24.6575 35.0238 24.6093 34.9756C24.5691 34.9354 24.4727 34.5899 24.4084 34.2202C24.3441 33.8505 24.2477 33.4326 24.1834 33.304C24.1271 33.1674 24.0468 32.8701 24.0227 32.629C23.9584 32.1548 23.653 31.1663 23.5083 30.9895C23.4601 30.9333 23.3958 30.7243 23.3637 30.5314C23.3315 30.3305 23.2351 30.0493 23.1547 29.9046C23.0743 29.7599 23.0101 29.5188 23.0101 29.3742C23.0101 29.2215 22.9377 28.9081 22.8574 28.667C22.777 28.4339 22.6082 27.6946 22.4877 27.0356C22.3752 26.3686 22.2386 25.7578 22.1903 25.6774C22.1502 25.589 22.0698 25.155 22.0135 24.713C21.9653 24.263 21.901 23.8612 21.8689 23.813C21.8367 23.7728 21.7724 23.4835 21.7162 23.17C21.668 22.8646 21.5956 22.5753 21.5635 22.5352C21.4831 22.4226 21.3545 21.844 21.242 21.1288C21.1938 20.7993 21.1134 20.3975 21.0733 20.2367C21.0331 20.076 20.9929 19.5295 20.9849 19.0313L20.9768 18.1312L20.5107 17.657C20.2455 17.3918 20.0366 17.1105 20.0366 17.0221C20.0366 16.9257 19.9321 16.8212 19.7553 16.7328C19.4901 16.6042 19.3133 16.3069 19.3133 15.9854C19.3133 15.8086 19.1525 15.7443 18.7427 15.7443C18.2525 15.7443 18.1078 15.6318 18.1078 15.2621C18.1078 15.0934 18.148 14.9246 18.1882 14.9005C18.2364 14.8764 18.2685 14.7639 18.2685 14.6514C18.2685 14.4826 18.2284 14.4585 17.9873 14.4585C17.6899 14.4585 17.3926 14.5871 17.272 14.7639C17.2077 14.8764 16.7014 14.8362 16.5407 14.6996C16.2996 14.5067 15.4156 14.2978 14.8209 14.2978H14.178L14.1539 14.5951L14.1298 14.9005L13.6717 14.9246C13.302 14.9407 13.2056 14.9809 13.1654 15.1014C13.093 15.3345 12.4421 15.3345 12.3215 15.1014C12.2733 15.013 12.1528 14.9407 12.0563 14.9407C11.9599 14.9407 11.7429 14.8684 11.5742 14.78C11.4054 14.6835 11.1241 14.6192 10.9152 14.6192H10.5535V15.4068C10.5535 16.2346 10.5375 16.2747 10.0231 16.6123C9.82221 16.7409 9.42842 17.6892 9.42842 18.0267C9.42842 18.4928 9.23554 18.8625 8.9623 18.9268C8.48011 19.0313 8.5203 18.8946 8.51226 20.5501C8.50422 21.169 8.47208 21.5547 8.41582 21.5949C8.3676 21.627 8.30331 21.7556 8.27117 21.8842C8.19884 22.1815 7.81309 22.6557 7.65236 22.6557C7.5077 22.6557 7.4193 22.8164 7.4193 23.0575C7.4193 23.1379 7.52377 23.2825 7.66039 23.379C7.81309 23.4835 7.90149 23.6201 7.90149 23.7406C7.90149 23.8451 7.93363 23.9496 7.97382 23.9817C8.02204 24.0058 8.07829 24.1907 8.11044 24.3835C8.13455 24.5845 8.23098 24.8336 8.31135 24.9381C8.47208 25.147 8.5203 25.589 8.38368 25.6694C8.27117 25.7417 8.28724 26.0792 8.40779 26.1757C8.456 26.2159 8.59262 26.2802 8.70514 26.3123C9.03463 26.4087 9.74988 27.1642 9.74988 27.4053C9.74988 27.7026 9.87042 27.7749 10.4973 27.8392C11.1643 27.9035 11.4616 28.1125 11.2447 28.3536C11.1723 28.4339 11.1161 28.5866 11.1161 28.7072C11.1161 28.8759 11.1804 28.9483 11.4777 29.0768C11.7429 29.1894 11.8474 29.2938 11.8876 29.4626C11.9197 29.5831 12.0081 29.776 12.0965 29.8805C12.1769 29.985 12.2412 30.1055 12.2412 30.1537C12.2412 30.202 12.3617 30.4993 12.5144 30.8047C12.6671 31.1181 12.8359 31.536 12.8921 31.7369C12.9484 31.9378 13.0609 32.187 13.1413 32.2914C13.2216 32.3959 13.2859 32.6049 13.2859 32.7495C13.2859 32.8942 13.3181 33.0308 13.3583 33.0629C13.3984 33.087 13.4949 33.296 13.5752 33.529C13.6476 33.7541 13.8324 34.2041 13.9851 34.5175C14.1298 34.839 14.2503 35.1283 14.2503 35.1605C14.2503 35.2006 14.3467 35.4096 14.4512 35.6346C14.5637 35.8516 14.6521 36.1329 14.6521 36.2454C14.6521 36.3659 14.7003 36.5025 14.7646 36.5508C14.8289 36.607 14.9093 36.7517 14.9334 36.8803C14.9897 37.1455 15.2388 37.6518 15.4076 37.8366C15.4718 37.9089 15.5522 38.1259 15.5924 38.3268C15.6728 38.7286 15.8255 38.817 16.163 38.6402C16.3478 38.5358 16.38 38.5518 16.6693 38.8813C16.8461 39.0742 16.9827 39.2992 16.9827 39.3876C16.9827 39.476 17.055 39.6368 17.1434 39.7493C17.2318 39.8618 17.3042 40.0627 17.3042 40.1993C17.3042 40.3359 17.3524 40.5047 17.4086 40.569C17.5774 40.7699 17.923 41.662 18.2525 42.7228C18.3248 42.9558 18.4293 43.1487 18.4855 43.1487C18.5418 43.1487 18.6061 43.3175 18.6382 43.5505C18.6704 43.7675 18.7186 43.9524 18.7588 43.9524C18.7989 43.9524 18.8311 44.0408 18.8311 44.1372C18.8311 44.2417 18.9034 44.3944 18.9838 44.4667C19.0722 44.5471 19.1847 44.7962 19.2329 45.0212C19.2892 45.2543 19.4017 45.5436 19.4901 45.6641C19.5785 45.7927 19.6669 46.0258 19.691 46.1865C19.7312 46.4919 19.8758 46.8776 20.0848 47.2634C20.141 47.3759 20.1973 47.5768 20.1973 47.7054C20.1973 48.0027 20.35 48.5331 20.4303 48.5331C20.4705 48.5331 20.5429 48.8305 20.5911 49.1921C20.6875 49.8592 20.8 50.3012 20.9286 50.5583C20.9688 50.6387 21.0009 50.9923 21.0009 51.3459C21.0009 51.7236 21.0331 51.9888 21.0813 51.9888C21.1295 51.9888 21.1617 52.0772 21.1617 52.1897C21.1617 52.3746 21.1295 52.3907 20.8241 52.3907C20.5589 52.3907 20.5107 52.4148 20.583 52.4871C20.6393 52.5433 20.6795 52.7684 20.6795 52.9854C20.6795 53.2184 20.7518 53.5479 20.8402 53.7488C20.9286 53.9417 21.0009 54.2471 21.0009 54.4319C21.0009 54.6168 21.0331 54.8016 21.0733 54.8498C21.1858 54.9704 21.3224 55.6454 21.3224 56.0874C21.3224 56.3767 21.3545 56.5053 21.4429 56.5375C21.6037 56.6018 21.6117 57.8233 21.451 58.0564C21.2501 58.3457 21.0813 61.1183 21.242 61.5844C21.3545 61.946 22.7127 63.3203 22.9458 63.3203C22.9779 63.3203 23.0101 63.3524 23.0101 63.3926C23.0101 63.5372 24.6495 65.249 24.7942 65.249C24.8906 65.249 25.3165 65.683 25.3647 65.8276C25.3969 65.908 25.4692 65.9723 25.5415 65.9723C25.6058 65.9723 25.6621 66.0285 25.6621 66.0928C25.6621 66.1571 25.7264 66.2777 25.8067 66.358C26.1362 66.6956 26.2246 66.9286 26.2246 67.4912V68.0537L26.53 68.1421C26.6908 68.1904 27.0926 68.2547 27.414 68.2788C27.7355 68.3029 28.0168 68.3591 28.0409 68.3913C28.1132 68.5118 28.6677 68.4716 28.8606 68.335C29.0053 68.2386 29.1419 68.2225 29.4071 68.2627C30.0339 68.3511 30.5081 68.1421 31.3358 67.4108C31.9627 66.8483 32.0591 66.7358 32.1073 66.4304C32.1395 66.2455 32.1636 65.2088 32.1716 64.1239C32.1716 63.039 32.2118 61.8657 32.252 61.512C32.2922 61.1584 32.3645 60.3869 32.4127 59.7922C32.4609 59.1574 32.5413 58.6109 32.6136 58.4743C32.6779 58.3376 32.7342 58.0805 32.7342 57.8956C32.7342 57.5019 32.8869 56.6419 32.9753 56.5294C33.0315 56.4491 33.0878 56.0151 33.1842 54.8016C33.2083 54.4721 33.2807 54.0863 33.345 53.9417C33.4093 53.8051 33.4575 53.58 33.4575 53.4434C33.4575 53.3068 33.5137 53.0416 33.57 52.8568C33.6343 52.6639 33.7307 52.2781 33.7789 51.9888C33.8191 51.6995 33.9156 51.3218 33.9798 51.145C34.0441 50.9682 34.0924 50.6789 34.1004 50.5021C34.1004 50.3253 34.1486 50.0842 34.2129 49.9717C34.2692 49.8592 34.3817 49.4814 34.454 49.1439C34.5344 48.8064 34.6228 48.5331 34.6549 48.5331C34.6951 48.5331 34.7433 48.3724 34.7594 48.1795C34.7835 47.9867 34.8639 47.7134 34.9362 47.5688C35.0085 47.4241 35.0648 47.2071 35.0648 47.0946C35.0648 46.9741 35.1371 46.733 35.2255 46.5642C35.3219 46.3874 35.4425 46.0418 35.5068 45.8007C35.6514 45.2141 35.772 44.8605 35.9568 44.4988C36.0372 44.3381 36.1095 44.089 36.1095 43.9524C36.1095 43.8238 36.1818 43.5586 36.2622 43.3657C36.3506 43.1809 36.431 42.8915 36.4551 42.7308C36.4792 42.5701 36.5515 42.3129 36.6238 42.1683C36.6881 42.0236 36.7846 41.7584 36.8248 41.5816C36.9935 40.9226 37.1864 40.4163 37.2828 40.4163C37.3471 40.4163 37.4034 40.2315 37.4355 39.9502C37.4677 39.7011 37.5641 39.3796 37.6445 39.243C37.7329 39.1064 37.7972 38.9054 37.7972 38.809C37.7972 38.7045 37.8775 38.4554 37.9659 38.2545C38.0624 38.0536 38.1668 37.8125 38.199 37.7241C38.3035 37.4348 38.6169 36.6793 38.6892 36.5427C38.7294 36.4624 38.7615 36.2936 38.7615 36.173C38.7615 36.0445 38.8339 35.8757 38.9223 35.7953C39.0107 35.715 39.083 35.6105 39.083 35.5623C39.083 35.5141 39.1714 35.3131 39.2759 35.1122C39.3723 34.9113 39.4848 34.6381 39.5089 34.4934C39.5572 34.2523 39.9349 33.3844 40.3367 32.5968C40.4412 32.3879 40.5296 32.1709 40.5296 32.1146C40.5296 32.0664 40.6501 31.7771 40.8028 31.4878C40.9475 31.1985 41.0921 30.877 41.1162 30.7645C41.1484 30.652 41.2448 30.4752 41.3332 30.3707C41.4216 30.2662 41.4939 30.0814 41.4939 29.9609C41.4939 29.8082 41.5422 29.7198 41.6547 29.6876C41.7431 29.6635 41.8154 29.5671 41.8154 29.4867C41.8154 29.3099 42.2654 28.3937 42.378 28.3214C42.4262 28.2893 42.4583 28.2089 42.4583 28.1285C42.4583 28.0482 42.5306 27.8955 42.611 27.783C42.6994 27.6785 42.7959 27.4776 42.828 27.349C42.8521 27.2204 42.9164 27.0758 42.9727 27.0356C43.0932 26.9231 43.5031 26.2882 43.5031 26.2078C43.5031 26.1676 43.5754 26.0712 43.6638 25.9908C43.7522 25.9105 43.8245 25.814 43.8245 25.7739C43.8245 25.7256 43.8968 25.6051 43.9852 25.4926C44.0737 25.3801 44.146 25.2274 44.146 25.147C44.146 25.0747 44.2183 24.9461 44.3067 24.8657C44.3951 24.7854 44.4674 24.6729 44.4674 24.6166C44.4674 24.5603 44.5317 24.4478 44.6201 24.3675C44.7005 24.2871 44.7969 24.1344 44.8291 24.0219C44.8612 23.9094 44.9577 23.7326 45.038 23.6281C45.1264 23.5236 45.1907 23.3951 45.1907 23.3388C45.1907 23.2825 45.247 23.1861 45.3193 23.1299C45.3916 23.0736 45.48 22.9531 45.5202 22.8566C45.5604 22.7682 45.7211 22.5352 45.8658 22.3342C46.0185 22.1333 46.1471 21.9244 46.1471 21.8601C46.1551 21.7958 46.2114 21.6913 46.2756 21.619C46.5891 21.2815 46.8784 20.8957 46.8784 20.8234C46.8784 20.7752 46.9829 20.6225 47.1195 20.4778C47.4008 20.1644 47.6017 19.7626 47.6981 19.3206C47.7383 19.1438 47.8106 18.8384 47.8508 18.6375C47.899 18.4366 47.9553 18.1553 47.9794 18.0106C48.0035 17.866 48.0517 17.7293 48.0919 17.7052C48.1321 17.6811 48.1642 17.5927 48.1642 17.5043C48.1642 17.4159 48.2526 17.1748 48.3651 16.9659C48.4776 16.7569 48.566 16.5239 48.566 16.4435C48.566 16.3631 48.6223 16.2828 48.6866 16.2587C48.7509 16.2265 48.8071 16.1703 48.8071 16.1301C48.8071 16.0819 48.9357 15.9051 49.0884 15.7363C49.2411 15.5595 49.3697 15.3505 49.3697 15.2702C49.3697 15.1818 49.4099 15.0853 49.4501 15.0612C49.4983 15.0371 49.5304 14.8684 49.5304 14.6916C49.5304 14.1692 49.6911 14.0004 50.2858 13.9361L50.8002 13.8879L50.8645 13.2691C50.8966 12.9316 50.9288 12.2645 50.9288 11.7904C50.9368 11.0109 50.9207 10.9225 50.7921 10.9225C50.7118 10.9225 50.6314 10.9787 50.6073 11.043C50.5832 11.1073 50.4385 11.1957 50.2939 11.2439C49.9242 11.3645 49.5304 11.7824 49.5304 12.0556C49.5304 12.2163 49.4099 12.3851 49.0482 12.7146C48.6464 13.0923 48.566 13.2128 48.566 13.4379C48.566 13.9602 47.9151 14.2094 47.8588 13.7031C47.8428 13.5745 47.8669 13.4379 47.9151 13.3896C47.9633 13.3414 48.0035 13.2209 48.0035 13.1244C48.0035 13.02 48.0356 12.9235 48.0678 12.8994C48.108 12.8753 48.1883 12.6583 48.2446 12.4092C48.333 12.0476 48.333 11.927 48.2446 11.7663C48.1481 11.5895 48.1723 11.5171 48.4375 10.9867C48.6062 10.6653 48.7911 10.3117 48.8554 10.1992C48.9116 10.0867 48.9679 9.88575 48.9679 9.74109C48.9679 9.45981 49.2331 8.95352 49.4099 8.88119C49.4661 8.86511 49.5304 8.70438 49.5465 8.53562C49.5626 8.29452 49.6108 8.23023 49.7715 8.19005C49.9644 8.14183 49.9724 8.11772 49.9965 7.43462L50.0206 6.73545L49.7956 6.75956C49.6188 6.77563 49.5626 6.83189 49.5465 6.99262C49.5304 7.11316 49.4501 7.27389 49.3616 7.35426C49.2813 7.42658 49.209 7.55517 49.209 7.63553C49.209 7.7159 49.1366 7.82037 49.0482 7.86859C48.9598 7.91681 48.8875 8.00521 48.8875 8.0695C48.8875 8.13379 48.8473 8.19005 48.8071 8.19005C48.7589 8.19005 48.6464 8.27845 48.55 8.39096C48.4535 8.50347 48.3169 8.59187 48.2365 8.59187C48.1401 8.59187 48.0919 8.68831 48.0517 8.98566C48.0035 9.37141 47.9071 9.47589 47.6338 9.47589C47.4731 9.47589 47.4972 9.21068 47.682 8.87315C47.7704 8.71242 47.8428 8.53562 47.8428 8.47133C47.8428 8.40703 47.907 8.31863 47.9954 8.27845C48.0758 8.23023 48.1723 8.0695 48.1964 7.91681C48.2285 7.75608 48.3008 7.60339 48.3491 7.57124C48.4053 7.53106 48.5098 7.37837 48.566 7.22567C48.6866 6.93636 48.9277 6.67919 49.3134 6.44614C49.5063 6.31755 49.5304 6.2613 49.5304 5.8434C49.5304 5.59427 49.5706 5.36121 49.6108 5.3371C49.659 5.31299 49.6911 5.16834 49.6911 5.01564C49.6911 4.86295 49.7313 4.71829 49.7715 4.69418C49.8197 4.67007 49.8519 4.55756 49.8519 4.45309C49.8519 4.34058 49.9242 4.22003 50.0126 4.17181C50.101 4.12359 50.1733 4.04323 50.1733 3.99501C50.1733 3.86643 50.5832 3.27173 50.76 3.14315C50.8323 3.08689 50.8966 2.9342 50.8966 2.80561C50.8966 2.67703 50.9529 2.54041 51.0172 2.50827C51.1216 2.44398 51.3306 2.09841 51.7646 1.25458C51.8771 1.03759 52.0137 0.844718 52.0699 0.820608C52.1423 0.796499 52.1825 0.643806 52.1825 0.386639C52.1825 0.0330338 52.1664 -0.00714859 52.0056 0.00088788C51.9012 0.00088788 51.7646 0.0651797 51.6922 0.137508ZM47.3204 10.2394C47.3204 10.4162 47.0713 10.5046 46.9346 10.3679C46.8784 10.3117 46.8864 10.2474 46.9587 10.159C47.0954 9.99022 47.3204 10.0384 47.3204 10.2394Z" fill="#425171"/>
<path d="M72.241 24.8255C72.1606 24.9139 72.024 25.1309 71.9436 25.3077C71.8633 25.4845 71.7588 25.6292 71.7106 25.6292C71.598 25.6292 70.9873 26.2882 70.9873 26.4087C70.9873 26.5775 70.4328 26.5293 70.2077 26.3525C69.9988 26.1917 69.7014 26.1355 69.7014 26.256C69.7014 26.3766 69.0907 26.9954 68.9701 26.9954C68.9058 26.9954 68.7772 27.0517 68.6888 27.1159C68.6085 27.1802 68.4879 27.2365 68.4317 27.2365C68.3754 27.2365 68.1825 27.3088 67.9897 27.3892C67.8048 27.4776 67.4432 27.5579 67.186 27.5821C66.9289 27.6062 66.5752 27.7026 66.4145 27.791C66.2458 27.8714 65.9323 27.9758 65.7153 28.008C65.4984 28.0321 65.2251 28.1285 65.1046 28.2089C64.9921 28.2973 64.759 28.3616 64.5902 28.3616C64.4134 28.3616 64.2206 28.4179 64.1322 28.4982C63.9955 28.6268 63.7786 28.6429 62.2114 28.6429C60.6202 28.6429 60.4354 28.6268 60.347 28.4982C60.2666 28.3937 60.122 28.3616 59.7282 28.3616C59.3665 28.3616 59.1094 28.3134 58.8924 28.2009C58.6031 28.0482 58.4182 28.0401 56.3046 28.0401C54.183 28.0401 54.0142 28.0482 53.749 28.2009C53.5883 28.2893 53.3311 28.3616 53.1624 28.3616C53.0016 28.3616 52.8007 28.4179 52.7123 28.4821C52.632 28.5464 52.3989 28.6188 52.19 28.6509C51.9891 28.675 51.7078 28.7715 51.5712 28.8518C51.4345 28.9402 51.2256 29.0045 51.1211 29.0045C51.0086 29.0045 50.872 29.0527 50.8238 29.117C50.7755 29.1733 50.5746 29.2697 50.3737 29.326C50.1728 29.3822 49.9719 29.4787 49.9237 29.5349C49.8755 29.5992 49.763 29.6474 49.6826 29.6474C49.6103 29.6474 49.4897 29.6957 49.4335 29.7599C49.3692 29.8162 49.1763 29.9126 49.0075 29.9769C48.8307 30.0332 48.6298 30.1296 48.5575 30.1859C48.4932 30.2421 48.4048 30.2904 48.3726 30.2904C48.3405 30.2904 48.1958 30.3787 48.0512 30.4913C47.9065 30.6038 47.7297 30.6922 47.6654 30.6922C47.6011 30.6922 47.4806 30.7645 47.4002 30.8529C47.3199 30.9413 47.1672 31.0136 47.0627 31.0136C46.9341 31.0136 46.8457 31.0699 46.8216 31.1663C46.7975 31.2547 46.693 31.3431 46.5805 31.3753C46.476 31.3994 46.1064 31.6405 45.7769 31.8976C45.4393 32.1628 45.1179 32.3798 45.0536 32.3798C44.9973 32.3798 44.9089 32.4602 44.8607 32.5647C44.8205 32.6611 44.6678 32.8218 44.5232 32.9263C44.3785 33.0228 44.1053 33.2478 43.9124 33.4246C43.7115 33.6014 43.5266 33.746 43.4945 33.746C43.4624 33.746 43.382 33.8425 43.3257 33.963C43.2695 34.0755 43.1489 34.2122 43.0605 34.2604C42.9721 34.3086 42.8757 34.3809 42.8435 34.4291C42.6909 34.6461 41.8711 35.5382 41.6059 35.7712C41.5256 35.8436 41.3086 36.1088 41.1318 36.3659C40.955 36.6231 40.6576 36.9767 40.4728 37.1615C40.2799 37.3464 40.1272 37.5553 40.1272 37.6276C40.1272 37.708 40.0629 37.7643 39.9665 37.7643C39.854 37.7643 39.8058 37.8205 39.8058 37.9491C39.8058 38.0536 39.7174 38.2545 39.6049 38.4072C39.4923 38.5599 39.4039 38.7206 39.4039 38.7608C39.4039 38.809 39.2593 39.0662 39.0825 39.3314C38.9057 39.5966 38.761 39.8939 38.761 39.9904C38.761 40.0948 38.6967 40.2395 38.6083 40.3279C38.528 40.4083 38.4396 40.6413 38.4074 40.8422C38.3753 41.0431 38.2949 41.2521 38.2386 41.3003C38.1744 41.3566 38.1181 41.4852 38.1181 41.5896C38.1181 41.6861 38.086 41.7986 38.0377 41.8227C37.9976 41.8468 37.9574 41.9593 37.9574 42.0638C37.9574 42.1683 37.9252 42.2727 37.885 42.2968C37.8449 42.3209 37.7886 42.4817 37.7565 42.6424C37.7243 42.8112 37.652 43.0523 37.5957 43.1889C37.427 43.5746 37.3546 44.5872 37.3627 46.6044C37.3707 48.3965 37.427 49.1761 37.5475 49.1761C37.5716 49.1761 37.6439 49.2966 37.7002 49.4332C37.9172 49.9636 38.5199 50.9602 38.6807 51.0646C38.7289 51.0887 38.761 51.1691 38.761 51.2334C38.761 51.2977 38.978 51.5549 39.2432 51.804C39.5084 52.0451 39.7254 52.2942 39.7254 52.3585C39.7254 52.4148 39.8138 52.4871 39.9263 52.5192C40.0388 52.5433 40.1272 52.6157 40.1272 52.68C40.1272 52.7443 40.3201 52.9211 40.5532 53.0737C41.1961 53.5077 41.3648 53.6283 41.4532 53.7327C41.5015 53.781 41.6783 53.8372 41.8551 53.8613C42.0319 53.8774 42.3614 53.9658 42.5783 54.0622C43.165 54.3033 44.1455 54.4882 45.1902 54.5605C45.6965 54.5926 46.3153 54.681 46.5564 54.7534C46.902 54.8498 47.4083 54.882 48.8468 54.882C50.1648 54.882 50.8881 54.9221 51.3783 55.0105C51.756 55.0829 52.5355 55.1632 53.1061 55.2034C53.6847 55.2356 54.3518 55.324 54.5929 55.3963C54.834 55.4686 55.1795 55.5249 55.3563 55.5249C55.5331 55.5249 55.8626 55.6133 56.0796 55.7258C56.3046 55.8303 56.5136 55.9267 56.5457 55.9267C56.6181 55.9267 57.1806 56.3285 57.2529 56.433C57.2851 56.4732 57.3896 56.5455 57.494 56.6018C57.5985 56.65 57.7271 56.7786 57.7753 56.875C57.8235 56.9795 57.9923 57.1965 58.137 57.3572C58.2816 57.5179 58.4825 57.7992 58.579 57.984C58.7477 58.3135 58.7477 58.3135 58.595 58.5305C58.5066 58.643 58.37 58.7395 58.2816 58.7395C58.2012 58.7395 58.1289 58.7716 58.1289 58.8198C58.1289 58.86 58.0887 58.9002 58.0325 58.9002C57.8798 58.9002 57.5664 59.302 57.5664 59.4949C57.5664 59.5913 57.4217 59.8164 57.2529 60.0092C57.0842 60.1941 56.9154 60.403 56.8913 60.4673C56.8672 60.5316 56.8029 60.5879 56.7547 60.5879C56.7065 60.5879 56.3207 60.8932 55.9109 61.271C55.493 61.6487 55.0992 61.9541 55.0349 61.9541C54.9706 61.9541 54.9143 62.0023 54.9143 62.0505C54.9143 62.163 54.408 62.597 54.2875 62.597C54.2473 62.597 54.1509 62.6693 54.0705 62.7577C53.9901 62.8461 53.8615 62.9184 53.7812 62.9184C53.7008 62.9184 53.5963 62.9908 53.5481 63.0792C53.4999 63.1676 53.3794 63.2399 53.2749 63.2399C53.1704 63.2399 52.9936 63.3283 52.8731 63.4408C52.7525 63.5533 52.5998 63.6417 52.5355 63.6417C52.4793 63.6417 52.3587 63.706 52.2784 63.7783C52.0775 63.9712 51.8765 64.0998 51.5712 64.2444C51.4345 64.3007 51.2818 64.4132 51.2175 64.4775C51.1613 64.5498 51.0488 64.6061 50.9604 64.6061C50.88 64.6061 50.7354 64.6784 50.6389 64.7668C50.5425 64.8552 50.4059 64.9276 50.3335 64.9276C50.2612 64.9276 50.1326 64.9999 50.0523 65.0883C49.9719 65.1767 49.8353 65.249 49.7549 65.249C49.6745 65.249 49.5861 65.3053 49.562 65.3696C49.5379 65.4338 49.3852 65.5222 49.2325 65.5785C49.0798 65.6267 48.8789 65.7392 48.7986 65.8196C48.7102 65.908 48.5414 65.9723 48.4048 65.9723C48.2199 65.9723 48.1637 66.0044 48.1637 66.133C48.1637 66.2536 48.1074 66.2937 47.9387 66.2937C47.8101 66.2937 47.6413 66.3661 47.561 66.4545C47.4806 66.5429 47.3118 66.6152 47.1913 66.6152C47.0466 66.6152 46.918 66.6795 46.8618 66.7759C46.7895 66.8885 46.6689 66.9367 46.46 66.9367C46.2269 66.9367 46.1305 66.9849 46.0019 67.1697C45.9054 67.2983 45.8331 67.4349 45.8331 67.4671C45.8331 67.4992 45.7367 67.6358 45.6161 67.7564C45.4313 67.9573 45.3429 67.9814 44.917 67.9814C44.5553 67.9814 44.3705 68.0296 44.2258 68.1421C44.1133 68.2305 43.9445 68.3029 43.8561 68.3029C43.7597 68.3029 43.5909 68.3752 43.4784 68.4636C43.3659 68.552 43.1811 68.6243 43.0605 68.6243C42.94 68.6243 42.7551 68.6966 42.6426 68.785C42.5301 68.8735 42.3212 68.9458 42.1846 68.9458C42.0479 68.9458 41.847 69.002 41.7345 69.0663C41.5175 69.1869 41.3809 69.2592 40.7058 69.5726C40.4648 69.6851 40.2156 69.8619 40.1433 69.9745C40.071 70.087 39.9022 70.2236 39.7656 70.2879C39.637 70.3522 39.4361 70.4566 39.3236 70.5129C39.2111 70.5772 39.0584 70.6334 38.986 70.6334C38.9137 70.6334 38.8333 70.7058 38.8012 70.7861C38.7771 70.8745 38.6485 70.9629 38.528 70.9951C38.4074 71.0192 38.2306 71.1478 38.1342 71.2683C38.0458 71.3969 37.8609 71.5175 37.7323 71.5416C37.6038 71.5657 37.443 71.638 37.3868 71.6943C37.2662 71.8148 36.6394 72.2407 36.3983 72.3693C36.2215 72.4577 36.1492 72.5702 36.0286 72.8997C35.9804 73.0524 35.8197 73.181 35.5143 73.3257C35.2491 73.4462 34.791 73.7998 34.3811 74.1936C33.9954 74.5552 33.6418 74.8687 33.5855 74.8847C33.5373 74.9008 33.3525 75.0133 33.1757 75.1258C32.7337 75.4151 32.5649 75.5196 32.3318 75.6321C32.2193 75.6884 32.0907 75.7929 32.0345 75.8652C31.9782 75.9375 31.8336 76.0179 31.713 76.042C31.4478 76.0982 31.0219 76.476 31.0701 76.6045C31.0862 76.6608 31.1666 76.7171 31.255 76.7331C31.4719 76.7733 31.6086 76.9019 31.6086 77.0546C31.6086 77.1269 31.3675 77.4323 31.0862 77.7296C30.5719 78.2761 29.9772 78.6699 29.6798 78.6699C29.503 78.6699 29.3664 78.8789 29.4146 79.0717C29.4387 79.1521 29.4146 79.2405 29.3744 79.2646C29.2137 79.361 29.0449 79.2164 29.0208 78.9673C28.9967 78.7422 28.9726 78.7101 28.7717 78.7262C28.5226 78.7422 28.1047 79.0396 28.0484 79.2485C28.0163 79.353 27.9279 79.3932 27.7269 79.3932C27.5742 79.3932 27.4055 79.4495 27.3492 79.5137C27.293 79.578 27.1885 79.6343 27.1162 79.6343C27.0438 79.6343 26.8992 79.6825 26.7867 79.7388C26.6742 79.8031 26.4572 79.8754 26.3045 79.9075C26.1518 79.9316 25.8786 80.0281 25.7018 80.1084C25.4687 80.221 25.1071 80.2772 24.4079 80.3094L23.4355 80.3576L23.2185 80.1165C23.0095 79.8754 22.7845 79.8111 22.6479 79.9477C22.5997 79.9879 22.3184 80.0361 22.013 80.0522C21.6192 80.0763 21.4344 80.1245 21.3621 80.221C21.2897 80.3254 21.137 80.3576 20.695 80.3576C20.1405 80.3576 20.1164 80.3656 19.9959 80.5987C19.9316 80.7273 19.8753 80.9041 19.8753 80.9844C19.8753 81.1612 19.6342 81.4023 19.4494 81.4023C19.2404 81.4023 18.9913 81.8363 18.9913 82.1979C18.9913 82.5515 18.9029 82.7605 18.6055 83.09C18.5011 83.2025 18.3645 83.3873 18.3002 83.5079C18.2359 83.6365 18.1555 83.7329 18.1153 83.7329C18.0189 83.7329 17.9546 84.0142 18.0269 84.1347C18.0751 84.207 18.2118 84.2231 18.5171 84.1829C18.7582 84.1588 19.1761 84.1106 19.4574 84.0865C19.7307 84.0544 19.9798 83.9981 20.0039 83.966C20.0601 83.8695 20.3414 83.8775 20.6388 83.982C20.8477 84.0624 20.9281 84.0544 21.1049 83.9338C21.2174 83.8615 21.3379 83.7329 21.3621 83.6445C21.4263 83.4436 21.9326 83.2025 22.0693 83.315C22.1175 83.3632 22.2943 83.4195 22.455 83.4516C22.8086 83.5159 22.9051 83.4114 22.7684 83.098C22.6881 82.8971 22.7041 82.8489 22.9131 82.6239C23.0497 82.4792 23.2024 82.3667 23.2667 82.3667C23.331 82.3667 23.4114 82.3345 23.4515 82.2944C23.4998 82.2542 23.6685 82.1819 23.8373 82.1256C24.0141 82.0693 24.3677 81.9086 24.6329 81.7559C24.8981 81.6032 25.1392 81.4827 25.1794 81.4827C25.2115 81.4827 25.2839 81.4264 25.3401 81.3621C25.3964 81.2978 25.7017 81.1612 26.0152 81.0728C26.3286 80.9764 26.642 80.8558 26.7063 80.7996C26.7706 80.7433 27.0117 80.679 27.2367 80.663C27.4617 80.6389 27.7591 80.5665 27.9118 80.4942C28.0805 80.4058 28.3699 80.3576 28.6994 80.3576C29.0851 80.3576 29.2699 80.3174 29.3825 80.221C29.495 80.1084 29.6557 80.0843 30.0656 80.0924C30.4352 80.1004 30.6603 80.0683 30.7888 79.9879C31.0219 79.8352 31.3192 79.8673 31.3514 80.0442C31.3835 80.229 30.5397 80.8639 30.0414 81.0326C29.8164 81.113 29.5593 81.2255 29.4628 81.2818C29.3583 81.3541 29.0128 81.4023 28.5467 81.4184L27.7993 81.4425L27.7269 81.7399C27.6787 81.9568 27.6144 82.0452 27.5019 82.0452C27.4135 82.0452 27.301 82.1497 27.2287 82.2863C27.1564 82.423 27.0117 82.5676 26.9072 82.6078C26.7786 82.656 26.7063 82.7444 26.7063 82.8489C26.7063 82.9373 26.642 83.0418 26.5697 83.0659C26.4893 83.098 26.3768 83.1864 26.3206 83.2668C26.2563 83.3471 26.1116 83.4114 25.975 83.4114C25.8464 83.4114 25.7419 83.4516 25.7419 83.4918C25.7419 83.54 25.6776 83.6043 25.6053 83.6284C25.5249 83.6606 25.3803 83.765 25.2839 83.8695C25.1874 83.974 25.0347 84.0544 24.9544 84.0544C24.866 84.0544 24.7534 84.1106 24.6972 84.1749C24.6409 84.2392 24.4561 84.3356 24.2873 84.3758C24.1105 84.424 23.9739 84.5044 23.9739 84.5606C23.9739 84.6169 23.8293 84.7214 23.6605 84.8017C23.4917 84.8821 23.2587 85.0268 23.1462 85.1312C23.0256 85.2438 22.8649 85.3482 22.7684 85.3804C22.6157 85.4286 22.4631 85.7822 22.5515 85.8706C22.6157 85.9429 23.1783 85.742 23.4274 85.5732C23.5399 85.4848 23.6926 85.4205 23.7569 85.4205C23.8293 85.4205 23.9337 85.3563 23.99 85.2679C24.0462 85.1875 24.215 85.0911 24.3597 85.0589C24.5043 85.0268 24.649 84.9544 24.665 84.8982C24.6892 84.8419 24.8258 84.7696 24.9704 84.7455C25.1071 84.7214 25.2839 84.6249 25.3642 84.5365C25.4365 84.4481 25.5732 84.3758 25.6535 84.3758C25.7419 84.3758 25.8303 84.3437 25.8544 84.3035C25.8786 84.2633 26.0312 84.207 26.1839 84.1829C26.3366 84.1508 26.5617 84.0383 26.6742 83.9338C26.7947 83.8213 26.9554 83.7329 27.0358 83.7329C27.1162 83.7329 27.301 83.6606 27.4457 83.5722C27.5903 83.4838 27.7832 83.4114 27.8716 83.4114C27.96 83.4114 28.1047 83.3552 28.185 83.2909C28.2734 83.2266 28.4663 83.1703 28.611 83.1703C28.9646 83.1703 29.1253 83.4597 28.9324 83.757C28.8199 83.9338 28.1931 84.2874 27.7832 84.408C27.6868 84.4401 27.5501 84.5285 27.4698 84.6169C27.3733 84.7214 27.2206 84.7776 27.0278 84.7776C26.7947 84.7776 26.7143 84.8178 26.6822 84.9384C26.6581 85.0428 26.5697 85.0991 26.4491 85.0991C26.3527 85.0991 26.1759 85.1714 26.0634 85.2598C25.9509 85.3482 25.766 85.4205 25.6455 85.4205C25.5089 85.4205 25.3964 85.4848 25.3401 85.5813C25.2758 85.6938 25.1713 85.742 24.9785 85.742C24.7856 85.742 24.6811 85.7902 24.6168 85.9027C24.5606 86.0072 24.4481 86.0635 24.3034 86.0635C24.1829 86.0635 23.99 86.1358 23.8855 86.2322C23.7087 86.3849 23.6203 86.401 22.9854 86.3608C22.4229 86.3287 22.238 86.2885 22.1014 86.1599C21.9085 85.9831 21.4665 85.9992 21.2415 86.184C21.1772 86.2403 21.0326 86.3126 20.92 86.3447C20.5986 86.4412 19.5538 87.0359 19.5538 87.1243C19.5538 87.2127 19.1038 87.4297 18.9109 87.4297C18.8225 87.4297 18.6779 87.502 18.5895 87.5904C18.5011 87.6788 18.3805 87.7511 18.3162 87.7511C18.0992 87.7511 17.3036 88.169 17.2152 88.3217C17.0947 88.5548 17.167 88.603 17.6572 88.5789C17.9064 88.5708 18.1073 88.595 18.1073 88.6351C18.1073 88.6834 18.0189 88.7155 17.9064 88.7155C17.7939 88.7155 17.7055 88.7477 17.7055 88.7798C17.7055 88.8521 16.8536 89.4388 16.7491 89.4388C16.7089 89.4388 16.6286 89.495 16.5723 89.5754C16.508 89.6477 16.3393 89.7522 16.2026 89.8165C16.058 89.8728 15.9374 89.9692 15.9374 90.0255C15.9214 90.371 14.9972 91.0059 14.2739 91.1586C14.1373 91.1907 13.9765 91.2711 13.9203 91.3354C13.8721 91.3997 13.6872 91.4479 13.5185 91.4479C13.3095 91.4479 13.1488 91.5042 13.0443 91.6086C12.8273 91.8256 11.9674 91.8417 11.879 91.6328C11.8147 91.4559 12.1924 91.1264 12.4496 91.1264C12.538 91.1264 12.6827 91.0541 12.755 90.9738C12.8354 90.8854 12.972 90.797 13.0684 90.7728C13.1649 90.7487 13.2854 90.6362 13.3417 90.5157C13.4381 90.3067 13.4381 90.3067 13.1809 90.3549C13.0363 90.3871 12.7871 90.4353 12.6184 90.4594C12.4496 90.4835 12.2889 90.5478 12.2648 90.6041C12.2487 90.6684 12.0799 90.7407 11.8951 90.7648C11.7103 90.797 11.4933 90.8934 11.4129 90.9738C11.3325 91.0622 11.1879 91.1264 11.0914 91.1264C10.995 91.1264 10.8262 91.1988 10.7137 91.2872C10.6012 91.3756 10.4003 91.4479 10.2637 91.4479C10.1271 91.4479 9.96634 91.4961 9.91812 91.5604C9.8699 91.6247 9.70917 91.7211 9.56451 91.7774C9.41986 91.8337 9.2752 91.9221 9.22698 91.9783C9.1868 92.0265 9.00196 92.1069 8.82516 92.1551C8.64836 92.2033 8.35904 92.2917 8.18224 92.3641C8.00544 92.4284 7.65987 92.4846 7.41878 92.4927C7.16964 92.4927 6.92855 92.5328 6.88033 92.5811C6.81604 92.6453 6.77586 92.6453 6.74371 92.5811C6.71157 92.5328 6.60709 92.4927 6.51065 92.4927C6.366 92.4927 6.30171 92.573 6.1892 92.8864C5.98025 93.4892 5.99632 93.5695 6.34992 93.5133C6.51065 93.4811 6.67138 93.4168 6.70353 93.3686C6.77586 93.24 7.50718 93.1838 7.65987 93.2963C7.76434 93.3686 7.75631 93.4008 7.60361 93.5213C7.51521 93.5936 7.41878 93.7303 7.4027 93.8187C7.38663 93.9312 7.25805 94.0196 6.98481 94.108C6.76782 94.1803 6.55887 94.3008 6.51869 94.3732C6.47851 94.4455 6.37403 94.5018 6.29367 94.5018C6.20527 94.5018 6.13294 94.5419 6.13294 94.5821C6.13294 94.6303 6.0365 94.7107 5.90792 94.7589C5.78737 94.8152 5.63468 94.8956 5.57039 94.9518C5.50609 95.0081 5.29715 95.0884 5.12034 95.1367C4.93551 95.1849 4.74263 95.2813 4.68637 95.3456C4.63012 95.4099 4.48546 95.4661 4.36492 95.4661C4.24437 95.4661 4.08364 95.5385 4.00327 95.6269C3.92291 95.7153 3.78629 95.7876 3.69789 95.7876C3.61752 95.7876 3.38447 95.9483 3.18355 96.1492C2.89424 96.4466 2.78173 96.5109 2.5326 96.5109C2.36383 96.5109 2.09059 96.5832 1.91379 96.6716C1.73699 96.76 1.55215 96.8323 1.4959 96.8323C1.43964 96.8323 1.39142 96.8645 1.39142 96.9047C1.39142 96.9449 1.27087 97.0172 1.13425 97.0734C0.692248 97.2502 0.34668 97.628 0.34668 97.9333V98.1985H0.780649C1.04585 98.1985 1.24676 98.1584 1.30302 98.086C1.35124 98.0298 1.4959 97.9575 1.62448 97.9333C1.75306 97.9092 1.90576 97.8369 1.96201 97.7726C2.06648 97.6681 2.19507 97.628 2.74155 97.5074C2.8621 97.4833 3.10319 97.3869 3.28803 97.3065C3.46483 97.2261 3.69789 97.1538 3.8104 97.1538C3.92291 97.1538 4.21222 97.0815 4.46939 96.9931C5.11231 96.7681 5.20071 96.7761 5.14445 97.0734C5.09623 97.2985 5.11231 97.3145 5.32126 97.3145C5.84363 97.3145 6.55887 96.9047 6.64727 96.5511C6.67942 96.4305 6.84015 96.2859 7.08928 96.1412C7.30626 96.0287 7.59558 95.7956 7.72416 95.6349C7.98937 95.3054 8.99392 94.6062 9.39575 94.4616C9.53237 94.4134 9.70113 94.333 9.75739 94.2848C9.82168 94.2366 9.98241 94.1723 10.111 94.1482C10.2476 94.116 10.4244 94.0035 10.5128 93.891C10.7057 93.6258 11.1236 93.457 11.5656 93.457C11.7585 93.457 11.9192 93.4168 11.9192 93.3686C11.9192 93.3284 12.0558 93.232 12.2246 93.1597C12.3853 93.0954 12.5541 92.9909 12.5862 92.9266C12.6184 92.8623 12.7711 92.8141 12.9077 92.8141C13.0684 92.8141 13.2211 92.7498 13.3095 92.6534C13.3818 92.565 13.4943 92.4927 13.5667 92.4927C13.7274 92.4927 14.6516 92.0185 14.6516 91.9301C14.6516 91.8979 14.748 91.8417 14.8686 91.8095C14.9811 91.7854 15.174 91.689 15.2784 91.6006C15.391 91.5202 15.5195 91.4479 15.5758 91.4479C15.6321 91.4479 15.7205 91.3997 15.7687 91.3354C15.9374 91.1345 16.4598 90.9014 16.8697 90.8452C17.0867 90.813 17.3358 90.7246 17.4242 90.6523C17.8099 90.3389 18.1073 90.1701 18.3725 90.1219C18.5332 90.0897 18.702 90.0174 18.7502 89.9531C18.8065 89.8969 19.0074 89.8245 19.2002 89.7924C19.3931 89.7683 19.578 89.712 19.6021 89.6718C19.6262 89.6317 19.7146 89.5995 19.803 89.5995C19.8833 89.5995 19.9959 89.5272 20.0521 89.4388C20.1084 89.3504 20.3012 89.2379 20.478 89.1897C20.6548 89.1414 20.8558 89.053 20.92 88.9968C20.9843 88.9325 21.2013 88.8521 21.3862 88.8039C21.579 88.7637 21.796 88.6753 21.8684 88.611C21.9407 88.5467 22.1577 88.4503 22.3425 88.4021C22.5273 88.3458 22.7041 88.2815 22.7283 88.2414C22.7443 88.2012 23.0176 88.1449 23.323 88.1128C23.7891 88.0646 23.9177 88.0806 24.1909 88.2253C24.3918 88.3217 24.5525 88.4824 24.6168 88.6351C24.7133 88.8682 24.7454 88.8843 25.0106 88.8361C25.1713 88.8119 25.3562 88.7235 25.4205 88.6432C25.5892 88.4503 25.8866 88.2735 26.2643 88.153C26.8349 87.9762 28.0725 87.3332 28.0725 87.2207C28.0725 87.068 28.2252 87.0761 28.5788 87.2689C28.9244 87.4538 29.3423 87.4779 29.4066 87.3172C29.4307 87.2529 29.5673 87.1725 29.7039 87.1484C30.0816 87.0761 30.5719 86.8591 30.829 86.6501C30.9576 86.5457 31.0942 86.4653 31.1344 86.4653C31.1826 86.4653 31.3755 86.393 31.5764 86.3046C31.7773 86.2081 32.0104 86.1599 32.0988 86.184C32.3479 86.2644 32.5649 86.1519 32.7738 85.8224C32.9185 85.5974 33.0551 85.4848 33.2801 85.4286C33.4489 85.3804 33.6498 85.292 33.7382 85.2277C33.8266 85.1553 33.9632 85.0991 34.0436 85.0991C34.124 85.0991 34.3249 85.0268 34.5017 84.9384C34.6785 84.85 34.9035 84.7776 35 84.7776C35.1044 84.7776 35.2652 84.7294 35.3536 84.6651C35.442 84.6008 35.8197 84.4401 36.1893 84.2954C36.5671 84.1588 37.001 83.974 37.1618 83.8856C37.3225 83.8052 37.4993 83.7329 37.5555 83.7329C37.6038 83.7329 37.7404 83.6606 37.8529 83.5722C37.9654 83.4838 38.1181 83.4114 38.1904 83.4114C38.2628 83.4114 38.4476 83.3311 38.6003 83.2346C39.2432 82.8248 39.9906 82.7123 40.071 83.0096C40.1192 83.2025 39.9343 83.4114 39.7093 83.4114C39.6209 83.4114 39.4441 83.4998 39.3075 83.6123C39.1789 83.7249 39.0262 83.8133 38.9619 83.8133C38.9057 83.8133 38.8414 83.8695 38.8092 83.9338C38.7851 83.9981 38.6967 84.0544 38.6164 84.0544C38.528 84.0544 38.3753 84.1186 38.2708 84.199C38.1663 84.2794 37.9654 84.3919 37.8208 84.4481C37.6761 84.5044 37.5154 84.6008 37.4671 84.6651C37.4189 84.7294 37.2903 84.7776 37.1939 84.7776C37.0975 84.7776 36.9689 84.8339 36.9126 84.8982C36.8564 84.9705 36.6555 85.0991 36.4706 85.1795C36.2777 85.2679 36.109 85.3804 36.0849 85.4447C36.0608 85.5009 35.9 85.5974 35.7152 85.6616C35.5384 85.7179 35.3214 85.8304 35.233 85.9188C35.1446 85.9992 35.008 86.0635 34.9357 86.0635C34.8633 86.0635 34.791 86.1358 34.7669 86.2162C34.7428 86.3046 34.6303 86.3849 34.4776 86.4171C34.341 86.4412 34.1642 86.5216 34.0918 86.5939C33.9231 86.7466 33.473 87.0118 33.2801 87.0761C33.1114 87.1404 33.0069 87.4136 33.1194 87.5261C33.1676 87.5743 33.2641 87.5824 33.3525 87.5502C33.6257 87.4216 34.5419 87.285 34.6222 87.3573C34.7267 87.4618 35.1205 87.4457 35.3294 87.3332C35.4259 87.285 35.8357 87.2368 36.2295 87.2288C36.6314 87.2207 37.0653 87.1805 37.1939 87.1323C37.7806 86.9153 38.2547 86.7868 38.4637 86.7868C38.5842 86.7868 38.8976 86.6983 39.1628 86.5858C39.428 86.4733 39.7334 86.3849 39.8379 86.3849C39.9504 86.3849 40.071 86.3287 40.1031 86.2644C40.1433 86.2001 40.3442 86.1197 40.5692 86.0956C40.7942 86.0635 41.0353 85.9831 41.1157 85.9188C41.2845 85.7661 41.5175 85.6295 41.9435 85.4286C42.1283 85.3402 42.3051 85.2357 42.3292 85.1875C42.3614 85.1393 42.4578 85.0991 42.5382 85.0991C42.6266 85.0991 42.731 85.0268 42.7793 84.9384C42.8275 84.85 42.948 84.7776 43.0445 84.7776C43.1409 84.7776 43.3338 84.7053 43.4624 84.6169C43.599 84.5205 43.816 84.3919 43.9445 84.3276C44.3624 84.1267 44.5634 83.9901 44.6276 83.8856C44.6839 83.7972 44.9009 83.7007 45.5679 83.4677C45.7126 83.4114 45.8733 83.2829 45.9296 83.1703C46.0581 82.9132 46.1465 82.8489 46.3716 82.8489C46.5644 82.8489 47.36 82.3828 47.36 82.2783C47.36 82.2381 47.4083 82.206 47.4645 82.206C47.5208 82.206 47.6494 82.1336 47.7458 82.0452C47.8422 81.9568 47.9708 81.8845 48.0271 81.8845C48.0914 81.8845 48.2039 81.7961 48.2762 81.6836C48.3485 81.5711 48.461 81.4827 48.5173 81.4827C48.5736 81.4827 48.7102 81.4184 48.8146 81.338C48.9191 81.2496 49.112 81.1612 49.2406 81.1291C49.3611 81.0969 49.4817 81.0085 49.5058 80.9201C49.5299 80.8398 49.6424 80.7514 49.7549 80.7192C49.8674 80.6951 50.0121 80.5987 50.0764 80.5103C50.1326 80.4299 50.2371 80.3576 50.3014 80.3576C50.5023 80.3576 51.4506 79.8111 51.7238 79.5378C51.8042 79.4575 51.9408 79.3932 52.0292 79.3932C52.1176 79.3932 52.206 79.3369 52.2382 79.2646C52.3427 78.9914 52.9454 78.5092 53.2508 78.461C53.4758 78.4208 53.5803 78.3565 53.6365 78.2118C53.7651 77.8663 53.741 77.8422 53.2267 77.8904C52.9615 77.9145 52.7284 77.8984 52.7043 77.8663C52.648 77.7698 53.2106 77.3037 53.3794 77.3037C53.4597 77.3037 53.5481 77.2475 53.5803 77.1832C53.6124 77.0948 53.741 77.0626 54.0303 77.0626C54.3839 77.0626 54.4804 77.0224 54.6813 76.8296C54.8099 76.701 54.9143 76.5483 54.9143 76.5001C54.9143 76.3715 55.6456 75.6161 55.7742 75.6161C55.8305 75.6161 55.9028 75.5598 55.9269 75.4955C55.9591 75.4312 56.0314 75.375 56.0957 75.375C56.16 75.375 56.2323 75.3107 56.2564 75.2303C56.2966 75.0937 56.9154 74.6517 57.0761 74.6517C57.3253 74.6517 57.9682 74.1052 57.9682 73.8962C57.9682 73.7195 58.4263 73.3819 58.7317 73.3176C58.8924 73.2935 59.037 73.2373 59.0611 73.1971C59.0853 73.1569 59.2058 73.1248 59.3264 73.1248C59.4871 73.1248 59.5674 73.0765 59.5996 72.964C59.6398 72.7952 60.0095 72.731 60.0979 72.8837C60.1782 73.0122 60.4595 72.9721 60.6765 72.8033C60.789 72.7149 60.9256 72.6426 60.9819 72.6426C61.1265 72.6426 61.7453 72.305 61.7453 72.2327C61.7453 72.2006 61.8498 72.1523 61.9784 72.1202C62.107 72.0961 62.2757 71.9996 62.3561 71.9112C62.4284 71.8309 62.5409 71.7586 62.6052 71.7586C62.6695 71.7586 62.7981 71.6782 62.9026 71.5737C63.0071 71.4692 63.441 71.2121 63.867 70.9951C64.2929 70.7781 64.6385 70.5692 64.6385 70.537C64.6385 70.5049 64.6867 70.4727 64.751 70.4727C64.8153 70.4727 64.9438 70.3843 65.0483 70.2718C65.1528 70.1673 65.3216 70.0709 65.426 70.0709C65.5305 70.0709 65.635 69.9986 65.6912 69.8861C65.7314 69.7896 65.9163 69.6289 66.0931 69.5244C66.2699 69.4199 66.4386 69.2833 66.4627 69.219C66.4868 69.1547 66.5511 69.1065 66.5994 69.1065C66.736 69.1065 66.9449 68.8895 67.3709 68.3029C67.5718 68.0296 67.8691 67.668 68.0379 67.4912C68.1986 67.3063 68.3352 67.1376 68.3352 67.1054C68.3352 66.9849 68.6326 66.7759 68.7933 66.7759C68.8817 66.7759 69.0344 66.6956 69.1309 66.5911C69.3478 66.3741 69.7014 65.8357 69.7014 65.7151C69.7014 65.6749 69.7898 65.5303 69.9023 65.3937C70.0149 65.2651 70.1033 65.0883 70.1033 65.0079C70.1033 64.9276 70.2881 64.7106 70.5292 64.5257C70.7542 64.3489 71.0033 64.148 71.0837 64.0837C71.156 64.0275 71.2766 63.9632 71.365 63.9471C71.59 63.9069 71.598 63.5372 71.3811 63.4408C71.14 63.3363 71.0918 63.1595 71.2846 63.1113C71.4534 63.0631 71.6141 62.7497 71.6864 62.3318C71.7106 62.1469 71.7829 62.0344 71.8793 62.0103C72.024 61.9701 72.032 61.8737 72.032 60.6521C72.024 59.6717 71.9999 59.294 71.9115 59.1413C71.8472 59.0288 71.799 58.7234 71.7909 58.4421C71.7909 57.9599 71.7829 57.9358 71.5739 57.8876C71.2444 57.8072 71.0837 57.6385 71.0275 57.2929C70.9953 57.1 70.8426 56.8268 70.6176 56.5616C70.4247 56.3205 70.1434 55.983 69.9988 55.8062C69.8541 55.6293 69.7095 55.4204 69.6773 55.34C69.6532 55.2677 69.5809 55.2034 69.5327 55.2034C69.4845 55.2034 69.3639 55.1231 69.2675 55.0186C69.171 54.9221 68.9621 54.7453 68.8094 54.6248C68.6647 54.5123 68.4076 54.2953 68.2549 54.1587C68.1022 54.0221 67.8772 53.8854 67.7566 53.8613C67.628 53.8372 67.5316 53.781 67.5316 53.7408C67.5316 53.7006 67.403 53.6122 67.2503 53.5479C67.0976 53.4836 66.969 53.4032 66.969 53.3631C66.969 53.3229 66.8083 53.2506 66.6154 53.2023C66.4226 53.1541 66.2216 53.0657 66.1654 52.9934C66.1091 52.9291 65.9725 52.8728 65.852 52.8728C65.7314 52.8728 65.4984 52.8005 65.3216 52.7121C65.1448 52.6237 64.8876 52.5514 64.7349 52.5514C64.5822 52.5514 64.3652 52.479 64.2447 52.3987C64.1322 52.3183 63.8187 52.2219 63.5535 52.1897C63.2883 52.1576 62.8624 52.0692 62.6052 51.9808C62.2677 51.8683 61.9221 51.8281 61.2551 51.8281C60.4916 51.8281 60.339 51.804 60.2505 51.6834C60.1621 51.5629 59.9371 51.5388 58.3539 51.4986C56.6261 51.4504 56.2805 51.4102 56.2805 51.2575C56.2805 51.2173 55.6296 51.1852 54.834 51.1852C53.4597 51.1852 52.2623 51.0646 52.2623 50.928C52.2623 50.8959 51.973 50.8637 51.6194 50.8637C51.1211 50.8637 50.9202 50.8316 50.7193 50.703C50.5746 50.6146 50.3496 50.5423 50.213 50.5423C50.0844 50.5423 49.8594 50.4699 49.7228 50.3896C49.5861 50.3092 49.3129 50.2128 49.12 50.1806C48.9272 50.1485 48.7021 50.052 48.6218 49.9717C48.5414 49.8833 48.4128 49.819 48.3325 49.819C47.9306 49.819 46.9823 48.726 46.468 47.6652L46.1305 46.966L46.1867 45.7606C46.2269 44.8926 46.2751 44.5229 46.3635 44.4265C46.4278 44.3622 46.476 44.2417 46.476 44.1693C46.476 44.097 46.5484 43.9122 46.6368 43.7514C46.7252 43.5907 46.7975 43.4139 46.7975 43.3496C46.7975 43.2853 46.8859 43.1005 46.9984 42.9398C47.1109 42.779 47.1993 42.6022 47.1993 42.546C47.1993 42.4978 47.2716 42.3852 47.36 42.3049C47.4484 42.2245 47.5208 42.0959 47.5208 42.0156C47.5208 41.9432 47.6654 41.7504 47.8422 41.5977C48.019 41.445 48.1637 41.2923 48.1637 41.2521C48.1637 41.1074 48.9352 40.4163 49.0959 40.4163C49.1843 40.4163 49.3933 40.2716 49.562 40.0948C49.7308 39.918 49.9317 39.7734 50.004 39.7734C50.0844 39.7734 50.2451 39.7011 50.3576 39.6127C50.4702 39.5243 50.5987 39.4519 50.647 39.4519C50.6952 39.4519 50.8479 39.3796 50.9925 39.2912C51.1372 39.2028 51.306 39.1305 51.3622 39.1305C51.4185 39.1305 51.6596 39.0421 51.8926 38.9376C52.2141 38.7849 52.3346 38.6885 52.3587 38.5358C52.3828 38.4152 52.3587 38.2866 52.2944 38.2384C52.1016 38.0777 52.3186 37.7643 52.632 37.7643C52.7204 37.7643 52.8329 37.7241 52.8891 37.6678C53.1463 37.4107 55.5331 37.0651 55.4608 37.2982C55.4367 37.3544 55.3403 37.4107 55.2438 37.4267C55.1152 37.4508 55.0751 37.4991 55.0911 37.6276C55.1152 37.7964 55.1474 37.8045 55.8546 37.7803C56.4814 37.7562 56.6341 37.7723 56.8592 37.9089C57.0038 37.9973 57.2529 38.0857 57.4137 38.1098C57.5744 38.1339 57.9039 38.2465 58.145 38.359C58.3861 38.4715 58.6191 38.5679 58.6674 38.5679C58.7075 38.5679 58.8442 38.6724 58.9647 38.801C59.0933 38.9296 59.2862 39.0581 59.3987 39.0903C59.5835 39.1385 59.8648 39.3233 60.2425 39.6528C60.3148 39.7171 60.4032 39.7734 60.4273 39.7734C60.4515 39.7734 60.6443 39.91 60.8533 40.0868C61.0542 40.2556 61.3033 40.4163 61.4078 40.4485C61.5042 40.4806 61.5846 40.561 61.5846 40.6172C61.5846 40.6815 61.6891 40.786 61.8096 40.8503C61.9382 40.9146 62.4525 41.3807 62.9588 41.8709C64.0839 42.988 64.2929 43.1487 64.5661 43.1487C64.6786 43.1487 64.8233 43.1969 64.8715 43.2612C64.9278 43.3255 65.0885 43.4059 65.2251 43.43C65.4743 43.4782 65.7314 43.5746 66.0207 43.7193C66.2056 43.8157 67.4512 43.8157 67.4512 43.7193C67.4512 43.6309 68.1986 43.1969 68.496 43.1085C68.6085 43.0764 68.8656 42.9076 69.0666 42.7388C69.2755 42.562 69.4845 42.4254 69.5327 42.4254C69.5809 42.4254 69.6211 42.3933 69.6211 42.3611C69.6211 42.3209 69.7175 42.1843 69.83 42.0557C69.9425 41.9272 70.1756 41.6137 70.3524 41.3646C70.5212 41.1155 70.7301 40.8583 70.8105 40.8021C70.8989 40.7458 71.0033 40.561 71.0596 40.4002C71.1159 40.2395 71.1801 40.0948 71.2123 40.0788C71.2444 40.0627 71.4454 39.693 71.6623 39.251C71.8793 38.809 72.1204 38.375 72.1927 38.2866C72.2731 38.1982 72.3615 37.9571 72.3856 37.7482C72.4178 37.5473 72.4981 37.3303 72.5544 37.2821C72.6187 37.2258 72.6749 37.1053 72.6749 37.0088C72.683 36.9204 72.7392 36.6954 72.8035 36.5186C72.9562 36.1248 73.2295 35.1846 73.3179 34.7506C73.5831 33.4487 73.5831 33.4246 73.4384 32.7736C73.3098 32.2271 73.3018 32.0503 73.3902 31.3351C73.5268 30.1296 73.5107 29.7841 73.3179 29.6073C73.1571 29.4626 73.1491 29.3983 73.2053 28.3696C73.2294 27.7669 73.3259 26.9633 73.4063 26.5775C73.6152 25.6292 73.6072 25.589 73.3018 25.5006C73.1089 25.4444 73.0285 25.364 73.0125 25.2354C72.9803 25.0184 72.6508 24.6648 72.4981 24.6729C72.4419 24.6729 72.3213 24.7452 72.241 24.8255ZM52.1819 78.1475C52.1819 78.2681 51.6354 78.5494 51.5551 78.469C51.4908 78.4127 51.9328 78.027 52.0694 78.027C52.1257 78.027 52.1819 78.0833 52.1819 78.1475ZM18.5895 88.3137C18.5011 88.4744 18.4127 88.5146 18.3243 88.4262C18.2359 88.3378 18.3645 88.153 18.5171 88.153C18.6538 88.153 18.6618 88.1771 18.5895 88.3137Z" fill="#425171"/>
</svg>
