<svg width="115" height="93" viewBox="0 0 115 93" fill="none" xmlns="http://www.w3.org/2000/svg">
<path d="M7.67602 42.7173L0 29.5962H37.368C47.3373 29.5962 52.3207 34.5164 52.3182 44.3569C52.3182 50.701 50.2473 54.9998 46.1054 57.2534L56.8025 75.5255H41.4884L31.8867 59.1214H23.7672V71.8044L10.4773 78.3631V46.0003H37.368C38.4748 46.0003 39.0321 45.4538 39.0321 44.3569C39.0321 43.2601 38.4748 42.7173 37.368 42.7173H7.67602Z" fill="#4B5E87"/>
<path d="M81.4985 29.5962H115L107.328 42.6985H81.4985C74.8547 42.6985 71.5329 45.9791 71.5329 52.5403C71.5329 59.1014 74.8547 62.3895 81.4985 62.4045H92.1956L84.5234 75.5255H81.4909C65.9872 75.5255 58.2354 67.87 58.2354 52.559C58.2354 37.248 65.9897 29.5937 81.4985 29.5962Z" fill="#4B5E87"/>
<path d="M95.5503 89.8669L57.7995 81.006L35.0633 85.4384L38.5507 76.4651L30.4804 62.7339L14.6015 102.992L57.8222 94.1308L100.433 102.992L95.5503 89.8669Z" fill="#4B5E87"/>
<path d="M43.8234 18.5528C38.614 20.2521 33.7622 22.8755 29.5062 26.2944H20.3215C27.3266 18.7627 36.5038 13.5359 46.6133 11.3203L43.8234 18.5528Z" fill="#4B5E87"/>
<path d="M65.7711 16.8233C74.2546 17.8603 82.1163 21.6899 87.8288 26.2944H97.0135C89.4232 18.1325 79.296 12.7004 68.2313 10.8561L65.7711 16.8233Z" fill="#4B5E87"/>
<path d="M99.4584 45.9067C101.79 52.6202 102.43 59.7935 101.323 66.8061C100.216 73.8187 97.3952 80.4593 93.1053 86.1534L99.7389 87.7182C104.841 79.8568 108.162 69.9813 108.162 60.0722C108.168 55.2765 107.471 50.5052 106.092 45.9067H99.4584Z" fill="#4B5E87"/>
<path d="M42.8341 100.375C45.9234 102.554 53.7814 103.763 59.1338 103.763C64.0237 103.763 69.7475 102.992 75.0316 100.813L85.1791 102.992C76.3584 107.783 68.0341 110.033 59.1338 110C49.0052 109.962 41.9433 107.783 32.679 102.554L42.8341 100.375Z" fill="#4B5E87"/>
<path d="M54.0126 35.8591L64.2814 10.7176L57.3256 -8L43.5657 27.526C43.5657 27.526 51.9316 28.1587 54.0126 35.8591Z" fill="#4B5E87"/>
</svg>
