<svg width="94" height="24" viewBox="0 0 94 24" fill="none" xmlns="http://www.w3.org/2000/svg">
<path d="M1.52508 10.3154L0 7.64669H7.42431C9.40504 7.64669 10.3951 8.64741 10.3946 10.6489C10.3946 11.9392 9.98318 12.8135 9.16027 13.2719L11.2856 16.9882H8.24296L6.33529 13.6518H4.7221V16.2314L2.08164 17.5654V10.9831H7.42431C7.64423 10.9831 7.75494 10.872 7.75494 10.6489C7.75494 10.4258 7.64423 10.3154 7.42431 10.3154H1.52508Z" fill="#5C667D"/>
<path d="M16.1922 7.64669H22.8483L21.324 10.3116H16.1922C14.8722 10.3116 14.2122 10.9788 14.2122 12.3133C14.2122 13.6477 14.8722 14.3165 16.1922 14.3196H18.3175L16.7932 16.9882H16.1907C13.1104 16.9882 11.5703 15.4312 11.5703 12.3171C11.5703 9.20298 13.1109 7.64618 16.1922 7.64669Z" fill="#5C667D"/>
<path d="M18.984 19.9051L11.4837 18.1029L6.96641 19.0044L7.65929 17.1793L6.05588 14.3866L2.90104 22.5746L11.4882 20.7724L19.9541 22.5746L18.984 19.9051Z" fill="#5C667D"/>
<path d="M8.70689 5.40057C7.67188 5.74618 6.70791 6.27977 5.86233 6.97514H4.03751C5.42929 5.44326 7.25263 4.38019 9.26119 3.92956L8.70689 5.40057Z" fill="#5C667D"/>
<path d="M13.0675 5.04881C14.753 5.25971 16.315 6.03862 17.4499 6.97514H19.2747C17.7667 5.31509 15.7546 4.21026 13.5563 3.83514L13.0675 5.04881Z" fill="#5C667D"/>
<path d="M19.7605 10.9641C20.2237 12.3295 20.3508 13.7885 20.1309 15.2148C19.911 16.6411 19.3506 17.9917 18.4983 19.1498L19.8162 19.4681C20.83 17.8692 21.4897 15.8606 21.4897 13.8452C21.4909 12.8698 21.3524 11.8994 21.0785 10.9641H19.7605Z" fill="#5C667D"/>
<path d="M8.51032 22.0424C9.12412 22.4855 10.6853 22.7314 11.7488 22.7314C12.7203 22.7314 13.8575 22.5746 14.9074 22.1315L16.9235 22.5746C15.171 23.5492 13.5171 24.0068 11.7488 23.9999C9.73641 23.9923 8.33334 23.5492 6.4927 22.4855L8.51032 22.0424Z" fill="#5C667D"/>
<path d="M10.7313 8.9205L12.7715 3.80697L11.3895 0L8.65567 7.22564C8.65567 7.22564 10.3178 7.35431 10.7313 8.9205Z" fill="#5C667D"/>
<path d="M31.3331 6.86733V2.43478H33.1918C33.3936 2.43478 33.5788 2.4764 33.7476 2.55964C33.9164 2.64288 34.0625 2.75525 34.186 2.89676C34.3137 3.03827 34.4125 3.19643 34.4825 3.37123C34.5524 3.54604 34.5874 3.72501 34.5874 3.90813C34.5874 4.15786 34.5298 4.39509 34.4145 4.61984C34.2993 4.84459 34.1408 5.02772 33.939 5.16923C33.7373 5.31073 33.4985 5.38149 33.2227 5.38149H32.1853V6.86733H31.3331ZM32.1853 4.62608H33.1733C33.2762 4.62608 33.3689 4.59695 33.4512 4.53868C33.5335 4.48041 33.5994 4.39717 33.6488 4.28896C33.6982 4.17658 33.7229 4.04964 33.7229 3.90813C33.7229 3.75414 33.6941 3.62304 33.6365 3.51482C33.5829 3.40661 33.5109 3.32545 33.4203 3.27135C33.3339 3.21724 33.2392 3.19019 33.1363 3.19019H32.1853V4.62608Z" fill="#5C667D"/>
<path d="M37.0516 6.89854C36.7305 6.89854 36.4382 6.83611 36.1748 6.71125C35.9154 6.58639 35.691 6.41783 35.5017 6.20557C35.3164 5.98914 35.1723 5.74775 35.0694 5.48138C34.9665 5.21085 34.915 4.93407 34.915 4.65105C34.915 4.35555 34.9685 4.07461 35.0756 3.80825C35.1867 3.53771 35.337 3.2984 35.5264 3.0903C35.7198 2.87803 35.9463 2.71155 36.2056 2.59086C36.4691 2.466 36.7573 2.40356 37.0702 2.40356C37.3872 2.40356 37.6753 2.46808 37.9347 2.5971C38.1982 2.72612 38.4225 2.89884 38.6078 3.11527C38.7931 3.33169 38.9371 3.57309 39.0401 3.83946C39.143 4.10583 39.1944 4.38052 39.1944 4.66354C39.1944 4.95488 39.1409 5.23582 39.0339 5.50635C38.9268 5.77272 38.7766 6.01203 38.5831 6.2243C38.3937 6.4324 38.1673 6.5968 37.9038 6.7175C37.6445 6.83819 37.3604 6.89854 37.0516 6.89854ZM35.7795 4.65105C35.7795 4.84251 35.8084 5.02772 35.866 5.20668C35.9236 5.38565 36.006 5.54589 36.113 5.6874C36.2242 5.82474 36.358 5.93504 36.5144 6.01828C36.6749 6.09736 36.8561 6.13689 37.0578 6.13689C37.2637 6.13689 37.4468 6.09527 37.6074 6.01203C37.768 5.92463 37.9018 5.81018 38.0088 5.66867C38.1158 5.523 38.1961 5.36276 38.2496 5.18795C38.3073 5.00899 38.3361 4.83002 38.3361 4.65105C38.3361 4.4596 38.3052 4.27647 38.2435 4.10167C38.1858 3.9227 38.1014 3.76454 37.9903 3.6272C37.8832 3.48569 37.7494 3.3754 37.5889 3.29632C37.4324 3.21308 37.2554 3.17146 37.0578 3.17146C36.8479 3.17146 36.6626 3.21516 36.502 3.30256C36.3456 3.3858 36.2139 3.49818 36.1068 3.63968C35.9998 3.78119 35.9175 3.93935 35.8598 4.11415C35.8063 4.28896 35.7795 4.46793 35.7795 4.65105Z" fill="#5C667D"/>
<path d="M39.5826 4.61984C39.5826 4.34931 39.63 4.08502 39.7246 3.82697C39.8234 3.56477 39.9655 3.32753 40.1507 3.11527C40.336 2.89884 40.5624 2.7282 40.83 2.60334C41.0976 2.47432 41.4022 2.40981 41.7439 2.40981C42.1474 2.40981 42.4953 2.49929 42.7876 2.67826C43.084 2.85722 43.3042 3.0903 43.4483 3.37748L42.7937 3.83322C42.7196 3.66674 42.6229 3.53563 42.5035 3.43991C42.3841 3.34002 42.2565 3.27135 42.1206 3.23389C41.9848 3.19227 41.851 3.17146 41.7192 3.17146C41.5052 3.17146 41.3179 3.21516 41.1573 3.30256C41.0009 3.38996 40.8691 3.50442 40.7621 3.64593C40.655 3.78744 40.5748 3.94559 40.5212 4.1204C40.4718 4.2952 40.4471 4.47001 40.4471 4.64481C40.4471 4.84043 40.478 5.0298 40.5398 5.21293C40.6015 5.39189 40.688 5.55213 40.7991 5.69364C40.9144 5.83099 41.0503 5.94128 41.2067 6.02452C41.3673 6.1036 41.5422 6.14314 41.7316 6.14314C41.8674 6.14314 42.0054 6.12025 42.1453 6.07446C42.2853 6.02868 42.415 5.95585 42.5344 5.85596C42.6538 5.75607 42.7464 5.62705 42.8123 5.46889L43.5101 5.87469C43.4236 6.09527 43.2816 6.28256 43.084 6.43656C42.8905 6.59055 42.6723 6.70709 42.4294 6.78617C42.1865 6.86525 41.9457 6.90479 41.7069 6.90479C41.394 6.90479 41.1079 6.84028 40.8485 6.71125C40.5892 6.57807 40.3648 6.40326 40.1754 6.18684C39.9902 5.96625 39.844 5.72069 39.737 5.45016C39.6341 5.17547 39.5826 4.89869 39.5826 4.61984Z" fill="#5C667D"/>
<path d="M43.7617 4.61984C43.7617 4.34931 43.8091 4.08502 43.9038 3.82697C44.0026 3.56477 44.1446 3.32753 44.3299 3.11527C44.5151 2.89884 44.7415 2.7282 45.0091 2.60334C45.2767 2.47432 45.5814 2.40981 45.9231 2.40981C46.3265 2.40981 46.6744 2.49929 46.9667 2.67826C47.2631 2.85722 47.4833 3.0903 47.6274 3.37748L46.9729 3.83322C46.8988 3.66674 46.802 3.53563 46.6826 3.43991C46.5632 3.34002 46.4356 3.27135 46.2998 3.23389C46.1639 3.19227 46.0301 3.17146 45.8984 3.17146C45.6843 3.17146 45.497 3.21516 45.3364 3.30256C45.18 3.38996 45.0482 3.50442 44.9412 3.64593C44.8342 3.78744 44.7539 3.94559 44.7004 4.1204C44.651 4.2952 44.6263 4.47001 44.6263 4.64481C44.6263 4.84043 44.6572 5.0298 44.7189 5.21293C44.7807 5.39189 44.8671 5.55213 44.9783 5.69364C45.0935 5.83099 45.2294 5.94128 45.3858 6.02452C45.5464 6.1036 45.7213 6.14314 45.9107 6.14314C46.0466 6.14314 46.1845 6.12025 46.3245 6.07446C46.4644 6.02868 46.5941 5.95585 46.7135 5.85596C46.8329 5.75607 46.9255 5.62705 46.9914 5.46889L47.6892 5.87469C47.6027 6.09527 47.4607 6.28256 47.2631 6.43656C47.0696 6.59055 46.8514 6.70709 46.6085 6.78617C46.3656 6.86525 46.1248 6.90479 45.886 6.90479C45.5731 6.90479 45.287 6.84028 45.0277 6.71125C44.7683 6.57807 44.5439 6.40326 44.3546 6.18684C44.1693 5.96625 44.0232 5.72069 43.9161 5.45016C43.8132 5.17547 43.7617 4.89869 43.7617 4.61984Z" fill="#5C667D"/>
<path d="M48.2916 6.86733V2.43478H49.1376V5.65618L51.2618 2.43478H52.0523V6.86733H51.2063V3.68338L49.1067 6.86733H48.2916Z" fill="#5C667D"/>
<path d="M53.0255 6.86733V2.43478H53.8715V5.65618L55.9958 2.43478H56.7862V6.86733H55.9402V3.68338L53.8406 6.86733H53.0255ZM54.9089 2.16009C54.6743 2.16009 54.4705 2.12263 54.2976 2.04771C54.1288 1.96863 53.9971 1.86042 53.9024 1.72307C53.8118 1.58573 53.7665 1.43173 53.7665 1.26109H54.347C54.347 1.38179 54.3902 1.49 54.4767 1.58573C54.5672 1.67729 54.7113 1.72307 54.9089 1.72307C55.1024 1.72307 55.2445 1.67937 55.335 1.59197C55.4256 1.50457 55.4709 1.39428 55.4709 1.26109H56.0575C56.0575 1.43173 56.0102 1.58573 55.9155 1.72307C55.8249 1.86042 55.6932 1.96863 55.5203 2.04771C55.3515 2.12263 55.1477 2.16009 54.9089 2.16009Z" fill="#5C667D"/>
<path d="M57.463 4.61984C57.463 4.34931 57.5104 4.08502 57.6051 3.82697C57.7039 3.56477 57.8459 3.32753 58.0311 3.11527C58.2164 2.89884 58.4428 2.7282 58.7104 2.60334C58.978 2.47432 59.2827 2.40981 59.6244 2.40981C60.0278 2.40981 60.3757 2.49929 60.668 2.67826C60.9644 2.85722 61.1846 3.0903 61.3287 3.37748L60.6741 3.83322C60.6 3.66674 60.5033 3.53563 60.3839 3.43991C60.2645 3.34002 60.1369 3.27135 60.001 3.23389C59.8652 3.19227 59.7314 3.17146 59.5996 3.17146C59.3856 3.17146 59.1983 3.21516 59.0377 3.30256C58.8813 3.38996 58.7495 3.50442 58.6425 3.64593C58.5355 3.78744 58.4552 3.94559 58.4017 4.1204C58.3523 4.2952 58.3276 4.47001 58.3276 4.64481C58.3276 4.84043 58.3584 5.0298 58.4202 5.21293C58.4819 5.39189 58.5684 5.55213 58.6795 5.69364C58.7948 5.83099 58.9307 5.94128 59.0871 6.02452C59.2477 6.1036 59.4226 6.14314 59.612 6.14314C59.7479 6.14314 59.8858 6.12025 60.0257 6.07446C60.1657 6.02868 60.2954 5.95585 60.4148 5.85596C60.5342 5.75607 60.6268 5.62705 60.6927 5.46889L61.3905 5.87469C61.304 6.09527 61.162 6.28256 60.9644 6.43656C60.7709 6.59055 60.5527 6.70709 60.3098 6.78617C60.0669 6.86525 59.8261 6.90479 59.5873 6.90479C59.2744 6.90479 58.9883 6.84028 58.7289 6.71125C58.4696 6.57807 58.2452 6.40326 58.0558 6.18684C57.8706 5.96625 57.7244 5.72069 57.6174 5.45016C57.5145 5.17547 57.463 4.89869 57.463 4.61984Z" fill="#5C667D"/>
<path d="M61.9743 6.86733V2.43478H62.8203V4.22029H63.2526L64.5556 2.43478H65.5065L63.9133 4.58238L65.6301 6.86733H64.5988L63.2402 5.00066H62.8203V6.86733H61.9743Z" fill="#5C667D"/>
<path d="M67.4053 2.43478H68.2698L69.8815 6.86733H69.0047L68.5971 5.76231H67.0656L66.6643 6.86733H65.7874L67.4053 2.43478ZM68.4427 5.15674L67.8375 3.32753L67.2077 5.15674H68.4427Z" fill="#5C667D"/>
<path d="M70.2451 6.86733L71.3196 5.08807C71.0479 4.9965 70.8338 4.83835 70.6774 4.6136C70.5251 4.38469 70.4489 4.11415 70.4489 3.802C70.4489 3.5398 70.5106 3.30672 70.6341 3.10278C70.7577 2.89468 70.9285 2.73236 71.1467 2.61583C71.3649 2.49513 71.6201 2.43478 71.9124 2.43478H73.623V6.86733H72.777V5.1942H72.3323C72.3076 5.1942 72.2809 5.1942 72.2521 5.1942C72.2274 5.1942 72.2027 5.1942 72.178 5.1942L71.2023 6.86733H70.2451ZM72.0112 4.45752H72.777V3.16521H72.0236C71.896 3.16521 71.7766 3.19019 71.6654 3.24013C71.5584 3.28591 71.4719 3.35667 71.4061 3.45239C71.3443 3.54396 71.3134 3.66049 71.3134 3.802C71.3134 3.94351 71.3422 4.06421 71.3999 4.1641C71.4575 4.25982 71.5398 4.33266 71.6469 4.3826C71.7539 4.43255 71.8754 4.45752 72.0112 4.45752Z" fill="#5C667D"/>
<path d="M31.3454 14.359V9.92641H32.1914V11.7119H32.6237L33.9267 9.92641H34.8777L33.2845 12.074L35.0012 14.359H33.9699L32.6114 12.4923H32.1914V14.359H31.3454Z" fill="#5C667D"/>
<path d="M35.6155 14.359V9.92641H36.4615V13.1478L38.5857 9.92641H39.3762V14.359H38.5302V11.175L36.4306 14.359H35.6155Z" fill="#5C667D"/>
<path d="M40.3309 14.359V9.92641H43.4926V10.6693H41.1769V11.7369H42.3687C42.8586 11.7369 43.2271 11.8534 43.4741 12.0865C43.7211 12.3196 43.8446 12.6317 43.8446 13.023C43.8446 13.2852 43.7911 13.5162 43.684 13.7159C43.577 13.9157 43.4185 14.0739 43.2085 14.1904C42.9986 14.3028 42.733 14.359 42.4119 14.359H40.3309ZM41.1769 13.616H42.2946C42.4593 13.616 42.591 13.5869 42.6898 13.5286C42.7886 13.4662 42.8607 13.3892 42.9059 13.2976C42.9512 13.2019 42.9739 13.102 42.9739 12.998C42.9739 12.8939 42.9533 12.7982 42.9121 12.7108C42.8751 12.6192 42.8071 12.5464 42.7083 12.4923C42.6095 12.434 42.4675 12.4049 42.2822 12.4049H41.1769V13.616Z" fill="#5C667D"/>
<path d="M47.4878 13.6036V14.359H44.4434V9.92641H47.4322V10.6818H45.2956V11.7494H47.142V12.4486H45.2956V13.6036H47.4878Z" fill="#5C667D"/>
<path d="M48.1521 14.359V9.92641H50.0109C50.2126 9.92641 50.3979 9.96803 50.5667 10.0513C50.7354 10.1345 50.8816 10.2469 51.0051 10.3884C51.1327 10.5299 51.2315 10.6881 51.3015 10.8629C51.3715 11.0377 51.4065 11.2166 51.4065 11.3998C51.4065 11.6495 51.3488 11.8867 51.2336 12.1115C51.1183 12.3362 50.9598 12.5193 50.7581 12.6609C50.5564 12.8024 50.3176 12.8731 50.0418 12.8731H49.0043V14.359H48.1521ZM49.0043 12.1177H49.9924C50.0953 12.1177 50.1879 12.0886 50.2702 12.0303C50.3526 11.972 50.4184 11.8888 50.4678 11.7806C50.5172 11.6682 50.5419 11.5413 50.5419 11.3998C50.5419 11.2458 50.5131 11.1147 50.4555 11.0065C50.402 10.8982 50.3299 10.8171 50.2394 10.763C50.1529 10.7089 50.0582 10.6818 49.9553 10.6818H49.0043V12.1177Z" fill="#5C667D"/>
<path d="M51.7341 12.1115C51.7341 11.8409 51.7814 11.5766 51.8761 11.3186C51.9749 11.0564 52.1169 10.8192 52.3022 10.6069C52.4874 10.3905 52.7139 10.2198 52.9815 10.095C53.249 9.96595 53.5537 9.90144 53.8954 9.90144C54.2988 9.90144 54.6467 9.99092 54.939 10.1699C55.2354 10.3489 55.4557 10.5819 55.5997 10.8691L54.9452 11.3248C54.8711 11.1584 54.7743 11.0273 54.6549 10.9315C54.5355 10.8316 54.4079 10.763 54.2721 10.7255C54.1362 10.6839 54.0024 10.6631 53.8707 10.6631C53.6566 10.6631 53.4693 10.7068 53.3087 10.7942C53.1523 10.8816 53.0206 10.996 52.9135 11.1376C52.8065 11.2791 52.7262 11.4372 52.6727 11.612C52.6233 11.7868 52.5986 11.9616 52.5986 12.1364C52.5986 12.3321 52.6295 12.5214 52.6912 12.7046C52.753 12.8835 52.8394 13.0438 52.9506 13.1853C53.0658 13.3226 53.2017 13.4329 53.3581 13.5162C53.5187 13.5952 53.6937 13.6348 53.883 13.6348C54.0189 13.6348 54.1568 13.6119 54.2968 13.5661C54.4367 13.5203 54.5664 13.4475 54.6858 13.3476C54.8052 13.2477 54.8978 13.1187 54.9637 12.9605L55.6615 13.3663C55.575 13.5869 55.433 13.7742 55.2354 13.9282C55.0419 14.0822 54.8237 14.1987 54.5808 14.2778C54.3379 14.3569 54.0971 14.3964 53.8583 14.3964C53.5455 14.3964 53.2593 14.3319 53 14.2029C52.7406 14.0697 52.5162 13.8949 52.3269 13.6785C52.1416 13.4579 51.9955 13.2123 51.8884 12.9418C51.7855 12.6671 51.7341 12.3903 51.7341 12.1115Z" fill="#5C667D"/>
<path d="M56.2453 14.359V9.92641H59.7961V14.359H58.9501V10.6818H57.0914V14.359H56.2453Z" fill="#5C667D"/>
<path d="M62.5908 14.3902C62.2697 14.3902 61.9774 14.3277 61.7139 14.2029C61.4545 14.078 61.2302 13.9095 61.0408 13.6972C60.8555 13.4808 60.7114 13.2394 60.6085 12.973C60.5056 12.7025 60.4541 12.4257 60.4541 12.1427C60.4541 11.8472 60.5077 11.5662 60.6147 11.2999C60.7259 11.0293 60.8761 10.79 61.0655 10.5819C61.259 10.3697 61.4854 10.2032 61.7448 10.0825C62.0082 9.95763 62.2964 9.8952 62.6093 9.8952C62.9263 9.8952 63.2145 9.95971 63.4738 10.0887C63.7373 10.2178 63.9617 10.3905 64.1469 10.6069C64.3322 10.8233 64.4763 11.0647 64.5792 11.3311C64.6821 11.5975 64.7336 11.8722 64.7336 12.1552C64.7336 12.4465 64.6801 12.7274 64.573 12.998C64.466 13.2643 64.3157 13.5037 64.1222 13.7159C63.9329 13.924 63.7064 14.0884 63.443 14.2091C63.1836 14.3298 62.8995 14.3902 62.5908 14.3902ZM61.3187 12.1427C61.3187 12.3341 61.3475 12.5193 61.4051 12.6983C61.4628 12.8773 61.5451 13.0375 61.6521 13.179C61.7633 13.3164 61.8971 13.4267 62.0535 13.5099C62.2141 13.589 62.3952 13.6285 62.597 13.6285C62.8028 13.6285 62.986 13.5869 63.1465 13.5037C63.3071 13.4163 63.4409 13.3018 63.5479 13.1603C63.655 13.0146 63.7352 12.8544 63.7888 12.6796C63.8464 12.5006 63.8752 12.3217 63.8752 12.1427C63.8752 11.9512 63.8443 11.7681 63.7826 11.5933C63.725 11.4143 63.6406 11.2562 63.5294 11.1188C63.4224 10.9773 63.2886 10.867 63.128 10.7879C62.9716 10.7047 62.7946 10.6631 62.597 10.6631C62.387 10.6631 62.2017 10.7068 62.0412 10.7942C61.8847 10.8774 61.753 10.9898 61.646 11.1313C61.5389 11.2728 61.4566 11.431 61.399 11.6058C61.3454 11.7806 61.3187 11.9596 61.3187 12.1427Z" fill="#5C667D"/>
<path d="M65.3873 14.359V9.92641H67.246C67.4478 9.92641 67.633 9.96803 67.8018 10.0513C67.9706 10.1345 68.1167 10.2469 68.2402 10.3884C68.3679 10.5299 68.4667 10.6881 68.5367 10.8629C68.6066 11.0377 68.6416 11.2166 68.6416 11.3998C68.6416 11.6495 68.584 11.8867 68.4687 12.1115C68.3535 12.3362 68.195 12.5193 67.9932 12.6609C67.7915 12.8024 67.5527 12.8731 67.2769 12.8731H66.2395V14.359H65.3873ZM66.2395 12.1177H67.2275C67.3304 12.1177 67.423 12.0886 67.5054 12.0303C67.5877 11.972 67.6536 11.8888 67.703 11.7806C67.7524 11.6682 67.7771 11.5413 67.7771 11.3998C67.7771 11.2458 67.7483 11.1147 67.6906 11.0065C67.6371 10.8982 67.5651 10.8171 67.4745 10.763C67.3881 10.7089 67.2934 10.6818 67.1905 10.6818H66.2395V12.1177Z" fill="#5C667D"/>
<path d="M72.5138 10.6818H71.112V14.359H70.266V10.6818H68.8642V9.92641H72.5138V10.6818Z" fill="#5C667D"/>
<path d="M73.089 14.359V9.92641H73.935V13.1478L76.0592 9.92641H76.8497V14.359H76.0037V11.175L73.9041 14.359H73.089Z" fill="#5C667D"/>
<path d="M81.3242 13.2165C81.3242 13.4662 81.2604 13.6764 81.1328 13.847C81.0052 14.0135 80.8323 14.1405 80.6141 14.2279C80.4 14.3153 80.1654 14.359 79.9101 14.359H77.792V9.92641H80.1386C80.3444 9.92641 80.5215 9.9826 80.6697 10.095C80.822 10.2032 80.9373 10.3447 81.0155 10.5195C81.0978 10.6901 81.139 10.8691 81.139 11.0564C81.139 11.2687 81.0855 11.4705 80.9784 11.662C80.8714 11.8534 80.715 11.9949 80.5091 12.0865C80.7602 12.1614 80.9578 12.2967 81.1019 12.4923C81.2501 12.6879 81.3242 12.9293 81.3242 13.2165ZM80.4659 13.0542C80.4659 12.9418 80.4432 12.8419 80.398 12.7545C80.3527 12.6629 80.2909 12.5922 80.2127 12.5422C80.1386 12.4881 80.0521 12.4611 79.9533 12.4611H78.6442V13.6285H79.9101C80.013 13.6285 80.1057 13.6036 80.188 13.5536C80.2744 13.4995 80.3424 13.4287 80.3918 13.3413C80.4412 13.2539 80.4659 13.1582 80.4659 13.0542ZM78.6442 10.6631V11.7806H79.7804C79.8751 11.7806 79.9616 11.7577 80.0398 11.7119C80.118 11.6661 80.1798 11.6016 80.225 11.5184C80.2744 11.4351 80.2991 11.3353 80.2991 11.2187C80.2991 11.1063 80.2765 11.0085 80.2312 10.9253C80.1901 10.8421 80.1324 10.7775 80.0583 10.7318C79.9883 10.686 79.9081 10.6631 79.8175 10.6631H78.6442Z" fill="#5C667D"/>
<path d="M85.6758 9.92641V14.359H84.8298V12.4673H82.8414V14.359H81.9892V9.92641H82.8414V11.7182H84.8298V9.92641H85.6758Z" fill="#5C667D"/>
<path d="M87.7823 9.92641H88.6469L90.2586 14.359H89.3817L88.9741 13.2539H87.4427L87.0413 14.359H86.1644L87.7823 9.92641ZM88.8198 12.6484L88.2146 10.8192L87.5847 12.6484H88.8198Z" fill="#5C667D"/>
<path d="M90.6221 14.359L91.6966 12.5797C91.4249 12.4881 91.2109 12.33 91.0544 12.1052C90.9021 11.8763 90.8259 11.6058 90.8259 11.2936C90.8259 11.0314 90.8877 10.7984 91.0112 10.5944C91.1347 10.3863 91.3055 10.224 91.5237 10.1075C91.7419 9.98676 91.9972 9.92641 92.2895 9.92641H94V14.359H93.154V12.6858H92.7094C92.6847 12.6858 92.6579 12.6858 92.6291 12.6858C92.6044 12.6858 92.5797 12.6858 92.555 12.6858L91.5793 14.359H90.6221ZM92.3883 11.9492H93.154V10.6568H92.4006C92.273 10.6568 92.1536 10.6818 92.0424 10.7318C91.9354 10.7775 91.849 10.8483 91.7831 10.944C91.7213 11.0356 91.6905 11.1521 91.6905 11.2936C91.6905 11.4351 91.7193 11.5558 91.7769 11.6557C91.8345 11.7515 91.9169 11.8243 92.0239 11.8742C92.131 11.9242 92.2524 11.9492 92.3883 11.9492Z" fill="#5C667D"/>
<path d="M34.1243 21.8506V18.1734H32.8398L32.8151 18.9226C32.7946 19.5095 32.7472 19.9943 32.6731 20.3772C32.599 20.7601 32.492 21.0619 32.352 21.2825C32.212 21.4989 32.035 21.6529 31.8209 21.7445C31.611 21.8319 31.3578 21.8756 31.0614 21.8756V21.1326C31.2137 21.1326 31.3454 21.0993 31.4566 21.0328C31.5677 20.9662 31.6604 20.8455 31.7345 20.6707C31.8127 20.4959 31.8745 20.2482 31.9197 19.9277C31.965 19.6073 31.9959 19.1931 32.0124 18.6854L32.0556 17.418H34.9703V21.8506H34.1243Z" fill="#5C667D"/>
<path d="M35.923 21.8506V17.418H36.769V20.6394L38.8933 17.418H39.6837V21.8506H38.8377V18.6666L36.7381 21.8506H35.923Z" fill="#5C667D"/>
<path d="M40.6384 21.8506V17.418H43.3308V18.1734H41.4844V21.8506H40.6384Z" fill="#5C667D"/>
<path d="M45.1347 17.418H45.9992L47.6109 21.8506H46.7341L46.3265 20.7456H44.795L44.3936 21.8506H43.5168L45.1347 17.418ZM46.1721 20.14L45.5669 18.3108L44.9371 20.14H46.1721Z" fill="#5C667D"/>
</svg>
