<svg width="41" height="41" viewBox="0 0 41 41" fill="none" xmlns="http://www.w3.org/2000/svg">
<g clip-path="url(#clip0_8_12)">
<mask id="mask0_8_12" style="mask-type:luminance" maskUnits="userSpaceOnUse" x="0" y="0" width="41" height="41">
<path d="M40.1081 0.250977H0V40.3591H40.1081V0.250977Z" fill="white"/>
</mask>
<g mask="url(#mask0_8_12)">
<path d="M19.231 40.3591H20.9011C29.9672 40.3591 34.501 40.3591 37.3166 37.5435C40.1322 34.7279 40.1081 30.1957 40.1081 21.1521V19.4579C40.1081 10.416 40.1081 5.88215 37.3166 3.06657C34.5251 0.250985 29.9672 0.250977 20.9011 0.250977H19.231C10.1634 0.250977 5.63118 0.250985 2.81559 3.06657C-1.59375e-06 5.88215 0 10.4128 0 19.4579V21.1521C0 30.1957 -1.59375e-06 34.7279 2.81559 37.5435C5.63118 40.3591 10.1634 40.3591 19.231 40.3591Z" fill="black"/>
<path d="M21.5224 29.1687C12.4789 29.1687 6.99047 22.8942 6.7771 12.4677H11.3574C11.5002 20.1267 14.9848 23.3771 17.656 24.0396V12.4677H22.0471V19.0759C24.6236 18.7903 27.3189 15.7838 28.2269 12.4677H32.5442C31.8527 16.5474 28.9184 19.554 26.8424 20.7941C28.9184 21.7968 32.2586 24.4215 33.5468 29.1687H28.7996C27.7969 25.9953 25.3391 23.5375 22.0471 23.2038V29.1687H21.5224Z" fill="white"/>
</g>
</g>
<defs>
<clipPath id="clip0_8_12">
<rect width="40.1081" height="40.1081" fill="white" transform="translate(0 0.250977)"/>
</clipPath>
</defs>
</svg>
