<svg xmlns="http://www.w3.org/2000/svg" width="8" height="8" fill="none" style=""><rect id="backgroundrect" width="100%" height="100%" x="0" y="0" fill="none" stroke="none"/>


<g class="currentLayer" style=""><title>Layer 1</title><path d="M0.291672 3.75318C0.291672 2.04527 0.291672 1.19257 0.819891 0.659323C1.35566 0.131104 2.20835 0.131104 3.91375 0.131104H4.21559C5.9235 0.131104 6.77619 0.131104 7.30944 0.659323C7.83766 1.19509 7.83766 2.04778 7.83766 3.75318V4.05502C7.83766 5.76293 7.83766 6.61562 7.30944 7.14887C6.77368 7.67709 5.92098 7.67709 4.21559 7.67709H3.91375C2.20584 7.67709 1.35314 7.67709 0.819891 7.14887C0.291672 6.61311 0.291672 5.76041 0.291672 4.05502V3.75318Z" fill="#446abb" id="svg_1" class="selected" fill-opacity="1" opacity="0.46"/><path d="M4.30622 5.56676C2.58573 5.56676 1.60475 4.38958 1.56451 2.42763H2.42978C2.45745 3.86639 3.09131 4.4751 3.59438 4.60087V2.42763H4.40683V3.66768C4.90235 3.61486 5.42554 3.04891 5.60161 2.42511H6.41155C6.34551 2.74802 6.21359 3.05384 6.02402 3.32347C5.83446 3.59309 5.59134 3.82073 5.30983 3.99216C5.62398 4.14852 5.90141 4.3697 6.12383 4.64111C6.34625 4.91253 6.50861 5.22801 6.6002 5.56676H5.70725C5.51609 4.97062 5.03818 4.5078 4.40683 4.44492V5.56676H4.30873H4.30622Z" fill="#0c1425" id="svg_2" class="" opacity="1" fill-opacity="1"/></g></svg>