<svg width="101" height="35" viewBox="0 0 101 35" fill="none" xmlns="http://www.w3.org/2000/svg">
<path d="M47.22 10V5.23H49.45C49.6678 5.22909 49.8831 5.27692 50.08 5.37C50.2689 5.45117 50.4391 5.5703 50.58 5.72C50.7255 5.86239 50.8411 6.03238 50.92 6.22C50.9999 6.39584 51.0408 6.58687 51.04 6.78C51.0374 6.9867 50.9932 7.19075 50.91 7.38C50.8297 7.56648 50.7104 7.73357 50.56 7.87C50.4089 8.00965 50.2275 8.11234 50.03 8.17L51.24 10H50.33L49.22 8.33H48V10H47.22ZM48 7.66H49.41C49.5524 7.66163 49.692 7.61977 49.81 7.54C49.925 7.4572 50.0177 7.34728 50.08 7.22C50.1464 7.08287 50.1806 6.93237 50.18 6.78C50.1814 6.62317 50.1436 6.46847 50.07 6.33C50.0048 6.20187 49.9127 6.08931 49.8 6C49.6814 5.92136 49.5423 5.8796 49.4 5.88H48V7.66Z" fill="#A1ADC9"/>
<path d="M54.3 10C53.9575 10.0019 53.6179 9.93736 53.3 9.81C53.034 9.69068 52.8007 9.50886 52.62 9.28C52.4496 9.05244 52.324 8.79452 52.25 8.52C52.1696 8.23019 52.1293 7.93075 52.13 7.63V5.23H52.94V7.64C52.9375 7.85207 52.961 8.06366 53.01 8.27C53.0534 8.46243 53.1313 8.6454 53.24 8.81C53.3482 8.97156 53.4964 9.10244 53.67 9.19C53.8812 9.28253 54.1094 9.33029 54.34 9.33029C54.5706 9.33029 54.7987 9.28253 55.01 9.19C55.1862 9.10168 55.3349 8.96681 55.44 8.8C55.5454 8.63479 55.6199 8.45183 55.66 8.26C55.7118 8.05736 55.7387 7.84915 55.74 7.64V5.23H56.55V7.64C56.5531 7.95146 56.5093 8.26161 56.42 8.56C56.3444 8.83277 56.2152 9.08773 56.04 9.31C55.855 9.53372 55.6181 9.70881 55.35 9.82C55.0182 9.9589 54.6591 10.0205 54.3 10Z" fill="#A1ADC9"/>
<path d="M60.8 6.35C60.7352 6.29022 60.6648 6.23665 60.59 6.19C60.4849 6.11856 60.3746 6.05505 60.26 6L59.86 5.88C59.7104 5.86516 59.5596 5.86516 59.41 5.88C59.1488 5.86217 58.888 5.92127 58.66 6.05C58.5837 6.10415 58.5218 6.17627 58.48 6.25999C58.4381 6.3437 58.4175 6.43644 58.42 6.53C58.4158 6.59571 58.4252 6.66159 58.4476 6.72352C58.4699 6.78545 58.5048 6.84212 58.55 6.89C58.6713 6.99234 58.8153 7.06433 58.97 7.1L59.68 7.29C59.9881 7.35035 60.2896 7.44078 60.58 7.56C60.8107 7.63938 61.0126 7.78557 61.16 7.98C61.311 8.17325 61.3858 8.41525 61.37 8.66C61.3764 8.87636 61.3246 9.09047 61.22 9.28C61.1247 9.45188 60.987 9.59647 60.82 9.7C60.6353 9.81385 60.4323 9.89504 60.22 9.94C59.9803 9.99294 59.7355 10.0198 59.49 10.02C59.2352 10.0165 58.9811 9.99314 58.73 9.95C58.4803 9.89524 58.236 9.81826 58 9.72C57.7775 9.62751 57.5661 9.51009 57.37 9.37L57.73 8.73C57.82 8.79812 57.9134 8.86154 58.01 8.92C58.14 8.99687 58.2773 9.06052 58.42 9.11C58.5834 9.18256 58.7545 9.23624 58.93 9.27C59.1139 9.31022 59.3017 9.33034 59.49 9.33C59.7456 9.34575 60.0008 9.29402 60.23 9.18C60.3112 9.13692 60.3786 9.07188 60.4246 8.99231C60.4706 8.91274 60.4932 8.82184 60.49 8.73C60.4947 8.65858 60.4827 8.58704 60.455 8.52107C60.4272 8.4551 60.3844 8.39652 60.33 8.35C60.1836 8.23698 60.0174 8.1522 59.84 8.1L59.08 7.9C58.7929 7.83391 58.5119 7.74359 58.24 7.63C58.0367 7.55057 57.8599 7.41539 57.73 7.24C57.6108 7.06323 57.5513 6.85301 57.56 6.64C57.5486 6.35556 57.6371 6.0761 57.81 5.85C57.9777 5.62601 58.2071 5.45574 58.47 5.36C58.7898 5.24239 59.1295 5.18805 59.47 5.2C59.692 5.19746 59.9135 5.22095 60.13 5.27C60.3288 5.31523 60.523 5.37883 60.71 5.46C60.8818 5.53365 61.046 5.62409 61.2 5.73L60.8 6.35Z" fill="#A1ADC9"/>
<path d="M65.38 6.35C65.3211 6.2876 65.2538 6.23375 65.18 6.19C65.0736 6.12059 64.9634 6.05716 64.85 6L64.45 5.88C64.3004 5.86516 64.1496 5.86516 64 5.88C63.7388 5.86217 63.478 5.92127 63.25 6.05C63.1724 6.10366 63.1091 6.17541 63.0656 6.25905C63.022 6.34269 62.9995 6.4357 63 6.53C62.9977 6.59636 63.009 6.66249 63.033 6.72438C63.0571 6.78626 63.0935 6.84261 63.14 6.89C63.2613 6.99234 63.4053 7.06433 63.56 7.1L64.27 7.29C64.5781 7.35035 64.8795 7.44078 65.17 7.56C65.3991 7.64246 65.6002 7.78807 65.75 7.98C65.901 8.17325 65.9758 8.41525 65.96 8.66C65.9664 8.87636 65.9146 9.09047 65.81 9.28C65.7117 9.44965 65.5747 9.59359 65.41 9.7C65.2243 9.812 65.0217 9.89305 64.81 9.94C64.5703 9.99294 64.3255 10.0198 64.08 10.02C63.8252 10.017 63.5711 9.9936 63.32 9.95C63.0736 9.89947 62.8326 9.82581 62.6 9.73C62.3888 9.62982 62.1878 9.50925 62 9.37L62.37 8.73L62.64 8.92C62.7745 8.99493 62.9149 9.05849 63.06 9.11C63.2234 9.18256 63.3945 9.23624 63.57 9.27C63.7539 9.31022 63.9417 9.33034 64.13 9.33C64.3856 9.34575 64.6408 9.29402 64.87 9.18C64.9504 9.13603 65.0172 9.0708 65.0631 8.99144C65.1089 8.91207 65.1321 8.82163 65.13 8.73C65.1328 8.65786 65.1188 8.58605 65.0894 8.52015C65.0599 8.45425 65.0156 8.39603 64.96 8.35C64.8187 8.23489 64.6553 8.14982 64.48 8.1L63.72 7.9C63.4325 7.83544 63.1513 7.74508 62.88 7.63C62.6767 7.55057 62.4999 7.41539 62.37 7.24C62.2508 7.06323 62.1913 6.85301 62.2 6.64C62.1886 6.35557 62.2771 6.0761 62.45 5.85C62.6177 5.62601 62.8471 5.45574 63.11 5.36C63.395 5.25489 63.6962 5.20073 64 5.2C64.222 5.19746 64.4435 5.22095 64.66 5.27C64.8584 5.31671 65.0524 5.38027 65.24 5.46C65.4107 5.53584 65.5747 5.62617 65.73 5.73L65.38 6.35Z" fill="#A1ADC9"/>
<path d="M66.94 10V5.23H67.75V10H66.94Z" fill="#A1ADC9"/>
<path d="M70.56 5.23H71.33L73.33 9.98H72.48L72 8.69H70L69.42 10H68.56L70.56 5.23ZM71.75 8.13L71 6.05L70.19 8.13H71.75Z" fill="#A1ADC9"/>
<path d="M74.94 6.62V10H74.14V5.23H74.8L77.7 8.66V5.24H78.51V10H77.81L74.94 6.62Z" fill="#A1ADC9"/>
<path d="M46.89 16.92C46.8922 16.6252 46.9499 16.3335 47.06 16.06C47.1739 15.778 47.3402 15.5201 47.55 15.3C47.7672 15.0649 48.0335 14.8806 48.33 14.76C48.6609 14.6156 49.019 14.544 49.38 14.55C49.7953 14.5403 50.2058 14.6403 50.57 14.84C50.8871 15.0124 51.1476 15.2729 51.32 15.59L50.69 15.98C50.603 15.8063 50.4803 15.653 50.33 15.53C50.1853 15.4225 50.0228 15.3413 49.85 15.29C49.6862 15.2509 49.5184 15.2308 49.35 15.23C49.1049 15.2242 48.8618 15.2756 48.64 15.38C48.4461 15.4754 48.2728 15.6079 48.13 15.77C47.9923 15.9355 47.8872 16.1255 47.82 16.33C47.7115 16.6394 47.6877 16.9722 47.751 17.294C47.8143 17.6157 47.9624 17.9147 48.18 18.16C48.3293 18.3279 48.5126 18.462 48.7178 18.5533C48.923 18.6447 49.1454 18.6913 49.37 18.69C49.5428 18.6864 49.7144 18.6595 49.88 18.61C50.0575 18.5505 50.2259 18.4663 50.38 18.36C50.5314 18.2406 50.6515 18.0861 50.73 17.91L51.4 18.26C51.2954 18.5015 51.1258 18.7093 50.91 18.86C50.6861 19.0304 50.4314 19.156 50.16 19.23C49.8952 19.3161 49.6185 19.36 49.34 19.36C48.9952 19.3655 48.6535 19.2938 48.34 19.15C47.7603 18.8748 47.3039 18.3935 47.06 17.8C46.9464 17.5206 46.8887 17.2216 46.89 16.92Z" fill="#A1ADC9"/>
<path d="M52.57 14.59L54 16.94L55.42 14.59H56.31L54.4 17.59V19.29H53.59V17.62L51.69 14.62L52.57 14.59Z" fill="#A1ADC9"/>
<path d="M61.14 18.11C61.1485 18.3446 61.0741 18.5747 60.93 18.76C60.7801 18.9475 60.5835 19.0924 60.36 19.18C60.1056 19.2814 59.8339 19.3324 59.56 19.33H57.12V14.59H59.76C59.9797 14.5769 60.1977 14.6366 60.38 14.76C60.5541 14.8754 60.6953 15.0339 60.79 15.22C60.8809 15.3963 60.9289 15.5916 60.93 15.79C60.9282 16.0247 60.8588 16.2538 60.73 16.45C60.6041 16.655 60.4144 16.8131 60.19 16.9C60.4629 16.9659 60.7079 17.1164 60.89 17.33C61.0607 17.5534 61.149 17.829 61.14 18.11ZM57.92 15.23V16.63H59.41C59.536 16.6334 59.6605 16.6023 59.77 16.54C59.8766 16.4837 59.9637 16.3966 60.02 16.29C60.0902 16.1834 60.1251 16.0575 60.12 15.93C60.1211 15.8043 60.0901 15.6804 60.03 15.57C59.9724 15.471 59.8939 15.3857 59.8 15.32C59.6936 15.259 59.5727 15.2279 59.45 15.23H57.92ZM60.31 18C60.3123 17.871 60.2813 17.7435 60.22 17.63C60.1622 17.5225 60.08 17.43 59.98 17.36C59.8672 17.2956 59.7399 17.2612 59.61 17.26H57.92V18.71H59.56C59.6968 18.7139 59.8319 18.6792 59.95 18.61C60.0599 18.5502 60.1502 18.4599 60.21 18.35C60.2765 18.2455 60.3112 18.1239 60.31 18Z" fill="#A1ADC9"/>
<path d="M65.68 18.67V19.33H62.17V14.59H65.61V15.25H63V16.6H65.29V17.22H63V18.67H65.68Z" fill="#A1ADC9"/>
<path d="M66.7 19.33V14.59H68.93C69.1471 14.5856 69.3624 14.63 69.56 14.72C69.7454 14.8074 69.9145 14.9257 70.06 15.07C70.338 15.3541 70.4987 15.7326 70.51 16.13C70.5108 16.336 70.47 16.5401 70.39 16.73C70.3098 16.9179 70.1895 17.086 70.0375 17.2225C69.8855 17.359 69.7054 17.4605 69.51 17.52L70.72 19.33H69.81L68.7 17.68H67.51V19.33H66.7ZM67.51 17H68.92C69.0624 17.0016 69.202 16.9598 69.32 16.88C69.4354 16.7935 69.5281 16.6803 69.59 16.55C69.6593 16.4139 69.6937 16.2627 69.69 16.11C69.6891 15.9535 69.6514 15.7993 69.58 15.66C69.5037 15.5361 69.4014 15.4303 69.28 15.35C69.1607 15.2729 69.022 15.2313 68.88 15.23H67.51V17Z" fill="#A1ADC9"/>
<path d="M74.68 15.7C74.6152 15.6402 74.5449 15.5866 74.47 15.54L74.14 15.39C74.0105 15.3382 73.8766 15.298 73.74 15.27C73.5904 15.2553 73.4396 15.2553 73.29 15.27C73.0288 15.2522 72.768 15.3113 72.54 15.44C72.4637 15.4942 72.4018 15.5663 72.36 15.65C72.3181 15.7337 72.2975 15.8264 72.3 15.92C72.2958 15.9857 72.3052 16.0516 72.3276 16.1135C72.3499 16.1755 72.3848 16.2321 72.43 16.28C72.5503 16.3859 72.6944 16.4614 72.85 16.5L73.56 16.68C73.8657 16.7497 74.1664 16.8399 74.46 16.95C74.6874 17.0357 74.8877 17.1807 75.04 17.37C75.191 17.5632 75.2658 17.8053 75.25 18.05C75.2564 18.2664 75.2046 18.4805 75.1 18.67C75.0081 18.8469 74.8698 18.9956 74.7 19.1C74.5119 19.2047 74.3099 19.2822 74.1 19.33C73.8611 19.3878 73.6158 19.4147 73.37 19.41C73.115 19.4115 72.8604 19.3881 72.61 19.34C72.3628 19.2925 72.1215 19.2188 71.89 19.12C71.6656 19.0315 71.4537 18.9138 71.26 18.77L71.62 18.13C71.7075 18.2015 71.8012 18.2651 71.9 18.32C72.0317 18.3965 72.1687 18.4633 72.31 18.52C72.4754 18.5846 72.646 18.6347 72.82 18.67C73.0027 18.7184 73.191 18.742 73.38 18.74C73.6365 18.7531 73.8919 18.6979 74.12 18.58C74.202 18.5379 74.2701 18.473 74.3162 18.3932C74.3623 18.3134 74.3844 18.2221 74.38 18.13C74.3813 18.0581 74.3667 17.9867 74.3374 17.921C74.308 17.8554 74.2645 17.797 74.21 17.75C74.0702 17.6348 73.9061 17.5527 73.73 17.51C73.4811 17.4275 73.2273 17.3607 72.97 17.31C72.6838 17.2364 72.4031 17.1428 72.13 17.03C71.9267 16.9506 71.7499 16.8154 71.62 16.64C71.5008 16.4632 71.4413 16.253 71.45 16.04C71.4403 15.7558 71.5285 15.4769 71.7 15.25C71.8705 15.0288 72.0989 14.8592 72.36 14.76C72.8829 14.5613 73.451 14.5129 74 14.62C74.1988 14.6652 74.393 14.7288 74.58 14.81C74.7541 14.883 74.9187 14.9771 75.07 15.09L74.68 15.7Z" fill="#A1ADC9"/>
<path d="M76.23 19.33V14.59H78.38C78.6004 14.5848 78.8191 14.6292 79.02 14.72C79.2054 14.8074 79.3745 14.9257 79.52 15.07C79.6655 15.2124 79.7811 15.3824 79.86 15.57C79.9447 15.7806 79.9814 16.0074 79.9676 16.234C79.9538 16.4606 79.8897 16.6813 79.78 16.88C79.6522 17.1161 79.4663 17.3157 79.24 17.46C78.9958 17.6074 78.7152 17.6836 78.43 17.68H77V19.33H76.23ZM77 17H78.34C78.4826 17.0029 78.6226 16.961 78.74 16.88C78.8601 16.8029 78.9542 16.6914 79.01 16.56C79.0806 16.4208 79.115 16.266 79.11 16.11C79.1146 15.9484 79.0729 15.7888 78.99 15.65C78.9218 15.5236 78.8208 15.4179 78.6976 15.344C78.5744 15.2701 78.4336 15.2307 78.29 15.23H77V17Z" fill="#A1ADC9"/>
<path d="M83 19.36C82.6565 19.3619 82.3163 19.2939 82 19.16C81.7107 19.0316 81.4492 18.8482 81.23 18.62C81.0192 18.3911 80.8499 18.1272 80.73 17.84C80.612 17.5616 80.5508 17.2624 80.55 16.96C80.5521 16.647 80.6167 16.3377 80.74 16.05C80.8672 15.765 81.0432 15.5044 81.26 15.28C81.484 15.0555 81.7487 14.8756 82.04 14.75C82.3556 14.6139 82.6963 14.5458 83.04 14.55C83.3848 14.5451 83.7263 14.6169 84.04 14.76C84.3306 14.8904 84.5924 15.0774 84.81 15.31C85.0242 15.5363 85.1938 15.8009 85.31 16.09C85.4322 16.3708 85.4953 16.6738 85.4953 16.98C85.4953 17.2862 85.4322 17.5892 85.31 17.87C85.1901 18.1566 85.0171 18.4178 84.8 18.64C84.5708 18.8731 84.2966 19.0571 83.994 19.1809C83.6915 19.3047 83.3669 19.3656 83.04 19.36H83ZM81.41 17C81.4116 17.2179 81.4487 17.4341 81.52 17.64C81.5959 17.8448 81.7076 18.0344 81.85 18.2C81.9918 18.3674 82.1696 18.5007 82.37 18.59C82.5806 18.6845 82.8092 18.7322 83.04 18.73C83.2818 18.7346 83.5213 18.6832 83.74 18.58C83.9364 18.4844 84.1103 18.348 84.25 18.18C84.3861 18.0135 84.4911 17.8238 84.56 17.62C84.6304 17.4207 84.6675 17.2113 84.67 17C84.6695 16.7787 84.6324 16.5591 84.56 16.35C84.484 16.1483 84.3722 15.962 84.23 15.8C84.0815 15.6399 83.9053 15.5077 83.71 15.41C83.4994 15.3155 83.2708 15.2678 83.04 15.27C82.8014 15.2651 82.565 15.3165 82.35 15.42C82.1561 15.5154 81.9828 15.6479 81.84 15.81C81.6994 15.9751 81.5908 16.165 81.52 16.37C81.4431 16.571 81.4057 16.7849 81.41 17Z" fill="#A1ADC9"/>
<path d="M86.52 19.33V14.59H88.74C88.9604 14.5848 89.1791 14.6292 89.38 14.72C89.5654 14.8074 89.7345 14.9257 89.88 15.07C90.0192 15.2154 90.131 15.3848 90.21 15.57C90.2887 15.7462 90.3296 15.937 90.33 16.13C90.3308 16.336 90.29 16.5401 90.21 16.73C90.1298 16.9179 90.0095 17.086 89.8575 17.2225C89.7055 17.359 89.5254 17.4605 89.33 17.52L90.53 19.33H89.62L88.51 17.68H87.32V19.33H86.52ZM87.32 17.02H88.74C88.8795 17.0229 89.0163 16.9808 89.13 16.9C89.2509 16.8167 89.3475 16.7028 89.41 16.57C89.4793 16.4339 89.5137 16.2827 89.51 16.13C89.5116 15.9719 89.4702 15.8163 89.39 15.68C89.3199 15.5514 89.2162 15.4443 89.09 15.37C88.972 15.2902 88.8324 15.2484 88.69 15.25H87.32V17.02Z" fill="#A1ADC9"/>
<path d="M95.17 15.25H93.47V19.33H92.66V15.25H91V14.59H95.22L95.17 15.25Z" fill="#A1ADC9"/>
<path d="M47.22 28.68V23.94H48V28H50.75V28.66L47.22 28.68Z" fill="#A1ADC9"/>
<path d="M55.13 28V28.66H51.61V23.94H55.06V24.6H52.42V26H54.71V26.62H52.42V28H55.13Z" fill="#A1ADC9"/>
<path d="M57.62 23.94H58.39L60.39 28.68H59.54L59 27.39H57L56.5 28.68H55.64L57.62 23.94ZM58.81 26.84L58 24.76L57.18 26.84H58.81Z" fill="#A1ADC9"/>
<path d="M63.09 28.71C62.7667 28.7146 62.4461 28.6499 62.15 28.52C61.8618 28.3942 61.6004 28.2143 61.38 27.99C61.1628 27.7641 60.9898 27.4996 60.87 27.21C60.7421 26.9203 60.6773 26.6067 60.68 26.29C60.6764 25.9732 60.7412 25.6594 60.87 25.37C60.9926 25.0879 61.1654 24.8304 61.38 24.61C61.6008 24.3888 61.8623 24.2122 62.15 24.09C62.4674 23.9609 62.8074 23.8963 63.15 23.9C63.5784 23.8865 64.0027 23.9865 64.38 24.19C64.6971 24.3624 64.9576 24.6229 65.13 24.94L64.51 25.35C64.3852 25.1019 64.1859 24.8991 63.94 24.77C63.6895 24.6417 63.4114 24.5765 63.13 24.58C62.9025 24.5789 62.6775 24.6267 62.47 24.72C62.2745 24.8082 62.1005 24.9379 61.96 25.1C61.8194 25.2651 61.7108 25.455 61.64 25.66C61.5676 25.8691 61.5305 26.0887 61.53 26.31C61.535 26.7629 61.7017 27.1991 62 27.54C62.1529 27.6943 62.3325 27.8197 62.53 27.91C62.7382 27.9999 62.9632 28.0442 63.19 28.04C63.4655 28.0376 63.7365 27.969 63.98 27.84C64.2544 27.6938 64.496 27.493 64.69 27.25V28C64.4909 28.2275 64.2447 28.4089 63.9683 28.5315C63.692 28.6541 63.3923 28.715 63.09 28.71ZM64.58 26.84H63.51V26.28H65.26V28.68H64.58V26.84Z" fill="#A1ADC9"/>
<path d="M68.5 28.71C68.157 28.718 67.8162 28.6532 67.5 28.52C67.2304 28.4067 66.9957 28.2238 66.82 27.99C66.6445 27.7642 66.5154 27.5059 66.44 27.23C66.3589 26.9403 66.3185 26.6408 66.32 26.34V23.94H67.13V26.34C67.1324 26.5518 67.1559 26.7628 67.2 26.97C67.2459 27.1647 67.3236 27.3506 67.43 27.52C67.5382 27.6816 67.6864 27.8124 67.86 27.9C68.0731 27.9922 68.3028 28.0398 68.535 28.0398C68.7672 28.0398 68.9969 27.9922 69.21 27.9C69.3812 27.8083 69.5258 27.6739 69.63 27.51C69.7347 27.3397 69.8123 27.1541 69.86 26.96C69.909 26.757 69.9325 26.5488 69.93 26.34V23.94H70.75V26.34C70.7488 26.6512 70.7051 26.9607 70.62 27.26C70.5462 27.5385 70.4132 27.7977 70.23 28.02C70.0425 28.2368 69.8106 28.4107 69.55 28.53C69.2163 28.6621 68.8587 28.7234 68.5 28.71Z" fill="#A1ADC9"/>
<path d="M75.49 28V28.66H72V23.94H75.45V24.6H72.78V26H75.07V26.62H72.78V28H75.49Z" fill="#A1ADC9"/>
<path d="M7.81 14.66L6 11.74H14.9C17.27 11.74 18.45 12.83 18.45 15.03C18.5171 15.5979 18.4153 16.173 18.1574 16.6835C17.8995 17.1939 17.497 17.617 17 17.9L19.51 22H15.88L13.6 18.31H11.35V21.24L8.19 22.7V15.39H14.9C15.16 15.39 15.29 15.27 15.29 15.03C15.29 14.78 15.16 14.66 14.9 14.66H7.81Z" fill="#A1ADC9"/>
<path d="M23.94 11.74H31L29.18 14.66H23.94C22.36 14.66 21.57 15.39 21.57 16.85C21.57 18.31 22.36 19.0267 23.94 19H26.48L24.66 22H23.94C20.26 22 18.41 20.29 18.41 16.88C18.41 13.47 20.26 11.74 23.94 11.74Z" fill="#A1ADC9"/>
<path d="M28 11.74H31.15V19H36.67L34.86 22H28V11.74Z" fill="#A1ADC9"/>
<path d="M100.51 34.43H0V0H100.51V34.43ZM1 33.39H99.47V1H1V33.39Z" fill="#A1ADC9"/>
<path d="M42.32 0.71H41.28V33.85H42.32V0.71Z" fill="#A1ADC9"/>
</svg>
