<svg width="304" height="314" viewBox="0 0 304 314" fill="none" xmlns="http://www.w3.org/2000/svg">
<path d="M20.2914 134.959L0 100.044H98.7815C125.135 100.044 138.309 113.137 138.302 139.323C138.302 156.204 132.828 167.643 121.879 173.64L150.156 222.263H109.674L84.2919 178.611H62.8281V212.361L27.6965 229.814V143.696H98.7815C101.707 143.696 103.18 142.241 103.18 139.323C103.18 136.404 101.707 134.959 98.7815 134.959H20.2914Z" fill="#EAEAEA"/>
<path d="M215.439 100.044H304L283.719 134.91H215.439C197.877 134.91 189.096 143.639 189.096 161.099C189.096 178.558 197.877 187.308 215.439 187.347H243.717L223.436 222.263H215.419C174.436 222.263 153.944 201.891 153.944 161.148C153.944 120.406 174.442 100.038 215.439 100.044Z" fill="#EAEAEA"/>
<path d="M252.585 260.426L152.792 236.847L92.689 248.641L101.908 224.763L80.5743 188.224L38.5987 295.351L152.852 271.772L265.491 295.351L252.585 260.426Z" fill="#EAEAEA"/>
<path d="M115.846 70.6575C102.075 75.1792 89.2497 82.1603 77.9991 91.258H53.7195C72.2374 71.216 96.4971 57.3075 123.221 51.4117L115.846 70.6575Z" fill="#EAEAEA"/>
<path d="M173.865 66.0552C196.29 68.8146 217.073 79.0053 232.174 91.258H256.453C236.388 69.5391 209.617 55.0842 180.368 50.1765L173.865 66.0552Z" fill="#EAEAEA"/>
<path d="M262.916 143.447C269.079 161.311 270.77 180.4 267.844 199.06C264.918 217.721 257.462 235.392 246.122 250.544L263.658 254.708C277.145 233.788 285.923 207.51 285.923 181.141C285.939 168.38 284.096 155.683 280.452 143.447H262.916Z" fill="#EAEAEA"/>
<path d="M113.231 288.388C121.398 294.185 142.17 297.403 156.319 297.403C169.245 297.403 184.376 295.351 198.345 289.553L225.169 295.351C201.852 308.102 179.847 314.089 156.319 313.999C129.544 313.899 110.876 308.102 86.3862 294.185L113.231 288.388Z" fill="#EAEAEA"/>
<path d="M142.781 116.71L169.927 49.8079L151.539 0L115.165 94.5354C115.165 94.5354 137.28 96.2189 142.781 116.71Z" fill="#EAEAEA"/>
</svg>
