<svg width="37" height="39" viewBox="0 0 37 39" fill="none" xmlns="http://www.w3.org/2000/svg">
<path d="M2.46967 16.523L0 12.2484H12.0227C15.2303 12.2484 16.8336 13.8513 16.8328 17.0572C16.8328 19.124 16.1665 20.5245 14.8339 21.2587L18.2756 27.2115H13.3484L10.2592 21.8673H7.64685V25.9993L3.37095 28.136V17.5926H12.0227C12.3789 17.5926 12.5581 17.4146 12.5581 17.0572C12.5581 16.6999 12.3789 16.523 12.0227 16.523H2.46967Z" fill="#11192A"/>
<path d="M26.2212 12.2484H37L34.5315 16.5169H26.2212C24.0837 16.5169 23.0149 17.5857 23.0149 19.7232C23.0149 21.8608 24.0837 22.932 26.2212 22.9369H29.6629L27.1945 27.2115H26.2188C21.2307 27.2115 18.7366 24.7175 18.7366 19.7293C18.7366 14.7412 21.2315 12.2476 26.2212 12.2484Z" fill="#11192A"/>
<path d="M30.7423 31.8838L18.5963 28.997L11.2812 30.441L12.4033 27.5177L9.80674 23.0442L4.69787 36.1597L18.6037 33.2729L32.3131 36.1597L30.7423 31.8838Z" fill="#11192A"/>
<path d="M14.0997 8.65057C12.4236 9.20416 10.8626 10.0589 9.49331 11.1727H6.53823C8.79205 8.71895 11.7447 7.01614 14.9973 6.29432L14.0997 8.65057Z" fill="#11192A"/>
<path d="M21.1611 8.08712C23.8906 8.42494 26.42 9.67259 28.258 11.1727H31.213C28.7709 8.51365 25.5126 6.74394 21.9527 6.14309L21.1611 8.08712Z" fill="#11192A"/>
<path d="M31.9997 17.5621C32.7497 19.7493 32.9556 22.0863 32.5995 24.3709C32.2433 26.6555 31.3359 28.8189 29.9556 30.674L32.0899 31.1838C33.7315 28.6226 34.7999 25.4053 34.7999 22.1771C34.8018 20.6147 34.5775 19.0602 34.134 17.5621H31.9997Z" fill="#11192A"/>
<path d="M13.7814 35.3072C14.7754 36.017 17.3036 36.4109 19.0256 36.4109C20.5989 36.4109 22.4405 36.1597 24.1406 35.4499L27.4055 36.1597C24.5675 37.7208 21.8892 38.4538 19.0256 38.4428C15.7669 38.4306 13.4948 37.7208 10.5141 36.017L13.7814 35.3072Z" fill="#11192A"/>
<path d="M17.378 14.2887L20.6819 6.09796L18.4439 0L14.0168 11.5739C14.0168 11.5739 16.7084 11.78 17.378 14.2887Z" fill="#11192A"/>
</svg>
