<svg xmlns="http://www.w3.org/2000/svg" width="24" height="24" viewBox="0 0 24 24" fill="none">
    <g clip-path="url(#clip0_716_1236)">
        <mask id="mask0_716_1236" style="mask-type:luminance" maskUnits="userSpaceOnUse" x="0" y="0" width="24" height="24">
            <path d="M23.3333 0.332031H0V23.6653H23.3333V0.332031Z" fill="white"/>
        </mask>
        <g mask="url(#mask0_716_1236)">
            <path d="M11.1878 23.6653H12.1594C17.4336 23.6653 20.0713 23.6653 21.7093 22.0273C23.3473 20.3893 23.3333 17.7527 23.3333 12.4914V11.5059C23.3333 6.24561 23.3333 3.60803 21.7093 1.97003C20.0853 0.332036 17.4336 0.332031 12.1594 0.332031H11.1878C5.91265 0.332031 3.27599 0.332036 1.63799 1.97003C-1.04308e-06 3.60803 0 6.24376 0 11.5059V12.4914C0 17.7527 -1.04308e-06 20.3893 1.63799 22.0273C3.27599 23.6653 5.91265 23.6653 11.1878 23.6653Z" fill="white"/>
            <path d="M12.521 17.1554C7.25981 17.1554 4.06689 13.5052 3.94275 7.43945H6.60741C6.69048 11.8952 8.71767 13.7861 10.2717 14.1716V7.43945H12.8262V11.2838C14.3251 11.1177 15.8932 9.36865 16.4214 7.43945H18.933C18.5307 9.81292 16.8236 11.562 15.616 12.2835C16.8236 12.8668 18.7669 14.3937 19.5163 17.1554H16.7546C16.1713 15.3093 14.7414 13.8794 12.8262 13.6853V17.1554H12.521Z" fill="#070A15"/>
        </g>
    </g>
    <defs>
        <clipPath id="clip0_716_1236">
            <rect width="23.3333" height="23.3333" fill="white" transform="translate(0 0.332031)"/>
        </clipPath>
    </defs>
</svg>
