<svg xmlns="http://www.w3.org/2000/svg" width="28" height="28" viewBox="0 0 28 28" fill="none">
    <g clip-path="url(#clip0_716_1245)">
        <path d="M22.1842 4.09375H5.81474C2.60307 4.09375 -0.000488281 6.69731 -0.000488281 9.90897V18.092C-0.000488281 21.3036 2.60307 23.9072 5.81474 23.9072H22.1842C25.3959 23.9072 27.9994 21.3036 27.9994 18.092V9.90897C27.9994 6.69731 25.3959 4.09375 22.1842 4.09375ZM18.2514 14.3986L10.5949 18.0503C10.3909 18.1476 10.1552 17.9989 10.1552 17.7729V10.2412C10.1552 10.012 10.3971 9.86342 10.6015 9.96704L18.258 13.847C18.4857 13.9623 18.4817 14.2888 18.2514 14.3986Z" fill="white"/>
    </g>
    <defs>
        <clipPath id="clip0_716_1245">
            <rect width="27.9999" height="27.9999" fill="white" transform="translate(-0.000488281)"/>
        </clipPath>
    </defs>
</svg>
